<svg id="Layer_1" data-name="Layer 1" xmlns="http://www.w3.org/2000/svg" viewBox="0 0 566.83 566.83"><path d="M434.16,391.57c12.52-.59,25.1-.93,36.27-7.86a20.39,20.39,0,0,1,4.19-1.64c10.38-3.61,15.21-10.61,14.52-21.48-.36-5.75-.91-11.5-1.68-17.21a21.58,21.58,0,0,0-5-10.76,91.4,91.4,0,0,1-8.26-12.51A87.38,87.38,0,0,0,458,299.66a39.2,39.2,0,0,1-5.25-6.36c-1.36-2-2-4.24.39-6,2.11-1.57,3.76-.21,5.23,1.28,7.74,7.87,15.52,15.74,21.61,25,2.62,4,5.18,8,8,11.8a43.43,43.43,0,0,1,8.85,24.37,94.19,94.19,0,0,0,.78,10.5c1.48,9.38-3.69,16.3-8.39,23.39-1.14,1.72-3.18,2.33-5.21,2.72-2.22.42-4.41,1-6.62,1.42-3.91.76-5,2.79-4.61,6.93,1.7,17.62,6.77,34.29,12.6,50.89,4.06,11.54,6.84,23.53,10.11,35.34a25.85,25.85,0,0,1,.72,5.2c.1,1.8-.09,3.76-2.1,4.37s-3.47-.57-4.52-2.05c-2.34-3.29-4.28-7-4.55-11-.92-13-5.66-24.93-9.88-36.92-4.87-13.81-7.86-27.95-10.22-42.29-.94-5.67-1.09-5.86-6.62-3.87a19.27,19.27,0,0,1-5.82,1.31c-7.26.24-14.57,1-21.73,1a103.91,103.91,0,0,1-31-4.95c-7.13-2.27-14.31-4.48-21.59-6.17-4.27-1-7.64-2.31-8.69-7-.52-2.28-2-3.15-4.32-3.39-5-.5-10-1.14-14.76,1.23a13.92,13.92,0,0,1-7.29,1.42c-3.62-.23-6.85.34-9.58,3.22-2.56,2.71-6.16,2-9.26,1.31a52,52,0,0,0-13.41-1.51c-7.56.25-14.12-2.76-20.53-6.18-5.12-2.73-8-10.24-6.73-17.11S288,344.25,291.19,338c8.3-15.94,20.91-27.89,35.35-38.15,2.45-1.74,4.74-3.7,7.22-5.39,4.16-2.82,8.46-5.5,13.82-4.71a5.18,5.18,0,0,0,4.15-1.17,15,15,0,0,1,3.16-2c2.18-.88,4.42-1.15,6.29.74,1.22,1.24,1.09,2.72.43,4.17-1.05,2.32-3,2.25-5.1,1.9A13.18,13.18,0,0,0,343.7,298c-2,2.31-4.77,3.48-7.48,4.86-14.72,7.47-27.65,16.84-35.06,32.44-2.56,5.37-6.11,10.29-8.11,16a20,20,0,0,0-1.13,11c1.13,5.56,4.24,8.67,9.77,10,6.34,1.53,12.58,3.43,19.19,2.61,5.37-.67,10.31-3.25,15.84-3.36,3-.06,5.95-1,8.93-1.12,10.85-.26,21.19-3.51,31.76-5.34,3.59-.62,6.94-2.76,10.3-4.42,2.4-1.18,5.78-2.21,5.46-5.41-.28-2.87-1.86-6.23-4.59-7.41-7.75-3.38-15.5-7.32-24.38-2.71-4.41,2.29-9.81,1.65-14.47,3.73-1.81.81-3.94,0-5.89-.62-11.38-3.41-16.94-20-8.57-27.75,4-3.73,10.28-5.39,15.8-7.12,3.68-1.15,7.23,1.06,10.49,3.14,4.22,2.68,5.83,6.86,6.56,11.35.79,4.92,3.26,7.3,8.21,8.24a63,63,0,0,1,16.37,5.38c4.64,2.32,5,1.92,7.14-2.74,8.38-17.89,26.74-18.18,39.88-9.21,5.55,3.79,4.71,13.47-1.47,17.41a100.13,100.13,0,0,0-13,10.08c-3.86,3.46-9,3.59-13.4,5.78a28.86,28.86,0,0,1-16,3.09c-6.6-.73-11.85,3.4-17.55,5.81-1.84.77-1.57,2.23-.58,3.69a8.55,8.55,0,0,0,7.1,3.7c3.79.08,6.6,2,9.67,3.67,6.83,3.69,13.74,6.48,21.87,7C422.21,390.14,428.09,391.92,434.16,391.57ZM420,330.81c-5,.12-10.56,4.64-12.18,9.55-.92,2.8-1,5.78-3.53,8.05-1.69,1.51-.73,3.8.5,5.47,1.12,1.52,2.69,1.55,4.64,1.47,7.64-.33,13.44-5,19.72-8.26,3.94-2.07,3.91-6.95,3.76-10.81s-4.09-3.76-6.93-4.41C423.78,331.36,421.54,331.08,420,330.81Zm-58.24,2.41c.05-7.67-5.36-14-11.8-13.82-5.63.17-11.46,5.14-11.57,9.86-.11,5.08,6.91,13.21,11.45,13.25S361.72,336.88,361.75,333.22Z"/><path d="M136.08,70.85c9.53.38,22.45,1.82,34.88,6.11,5.44,1.88,11.12,2.91,16.45,5.23,12,5.22,21.83,13.36,30.4,22.88s16.89,19.8,21,32.61c4.94,15.39,6.36,30.81,2.41,46.61a122.49,122.49,0,0,1-4.8,14.18c-2.26,5.89-5.19,11.33-9.92,15.76a55.25,55.25,0,0,0-10.22,12c-1.95,3.32-5.27,4.67-8.5,5.83A39.87,39.87,0,0,0,195,239.72c-4,3.51-8.86,5.64-13.51,8.05-3.3,1.71-6,.9-7-1.61s.51-5.32,4.22-5.8c5.41-.68,9.08-3.92,13.11-6.85a33.1,33.1,0,0,1,5.14-3.1c20.26-9.79,31.06-26.87,36.54-47.85,3.93-15.05,2.46-30-3.22-44.29-3.32-8.34-9.11-15.56-14.86-22.51-7.56-9.14-16.84-16.37-26.73-22.81-6.62-4.31-14.41-5.92-21.78-8-12.73-3.69-25.77-5.89-39.3-4.78A62.21,62.21,0,0,0,89.88,96.56C82.81,102.91,75.5,109,69.07,116c-17.67,19.42-25.6,41.2-18.64,67.67,4.84,18.44,14.48,34.17,26,48.58,8.65,10.79,20.35,17.65,34.94,20,13,2.12,25.84,1.81,38.79,1.74a26.3,26.3,0,0,0,8.81-1.78c2.25-.81,4,0,4.64,2.41s-.87,3-2.75,3.61c-12.77,4.37-25.67,6.19-39,3-7.3-1.76-14.78-2.71-22.07-4.49-12.22-3-21-11.35-29.26-20.11C60.27,225.74,53,212.52,47.79,198.82c-6.09-15.87-10.4-32.89-6.22-50,3.69-15.13,10.2-29,22.12-40.2,8-7.52,16.63-14.36,24.38-22.22,5.08-5.15,12.07-8,18.79-10.74C115.08,72.21,123.77,71.28,136.08,70.85Z"/><path d="M493.64,197.57c1.44,8.87-1,17.89-2.91,27-1,4.8-2.89,6.84-5.25,5.71-3.15-1.5-3.94-4.28-3-7.58,3.64-12,3.26-24.53,2.05-36.59-1.71-17-6.88-33.31-18.12-47-3.18-3.85-5.83-8.23-9.39-11.68-9.92-9.63-22.13-15.4-35.33-19-5.87-1.58-11.93-.38-17.88.32-1.74.21-3.48.89-5.19.79-12.32-.76-22.51,5-33.38,9.6s-17.93,12.46-24.89,21a26.14,26.14,0,0,0-5.56,12.16c-.41,2.36-1.31,4.52-4.4,3.8-2.86-.67-3.31-2.71-2.67-5.24.31-1.21.29-2.62.92-3.63,8.54-13.78,16.08-28.5,32.84-34.54,3.49-1.26,6.61-3.53,9.88-5.31,11.93-6.53,25.14-6.18,37.95-7.88,9.77-1.3,18.86,1.88,27.78,5.36,22,8.55,37.28,24.06,46.32,45.6C489.68,165.29,495.23,180.41,493.64,197.57Z"/><path d="M403.7,290a70.41,70.41,0,0,1-24.13-2.93c-7.6-2.36-15.41-5-22.56-9.45s-14-9.38-19.74-15.7a56.33,56.33,0,0,1-9.42-15.29,17.58,17.58,0,0,1-1.45-8.07c.11-2.23.88-3.93,3.31-4.3s3.06,1.35,3.7,3a21,21,0,0,1,.87,3.64A23.11,23.11,0,0,0,339,251.05a75.63,75.63,0,0,0,32.49,24.29c12.44,5,25.15,6.75,38.14,7.13a53,53,0,0,0,35.61-11.64c8.6-6.87,17.51-13.32,24.84-21.68,2.69-3.07,5.28-6,5.85-10.23a11.83,11.83,0,0,1,1.13-3.56c1-2.16,2.55-4,5.24-3.13,2.35.74,2.36,3,2.4,5,.14,7.07-3.83,12.48-8.07,17.3a102,102,0,0,1-23.7,20.4c-5.5,3.35-10.42,7.69-16.47,10.24-5.58,2.35-11.22,4.3-17.42,4C413.79,288.91,408.65,291.17,403.7,290Z"/><path d="M105.69,203.31c-2.79,0-4.06-2.45-2.33-5.46,3.85-6.72,7.61-13.55,13.81-18.54a30.17,30.17,0,0,0,5.11-5.47c2.09-2.77,1.93-5.19-1-7-5.53-3.44-9.55-8.87-15.52-11.68-2.75-1.29-5-2.8-3.28-6.24,1.18-2.37,5.33-3.67,7.91-2.33a27.33,27.33,0,0,1,9,6.67,96.38,96.38,0,0,0,7.16,7.69c2.49,2.42,5.18,2.67,8,.26,5.71-4.86,11.67-9.44,17.16-14.52a24.38,24.38,0,0,1,8.39-4.74,3.91,3.91,0,0,1,5.21,1.66c1.24,2.07.48,3.84-1.09,5.37-.89.86-1.74,2-2.83,2.37-7,2.54-11.8,8.31-17.76,12.36-5.53,3.76-5.33,7-.47,11.36,3.73,3.33,7.33,6.87,11.41,9.71,3,2.12,4.15,4.82,4.64,8.12.6,4-1.19,5.47-5.12,4.33-2.91-.84-4.36-3.22-6-5.43a59.33,59.33,0,0,0-12.45-12.91c-2.59-1.93-4.49-1.91-7.15.45-6.6,5.83-11.52,13-17,19.74C110,201,108.66,203.32,105.69,203.31Z"/><path d="M319.06,495.18c.64-4.56,1.15-10.07,2.21-15.47,2.5-12.81,1.57-26,4.79-38.73a251.45,251.45,0,0,0,6.5-39.23c.57-6.37,5.64-8.41,8.92-12.18.94-1.09,2.33-.13,2.72,1.31a10.27,10.27,0,0,1-.44,5.9c-8.21,26.42-12.26,53.59-14.75,81.05-.64,7-1.4,13.94-2.17,20.9-.27,2.47-.35,5.53-3.91,5.23-3.08-.27-3.68-3-3.86-5.62C319,497.6,319.06,496.84,319.06,495.18Z"/><path d="M301,209c1.11-4.22,1.39-9.07,4.76-13.36,4-5.09,8.67-9.65,12-15.33,2.37-4.06,6.95-5.57,10.92-7.65,1.53-.8,3.31-1.12,4.88-1.86s3-2.47,4.59-.48c1.69,2.19,1.81,4.74-.23,6.83a14.4,14.4,0,0,1-4.29,3c-9.31,4.18-14.54,12.85-21.3,19.73-5.09,5.18-2.91,10.51,4.05,13,6.44,2.31,13.21,2.69,19.92,3.3,4.43.4,6.19,2.77,5,6.87-.59,2-1.92,3.24-3.89,2.49-9.15-3.48-19.21-2.79-28.34-6.5C303.39,216.73,301.05,214.51,301,209Z"/><path d="M175,259.67c2.41,2.88,1.68,5.21,1.88,7.37.63,6.77,4.14,11.58,9.94,15,6.72,3.93,14,5.17,21.63,4.74a24.09,24.09,0,0,1,5.23,0,4.32,4.32,0,0,1,3.92,4.73,3.54,3.54,0,0,1-4.7,3.52c-7.31-1.75-14.92-1.85-22.14-3.73-9.44-2.47-14.87-10-18.8-18.19C170,269,172.63,264.39,175,259.67Z"/><path d="M383.53,246.65c7.62-.8,14.25,1.93,20.52,5.78,2.74,1.68,3.52,6.69,1.62,9.28-1.08,1.48-2.45,1.48-4,.8a14.61,14.61,0,0,1-5.79-4.68c-3.55-4.75-8.13-5.34-13.38-3.82-1.68.48-3.31,1.18-5,1.58-2.83.65-5.17-.18-5.68-3.25s1.35-4.7,4.21-5.1C378.52,246.9,381,246.83,383.53,246.65Z"/><path d="M437.21,139.72c2.65-.21,4.7.86,4.89,4,.16,2.91-1.86,3.85-4.35,4a26.91,26.91,0,0,0-18.61,8c-1.46,1.46-3.64,3-6,1.64-1.7-1-1-4.91,1.2-7.34C418.13,145.64,430.77,139.94,437.21,139.72Z"/><path d="M370.37,126.53c5.12,3.35,6.25,7.52,6.89,11.56a24.61,24.61,0,0,0,5.52,12.79c1.8,2.1,4,4.41.78,6.91-2.13,1.67-6.09.44-7.6-2.6-3-6-5.31-12.41-5.36-19.22C370.57,133.34,370.4,130.65,370.37,126.53Z"/><path d="M441,175.72c-.14,2.33-1,4.58-4.19,4.64-3.85.06-9.42-5.68-9.23-9.38.13-2.48,3.16-4.68,6.63-4.81S441,170.5,441,175.72Z"/><path d="M369.14,167.13c0,4.34-1.74,7.24-4.53,7.46s-7.44-4.86-7.65-8.09c-.19-3,3-6.18,6.13-6.18C366.74,160.32,369.12,163,369.14,167.13Z"/></svg>