<svg id="Layer_1" data-name="Layer 1" xmlns="http://www.w3.org/2000/svg" viewBox="0 0 566.83 566.83"><path d="M487.55,464.73c-3.76,0-7.6-.24-11.26.4-7.25,1.26-14.47.46-21.69.38-11.8-.13-23.51-1.6-35.27-2.35-4.75-.31-9.43,0-13.59-3.09-2.32-1.74-5.45-1.16-8.06-.8a73.88,73.88,0,0,0-13.12,3.12c-24.43,8.12-48.26,17.93-73,25.27-12.9,3.82-24.67,10.64-37.13,15.7-11.58,4.7-21.91,12.14-34.24,15.21-8.72,2.18-17.76,3-26.1,6.83-3.66,1.69-5.17.18-6.14-4-2.38-10.09-2-20.43-2.94-30.66-2.11-23.75-3.23-47.53-3-71.39.2-17.44,1.55-34.84-.47-52.34-1.83-15.91-2.41-32-4.24-47.92-2-17.42-2.69-35-3.11-52.57-.66-28.08-.63-56.17-.86-84.25a14.17,14.17,0,0,1,.36-4.48c2.69-8,2.93-16.26,2.55-24.56-.15-3.07.59-5.4,3.46-6.83,5.16-2.57,10-5.72,15.17-8.26,25.83-12.59,53.68-19.14,81-27,13.19-3.81,26.52-7.18,39.94-10.26,15.88-3.65,31.9-6.6,47.78-10.24,6.58-1.5,13.46-2.72,20.14-1.4,4.95,1,8.14.36,10.55-4.31,1.23-2.38,3.22-1.92,4.15.73a17.18,17.18,0,0,1,.81,4.41c.68,9.26,1.45,18.51,1.89,27.78.77,16.28,1.24,32.58,2,48.87.51,11.27,2,22.44,3.38,33.65,2.05,17.22-.34,34.54-.32,51.82,0,15-.28,30.05-.39,45.08-.17,24.05-.11,48.12,1,72.17.34,7.76-.2,15.57.35,23.31a262.64,262.64,0,0,1-.43,38.16c-.63,8.39,1.53,16.44,1.69,24.69a3.74,3.74,0,0,0,.69,2.11,5.14,5.14,0,0,0,4.43,2.42c2.27-.17,2.64-2,2.83-3.8a34.77,34.77,0,0,0-.07-9c-.76-4.95-1.53-9.94-1.22-15,.79-12.77.56-25.53.24-38.32-.62-25.33-.45-50.67-.65-76-.15-19.81-.65-39.62-.26-59.44.57-28.32,2.59-56.64-2-84.9-1.5-9.34-.85-19-1.38-28.54-1-17.29-2.12-34.56-2.2-51.88a48.36,48.36,0,0,0-2.32-15.56c-1.68-5-4.23-6-8.51-2.9-2.5,1.78-4.58,2.77-7.49,1.53-1.42-.6-2.94-.27-4.44,0-8.87,1.69-17.74,3.39-26.63,4.93a88.72,88.72,0,0,1-21.71,1.5A143.39,143.39,0,0,0,321.15,85,64,64,0,0,1,310,86.43c-11.78.1-23.56,1.15-35.35.1a21.08,21.08,0,0,0-6,.24,99.58,99.58,0,0,1-29.86,1c-14.68-1.49-29.37-3-44.21-3.26-9.47-.14-19-1.26-28.51-1.47a24.16,24.16,0,0,0-8.21.73c-4.58,1.49-5.64,5.11-1.63,7.49,4.24,2.51,4.22,5.68,3.87,9.51a26.79,26.79,0,0,0-.39,6c1.74,13,1.52,26.06,1.52,39,0,12.07,1.47,23.95,2.06,35.91.15,3.17-.14,4.89-3.07,6.62-6.06,3.57-11.14,8.45-16.22,13.33-3.57,3.44-4.1,8.58-7.38,12.11-6.37,6.85-6.78,16.59-11.59,24.22a6.34,6.34,0,0,0-.36,4.44c2.19,8.78-4,11.86-10.05,15-2,1-4.14,1.75-6.18,2.71-5.9,2.79-8.88,7.9-10.82,13.8a7.73,7.73,0,0,0,2.87,9.31,32,32,0,0,0,14.23,6.51c6.33,1.1,9.77,4.76,12.44,10.56,4.84,10.51,11.15,20.3,21,26.88,4.78,3.18,8.37,6.19,8.51,12.63.06,3-.18,4.54-2.76,6-2.16,1.19-4.87,2.47-5.48,4.93-2,8-6.51,14.81-9.29,22.36-1.52,4.1-1.09,8.91-1.75,13.36-1.16,7.89,2.06,13.63,8.44,17.88a53.81,53.81,0,0,0,18.4,8.3c2.5.55,3.83,1.68,4.17,4.44,1.79,14.4,3.82,28.77,5.64,43.16.47,3.71.89,7.44,0,11.23-.63,2.88-2,4.4-5,4.46-4.25.09-8.47.6-12.74.72-9.69.27-19.36,1.25-29,2.11-5.49.49-11,1.36-16.48,1.1a23.46,23.46,0,0,0-8.94.83,30.89,30.89,0,0,1-15.61,1,30.48,30.48,0,0,0-9-.18c-11.83,1.49-23.72,2.24-35.61,3a77.43,77.43,0,0,1,5,7.76c15.7-1.48,31.4-3,47.23-2.22a23.57,23.57,0,0,0,6-.45c17-3.62,34.38-1.95,51.43-4.49a14.45,14.45,0,0,1,3,.13c9.37.49,18.84-1.17,28.13,1.45a14,14,0,0,0,5.24-.05,4.69,4.69,0,0,0,4.47-4.35c.28-2.5-.71-4.83-3.26-5.19-4.72-.67-5.16-4-5.6-7.59-1.4-11.45-2.95-22.88-4.16-34.35a88.31,88.31,0,0,1-.48-18c.19-2,0-4.2,1.77-5.56,3.88-3.06,7.7-6.32,13.39-7.19,0,11.93-.22,22.94,0,33.93.75,30.84,4.14,61.51,6.3,92.26.49,7.08,4.26,9.21,10.69,6.34,6.87-3.08,14-5.86,21.26-7.27,8.7-1.69,17.09-4,24.94-7.9C273,513.7,289,506,305.52,499.49c27.28-10.67,55.43-19,82.74-29.63a82.63,82.63,0,0,1,8.67-2.48c2.27-.6,4.4-.87,5.87,1.72,1.27,2.25,3.46,2.22,5.87,2.34,11.49.59,23,1.39,34.45,2.32a236.69,236.69,0,0,0,32.29.3c15.25-.85,30.53-1.21,45.8-1.74a46.63,46.63,0,0,1,7.37.56c1.85-2.88,3.75-5.72,5.68-8.55C518.68,463.33,503.12,464.58,487.55,464.73ZM168.46,99.43c.45-7,2.39-8.32,9.55-7.81,10,.7,19.93,1.9,30,1.46,7.71-.34,15.45,1.5,23.09,2.57,11.33,1.58,22.53,1.33,33.75.35a121.93,121.93,0,0,1,22.52-.21c8.51.85,17,1.42,25.51.06,1.21-.2,2.49-.41,4.85,1.19-6.84,1.7-12.74,2.72-18.32,4.64-16.35,5.62-33.65,7.72-49.85,13.88C235.31,121,221,126.25,206.51,131.21c-11.12,3.82-21.58,9.06-32.22,13.94-2.61,1.2-4,.16-4.08-2.32-.15-7.74-2.34-15.4-.62-23.2,1-4.76-.37-9.48-.63-14.22C168.85,103.41,168.33,101.4,168.46,99.43Zm18.35,246c-2.73-3.71-5.61-6.78-11.07-6A47.47,47.47,0,0,0,165.17,342c-1.72-10.5-1.74-10.6,7.3-12.56a62.83,62.83,0,0,0,11.36-3.54c4.22-1.78,6.14-.7,6.62,3.85.8,7.41,2.67,14.74,1.88,22.28-.15,1.45-.13,3.35-2,3.51-2.36.2-2.68-1.77-2.73-3.58C187.53,349.71,188.26,347.37,186.81,345.38ZM184.75,166.5q-.41,7.09-.83,14.19c0,.21-.28.41-.51.72-.64,0-1.37.14-2.1.13-7.95-.11-8.85-.64-10.91-8.17-1.14-4.14-.64-8.46-.22-12.68.23-2.27,1.84-3.37,4.08-3.73C184.2,155.35,185.31,156.35,184.75,166.5ZM152.94,319c-9.36-7.51-16.8-16.3-19.15-28.57-1.49-7.78-1.71-7.8-9.86-8-4.79-.13-9.54-.67-13.86-2.91s-5.16-5.44-1.68-9c4.73-4.82,9.59-9.91,17.56-7,3.08,1.11,4.78-.47,5.39-3.4a21.26,21.26,0,0,0,.67-5.17A54.65,54.65,0,0,1,136.39,230c5.26-12,12-23.21,21.38-32.4,6.24-6.08,13.85-9.49,23-8.8,3,.22,4,1.09,4.07,3.83.09,5.51.32,11,.36,16.52.06,9.51,0,19,0,28.53.12,22.79,1.48,45.52,3.05,68.25.17,2.49.07,5,.1,7.51s-1.11,4-3.43,4.15c-7.79.44-15,3.78-22.91,4C158.61,321.61,155.59,321.07,152.94,319Zm38.26,68.9a24.33,24.33,0,0,1-3.86,2.28c-3.17,1.69-6.16,3.43-5.9,7.8.1,1.66-1.19,2.68-2.6,3.37-9.52,4.65-24.7,1-31.31-7.41-2.34-3-2.63-6.38-2.19-11.32-.51-6.8,2.93-13.17,9.28-18a7.47,7.47,0,0,0,3.27-6.3c.08-5.09,3.35-7.57,7.88-8.65a76.67,76.67,0,0,1,8.12-1.45c2-.27,4.21-.18,4.93,2.26.63,2.17-.45,3.93-2.22,5.15-3.07,2.11-6.17,4.19-9.34,6.15-2.08,1.28-5,1.91-4.23,5.25.51,2.28,4.27,3.5,7.77,2.27,2.78-1,5.94-1,8.27-3.31a5.2,5.2,0,0,1,4.26-1c1.26.13,2.52.4,3,1.78a2.8,2.8,0,0,1-1.06,3.32c-2.56,2-5.26,3.8-7.83,5.78-2,1.5-4.57,3.12-3.14,6s4.33,1.72,6.77,1.53,4.24-1.46,6.29-2.34,4.07-.9,5.37,1.05C194.34,384.35,193.07,386.33,191.2,387.85Z"/><path d="M263.86,322.37c-.78,4.15-1.39,8.89-2.59,13.48-2,7.52-11.1,13.25-20.5,9.19a17.71,17.71,0,0,1-10.11-17.52c.13-1.24.3-2.49.46-3.73,1.53-11.75,3.31-13,16.16-13.79,4.07-.24,7.91,1.38,11.67,2.56C263.08,313.86,263.76,317.87,263.86,322.37Zm-8.72,3.7c.14-2.64.15-5.12-3.18-5.86-6.37-1.41-11.74,2.34-12.63,8.8-.64,4.68,1.45,7.71,6,8.71,4.09.9,7.3-.82,8.69-5.05A42.3,42.3,0,0,0,255.14,326.07Z"/><path d="M179.9,248.08c0,6.44-1.34,8.58-6.51,10.32-4.95,1.66-9.18-1.15-9.41-6.3a8.64,8.64,0,0,1,.37-2.95c.91-2.84,1.3-5.65-2-7A7.4,7.4,0,0,0,154,243.6a19.38,19.38,0,0,0-2.38,2.88c-1.29,1.84-2.86,3-5,1.61-2.49-1.57-2.93-3.78-1.63-6.48,3.29-6.81,13.38-10.76,20.5-7.89,2.32.93,4.54,2.1,6.82,3.11C178.68,239.67,179.89,241.42,179.9,248.08Z"/><path d="M157.09,286.89c3.69.88,7.53.7,10.67,3.26,2.08,1.7,3.42,3.62,3.38,6.32s-1.83,4-4.53,3.08a4.17,4.17,0,0,1-1.34-.65c-5.06-4.27-9.69-4.24-14.33.85-1.68,1.85-4.17,1.5-6.1-.19-2.35-2.07-1-4.06.39-5.91A16.21,16.21,0,0,1,157.09,286.89Z"/></svg>