<svg id="Layer_1" data-name="Layer 1" xmlns="http://www.w3.org/2000/svg" viewBox="0 0 566.83 566.83"><path d="M184.9,246.86c1.82-6,5.52-11.07,8.08-16.73,3,1.75-1.72,3.61,1,5.64,1.61-3.3,6.92-5.14,1.31-10-2.14-1.86,2.53-8.21,6.31-7.94,7.84.56,13.92-3.47,20.34-6.75a12.78,12.78,0,0,0,3.09-2.13c5.33-5.18,4.33-5.12.62-9.58-6.14-7.38-14.18-12-22.6-15.72-4.89-2.19-6.66-4.83-6.59-10.15.11-7.83-2.89-15-5.51-22.41-5.79-16.34-17.49-27.07-32.45-33.19-16.07-6.57-32.91-8.56-50.23-1-18.41,8-31.78,20.28-40.37,38.27-1.63,3.41-3.28,6.66-3.53,10.42-.3,4.44-4.53,7.73-3.57,12.54,0,.18-1.16.8-1.83.88a1.43,1.43,0,0,1-1.57-1.26c-.36-4.84-2.8-9.5-.23-14.57,2.24-4.43,3.5-9.31,4.87-14.12,1.58-5.56,5.56-10.19,8.88-14.56C78.12,125,86.4,116.14,98.2,111.81q7.69-2.84,15.17-6.33c6.91-3.24,14.69-3.36,22.18-2,8.11,1.45,16,3.9,24.27,4.75,1.41.15,2.76,1.09,4.09,1.74,12.43,6.07,22.13,15.51,30.23,26.33a59.17,59.17,0,0,1,10.57,26.28c1.49,9.6,6.88,15.32,14.53,19.56,6.5,3.61,11.1,9.2,16.24,14.21,3.64,3.56,3.24,13.33-.68,17.47-5.38,5.69-11.43,10.52-20,10.31-6.89-.17-11,2-13.55,9.71a54.36,54.36,0,0,1-22.57,29c-1,.65-2,1.45-3.53,2.6,5.07,3.86,10.23,6.72,14.78,10.43,8.47,6.89,15.47,14.7,20,24.73a141.9,141.9,0,0,0,7.23,13c5.28,9,10.08,18.38,16.32,26.85A30.16,30.16,0,0,0,246,351a6.33,6.33,0,0,1,2.92,8.66c-1.72,2.94-4.16,2.06-6.51.72a46.57,46.57,0,0,1-16.57-14.86c-8.93-13.59-16.06-28.19-24-42.35-6.72-12-15.55-22.66-29-28.12-1.39-.57-3.23-.78-4.09-1.8-4.14-4.88-9.34-3.8-14.43-2.81-11.59,2.25-22.94.83-34.17-2.06-3.35-.86-6-1.42-8.67,1.79-1.65,2-4.62,2.87-7.09,4.08A42.94,42.94,0,0,0,88,288.13,109.29,109.29,0,0,0,73.29,315.8c-2.44,7.11-5.25,14.13-9.37,20.45-2.58,4-2.56,8.6-4,12.85-5.22,15.64-10.83,31.2-13.12,47.67-.35,2.52-.79,4.75.37,7.25,1.72,3.69.65,7.43-1,10.86-.92,1.89-1.94,4.68-4.85,3.58s-5.22-4.07-3.67-6.45c2.15-3.3.08-5.78.22-8.59.15-3,1.71-5.92,1.56-8.82-.23-4.42,1.12-8.34,2.16-12.46,3.92-15.5,7.91-31.05,13.91-45.83,3.79-9.35,7.09-19,12.35-27.84a74.22,74.22,0,0,0,5.47-11.18c4.26-11.1,12.44-19,20.63-27a9.56,9.56,0,0,1,7.46-2.9,2.51,2.51,0,0,0,2.82-2,2.65,2.65,0,0,0-2.12-2.77c-5.21-1.26-9.53-4.35-14.26-6.61-11.28-5.37-19.46-13.92-27.61-23.31-8.5-9.78-9.44-20.47-9.45-32.06,0-3.52,0-7.07,2.61-9.92,1.31-1.41,1.38-3.12,1.29-4.92-.07-1.41.63-2.47,2.2-2.37s2,1.41,2.07,2.66a22.13,22.13,0,0,1-.39,5.21c-1.41,6.52-.36,13,.33,19.45.55,5.22,2.19,10.31,6.71,13.76,3.08,2.36,3.78,6.32,6.58,9,9.46,9.2,20.46,15.55,32.65,20.51,12,4.88,24.43,8.17,37.14,8.15,13.4,0,27.12-1.35,37.56-11.85,1.59-1.6,3.2-3.22,5.54-3.74.15.84-.21,2.26,1.37,1.74.8-.26,1.89-1.24,1-2.16C186.75,245.5,185.67,246.23,184.9,246.86Z"/><path d="M498.15,337c-6.27,1.31-12.33-2.16-18.62-.93-.83.16-1.93-.5-2.77-1-1.95-1.13-4.27-2.29-3.17-5.14a4.23,4.23,0,0,1,5.47-2.77c4.4,1.3,9,.88,13.42,1.62,8.37,1.4,16.33-.3,24.34-2.71,4.61-1.38,6.66-4.37,7.3-8.51.8-5.22,1.7-10.34,4-15.18a10.77,10.77,0,0,0,.66-6.63c-.47-2.55-1-4.07-4.36-3.17-3.72,1-5.37-.63-5.42-4.65a50.8,50.8,0,0,1,.8-10.46c.5-2.52-.76-3.75-2.22-5.11-2.18-2-4-1.86-5.16,1.09s-2.1,5.64-3.11,8.47c-.63,1.77-1.48,3.39-3.67,3s-2.44-2.3-2.57-4.08c-.26-3.7.92-7.33.52-11.09-.16-1.52-.09-3-1.06-4.22a3.84,3.84,0,0,0-3.13-1.79c-1.59.05-2,1.39-2.26,2.57-1.19,4.6-2.31,9.23-3.43,13.85-.45,1.86-1.4,3.42-3.4,3.48-2.62.09-3.25-2.16-3.53-4.09a29.24,29.24,0,0,1,.14-6c.09-1.5.68-3.05.42-4.47-.54-2.91-1-6.84-4-7.53-3.62-.85-3.46,3.53-4.48,5.75-3.67,8-6.1,16.37-6.28,25.3-.09,4.18-1.81,5.34-5.78,4.36a10.14,10.14,0,0,1-2.07-.88c-3.13-1.6-6.5-2.35-9,.59s-1,6.18.43,9.19c2.45,5,5.47,9.74,10.75,12.12,2.89,1.31,3.44,3.35,3.43,6,0,2.85-1.51,4.31-4.14,5.52-12.32,5.65-30.39,2.91-40.9-6.38a130.45,130.45,0,0,1-24.77-29.83c-2.47-4-4.58-8.28-8.46-11.36-2.08-1.66-2.86-4.2-1.14-6.7,1.51-2.19,4.23-1.94,7.25.46a17.2,17.2,0,0,1,4.25,5.2c.63,1.13,1.3,2.51,2.63,2.42,5.44-.38,5.92,3.44,6.45,7.28,1,7.35,5.4,12.7,10.34,17.8,6.51,6.7,13.15,13.14,22.78,15.11,1.46.3,3,1,4.38.78,2.43-.3,5.66.17,7-2.06,1.51-2.57-1.23-4.55-2.73-6.41-3.22-4-4.54-8.92-6.67-13.39-2-4.15.93-8.28,3-11.88,1.62-2.76,4.91-2.1,7.6-1.87,8.82.73,11.88,2,12.73-10.91a35.43,35.43,0,0,1,4.57-15.63,15.81,15.81,0,0,0,2.21-5.52c.87-5.16,3.74-6.6,8.19-4.33a7.42,7.42,0,0,1,2.33,1.83c3,3.61,5.61,3.7,9.27.41s6.31-2.73,8.75,1.21,4.75,5.92,9.69,4.62c2.7-.71,5.61,1.44,6.94,3.77,3.67,6.45,10.05,11.05,12.27,18.47,2.63,8.79,3.72,17.58.87,26.54-.68,2.15-1.21,4.35-1.88,6.5-2.38,7.65-4.51,15.36-11.68,20.36-3.13,2.18-4.48,6-6.48,9.14-5,7.87-10.45,15.32-17.64,21.34-3.86,3.23-8,6.1-13,7.25a7.63,7.63,0,0,0-2.83,1c-9.42,7.06-21.09,8.91-31.55,13.55-2.7,1.2-3.89,2.79-4.08,5.57a75.17,75.17,0,0,0,.9,17.2,165,165,0,0,1,1.47,32.87,14.89,14.89,0,0,1-.49,3.72c-.67,2.19-1.67,4.72-4.48,3.84-2.61-.82-2.55-3.43-2-5.75.36-1.45,1-2.84,1.41-4.28a8,8,0,0,0,.08-5.15c-2.3-6.87-6.06-39.68-5.45-47,.59-7.13,1-7.34,8.65-7.65,5.6-.24,10.59-2.91,15.64-5,7.84-3.29,15.68-6.62,23.23-10.49C496.39,360.26,504.3,351,509,339a1.73,1.73,0,0,0-1.84-2.49C504.15,336.54,501.15,336.84,498.15,337Z"/><path d="M309.81,187.62c-2.19-1-4-2.26-3.57-5.05,1.27-8.87,2.27-17.75,6.76-25.84,3.36-6,5.44-12.69,9.56-18.46,3.84-5.4,7.83-10.39,13.76-13.38,3.22-1.62,5.44-4.4,8.46-6.21,16.73-10,34.63-13.33,53.38-7.87,13.73,4,26.21,10.4,35.57,22.17,6.94,8.73,7.92,18.72,8.79,28.9a75,75,0,0,1-.9,20.23c-.59,3.17.32,4.94,3.13,6.67,4.64,2.85,8.89,6.36,13.3,9.59,5.59,4.1,6.45,7.66,2,13.23a36.36,36.36,0,0,1-23.71,13.25,28.3,28.3,0,0,1-3.65,0c1.15,12.68-7.48,19.57-15.12,27.47-8.23,8.51-18.58,11.22-29.37,13.63-10.49,2.35-20.85,5-31.81,4.79-8.59-.14-16.63-2-23.32-6.93-9.46-6.94-18.32-14.78-23.8-25.58-.67-1.33-1.62-2.7-1.73-4.11-.81-10.42-3.64-20.59-3-31.22.35-5.82,4-10.14,5.13-15.48,4.46.28,5.57,2.62,4.24,6.63-3.93,12-.67,23.83.72,35.69a15.26,15.26,0,0,0,3.91,8c5.47,6.19,11,12.4,17.67,17.33,5.65,4.18,11.91,7.55,19.29,7.15,14.29-.78,28.18-3.95,42-7.41a28,28,0,0,0,12.2-6.89c3.41-3.1,5.43-8,10.92-8.43.94-.08.74-1,.93-1.66,1.18-4.33,3.31-8.58,3.51-12.93.25-5.5,3-7.73,7.66-8.43,6.38-.94,11.13-5.52,17.15-7.29,3-.87,3.08-3.82.86-5.22-5.35-3.36-8.65-9.69-16.19-10-4.47-.2-5.58-3.32-3.52-7.5a15.51,15.51,0,0,0,1.54-5.7c.85-9.65,3.52-19.29-.19-28.93a9.55,9.55,0,0,1-.23-3.71c.06-1,.79-2.09-.14-2.8-4.85-3.7-6.87-9.86-11.78-13.47-10.15-7.5-20.72-12.91-33.94-14.4-21.27-2.4-36.87,7.85-52.48,19.36-8,12-17.18,23.33-19.44,38.26C313.66,179.51,313,184.06,309.81,187.62Z"/><path d="M195,398.43c-.68,8.43,0,16.43.18,24.43.06,2.73.17,5.49,2.21,7.77,1.77,2,.83,4.22.1,6.4-.8,2.39-2.17,3.85-4.89,3.76s-3-2.13-3.64-4a41.42,41.42,0,0,1-2.19-15.51c.59-10.69-1.88-20.9-4.58-31.07a12.43,12.43,0,0,1,.27-8.07c1.26-3.17,4.51-3.82,6.35-1,4.44,6.84,11,9.69,18.52,11.51,5.58,1.36,11,3.55,16.46,5.21,6.69,2,6.92,1.72,6.73-5.18a30.33,30.33,0,0,1,6.26-19.58c2.86-3.86,6.9-3,10.2-4.35,3.15-1.31,4.58-2.1,4.1-5.51-.24-1.71-.06-3.64,1.88-4.53,2.13-1,3.36.77,4.36,2,1.8,2.26,3.79,3.14,6.75,3.74,4.49.92,9.35,2.64,10.32,8.38.55,3.2,2.37,3.84,5.38,3.52,9.91-1.07,20.11-.46,29.15-5.91a6.8,6.8,0,0,1,5.13-.34c1.39,2.08.76,4.39.73,6.59-.19,12.76-.6,25.51-.58,38.26,0,6.73,0,13.54,2.06,20.08,1,3.16-.56,5.91-1.32,8.77-.5,1.87-.63,4.22-3.27,4.4-2.18.15-5.23-3.18-4.79-5.81a43.2,43.2,0,0,0,.49-12.72c-1-8-2.08-15.89-1.51-23.95q.67-9.33,1-18.69c.2-5.48-.49-6-6-5.09a81.71,81.71,0,0,1-12.68,1.49c-3.29,0-6.27,1.34-9.31,2.6-2.42,1-3.62,2.26-4.06,4.74-1.18,6.58-6.13,10.84-10.29,15.39-2.3,2.52-5.91,3.42-9.65,3.34A159.62,159.62,0,0,1,202,399.65C199.93,398.87,197.92,397.78,195,398.43Zm73.14-15.08c.45-4.82-1.44-8.14-5.61-10.54-5.37-3.07-9.8,5.09-15.3,1-.85-.64-2.62.94-3.76,2-2.52,2.29-3.51,5.43-4.69,8.4-2.31,5.82-1,10.07,3.82,13.89,4.52,3.57,13.8,4.47,17.45,1.37A23,23,0,0,0,268.13,383.35Zm40.2,54.38c.44,1-.08,2.45,1.48,2.18.37-.07.77-1.23.77-1.89,0-.95-.17-2.16-1.52-2C308.73,436.05,308.54,437.21,308.33,437.73Z"/><path d="M262.86,357.67a4.79,4.79,0,0,1-4.59-3.81c-.58-2.54,1.49-1.79,2.86-1.75a.82.82,0,0,0,.65-.29c4.72-8.29,14.52-11.71,18.3-21.61,5.29-13.88,12-27.45,21.49-39.2a56.4,56.4,0,0,1,32.32-20c2.94-.66,4.16,1,4.47,3.6.28,2.33.44,4.73-2.76,5.11C321,281.43,312,291,303.55,301.86c-6.1,7.86-9.58,16.95-13.88,25.63-2.55,5.15-5.75,9.93-8.08,15.21-1.3,3-3.88,5.18-6.6,7.06-3.27,2.25-6.52,4.53-9.81,6.74A18,18,0,0,1,262.86,357.67Z"/><path d="M100.56,393.47c0,1.87-1.16,3.21-2,4.73-7.24,12.56-13.09,25.8-18.89,39.05-1.3,2.95-2.69,6-2.69,9.31s-2.11,5.51-4,7.85a3.38,3.38,0,0,1-4,1.2,3.76,3.76,0,0,1-2.39-3.52,10.5,10.5,0,0,1,.64-4.37c2.77-7.22,5-14.68,9.44-21.18A24.91,24.91,0,0,0,80,419c2.69-10.05,8.31-18.55,14.22-26.91,1.12-1.57,2.31-2.68,4.31-2.15C100.26,390.41,100.6,391.86,100.56,393.47Z"/><path d="M534.62,174.26c-.36,9-5,13.75-12.84,13.22-1.46-.1-3.23-.14-3.53-2-.25-1.61.58-2.58,2.25-3.32,9.77-4.38,10.4-9,1.53-14.75-4.24-2.78-8.69-6-14.51-5.35-3.08.34-5.84-1.18-8.09-3.33-.88-.83-2.15-1.74-1.68-3.11A3.8,3.8,0,0,1,502,153.2c4.2.44,8.59.57,12.52,2,6.05,2.12,12,4.51,16.57,9.68C533.79,167.82,534.45,170.75,534.62,174.26Z"/><path d="M152.29,222.31c7-.59,12,3.65,16.44,9a7.57,7.57,0,0,1,1.6,4.87c0,1.49.17,3.16-1.35,4a3.9,3.9,0,0,1-4.25-.52c-2.11-1.74-3.89-3.87-5.93-5.7-5.72-5.12-10-4.72-14.75,1.24a27.28,27.28,0,0,1-2.59,2.68c-1.49,1.41-3.11,1.56-4.62.09-1.28-1.23-2.34-2.55-1.61-4.59C137,228.37,145.92,222.37,152.29,222.31Z"/><path d="M268,142.09c.16,3.11-1.42,3.69-2.49,4.64-5.95,5.31-5.71,11.08.88,15.81a38,38,0,0,1,9.67,9.21c1.33,1.94.71,3.27-1.62,3.7a7.45,7.45,0,0,1-1.49.08c-11-.29-21.15-12.86-19-23.47.31-1.48.51-3.65,1.91-3.8C260.56,147.77,263.55,144.13,268,142.09Z"/><path d="M38,450c0-2.5,0-5,0-7.5a5.37,5.37,0,0,1,3.63-5.16c2.69-1.13,4.79-.18,4.5,2.61-.56,5.5-1,10.71,1.81,16,1.5,2.76-1.71,6.33-5.21,6.7-3.79.4-4.73-2.1-4.88-5.13-.13-2.49,0-5,0-7.49Z"/><path d="M124.43,173.67c-.41,2.18-1.06,4.79-3.38,6s-4-.82-5.55-2.49-3.9-3-3.19-6.12c1-4.3,3.5-7.37,6.38-7.25C121.09,163.9,124.32,169.28,124.43,173.67Z"/><path d="M174.63,171.85c0-5.1,1.38-6.88,5.43-6.9,3.86,0,6.46,3,6.58,7.49.1,4.1-2.47,6.88-6.22,6.71C176.89,179,174.64,176.15,174.63,171.85Z"/><path d="M397.28,240.13c-.3,1.76-.79,3.52-2.56,4.3-1.54.67-3-.18-4.15-1.09-1.55-1.21-2.78-2.86-4.38-4-7.77-5.62-11.85-5.55-19.53.18-1.32,1-2.17,2.88-4.39,1.77-2.52-1.26-3.15-3.65-1.15-6.06,5.75-6.91,12.81-10.94,23-6.24,4,1.86,7.55,4.81,11.27,7.32A4,4,0,0,1,397.28,240.13Z"/><path d="M410.78,194.2c-5.73.57-9.72-2-13.36-5.8a7,7,0,0,1-1.91-6.14c.39-3.31,3-4.65,5.9-3,1.77,1,2.8,2.8,4.19,4.22,4.24,4.35,7.71,4.29,12.22.06,1.09-1,1.88-2.39,3-3.31,2.21-1.74,4.6-2.07,6.62.33,1.76,2.09,1.34,4.21-.54,6C422.33,190.91,417.49,194.85,410.78,194.2Z"/><path d="M354.58,193.73c-5.19.15-14.4-6-15.91-9.92a6.46,6.46,0,0,1,.36-5.08c1.24-2.79,3.92-3.09,5.61-.41,1.07,1.7,2,3.37,3.69,4.54,3.31,2.28,6.5,3.49,10.17.52a19.45,19.45,0,0,1,5.87-3.14c2.92-1,4.92,1.13,4.09,4.12a7.26,7.26,0,0,1-1.76,3.19C363,191.09,358.36,192.63,354.58,193.73Z"/></svg>