<svg id="Layer_1" data-name="Layer 1" xmlns="http://www.w3.org/2000/svg" viewBox="0 0 566.83 566.83"><path d="M193.49,172.36c18.42-.36,34.82,6,50.58,14.78a27.61,27.61,0,0,1,10.91,10,25.75,25.75,0,0,0,8.33,8.51c4.29,2.75,4.17,7.57-.8,9.22-9.3,3.07-16.74,9-24.52,14.42-4,2.83-4.17,3.27-1,6.76,3.73,4,7.63,7.86,12.75,10.36,6.52,3.18,12.83,6.82,19.11,10.46,4.52,2.62,4.49,3.34,2.2,8.33-3.12,6.78-8.7,11.57-13.54,16.91-5.56,6.14-5.49,5.94,1.93,10.27,10.69,6.24,22.63,9.41,33.76,14.56,4.51,2.08,4.7,2.52,3.68,7.25-1.34,6.17-5.27,10-10.44,13-1.51.87-3.05,1.7-4.58,2.54-3.08,1.69-2.8,4-.75,6.13a34.72,34.72,0,0,0,6.36,5.24c7.65,4.77,15.33,9.52,23.2,13.93,3.57,2,5.07,4.19,4.24,8.41-1.65,8.35-2.32,16.88-4.59,25.12a16.53,16.53,0,0,0-.2,8.93c.86,3.06.09,6-.34,8.93a3.61,3.61,0,0,1-3,3c-2.07.59-3.37-.58-4.46-2-1.29-1.69-1.17-3.77-1.39-5.76-1.2-10.42,1.1-20.48,3.28-30.51,1.53-7.08,1.76-7.19-3.74-11.24a131.06,131.06,0,0,0-17.2-10.66c-6.27-3.27-11.15-8.49-15.77-13.77-2.53-2.88-2.06-5.67,1.36-8.41,3.9-3.12,8.09-5.88,12.24-8.69,1.57-1.07,4.25-1.19,4-3.8-.25-2.44-2.91-2.64-4.61-3.3-9.54-3.72-18.8-8-27.92-12.64-1.55-.79-3.34-1.27-4.67-2.34-9.8-7.9-7.88-11.36-1.09-17.21C251.23,275.4,255,271,259,266.81c2.05-2.15,1.58-4.52-.75-5.64-3.43-1.62-6.17-4.4-9.65-5.72-9.67-3.7-16.67-10.86-23.76-17.88-4-4-4-6.82.28-9.85a115.65,115.65,0,0,0,15-12.48c3.34-3.32,8.17-3.68,12.13-5.82,3.48-1.87,3.78-2.85.9-5.39-3.91-3.43-7.56-7-12.74-9-6.46-2.54-12.07-7-18.69-9.52-7.09-2.71-14.06-4.82-21.88-4-6.93.73-13.91-1.23-20.95-.27-5,.69-10,1.76-14.34,4.23-10.16,5.83-20.28,11.62-28.6,20.3a142.36,142.36,0,0,0-17.85,23.06c-10.06,16-13.45,33.78-13.36,52.43,0,5,1.81,9.13,4.42,13.3,8.47,13.54,19.78,24.65,31.19,35.45C149,338.2,159.75,343.83,171,348.5c23.13,9.6,47,16.92,70.65,25.13,7.79,2.71,15.56,5.43,23.47,7.84a145.24,145.24,0,0,1,19.49,7.78,34.57,34.57,0,0,0,9.89,3.33c2.78.4,5,1.45,4.32,4.8s-2.61,4.79-6,4.08a33.27,33.27,0,0,1-5.78-1.55c-6.46-2.68-13.09-4.92-19.26-8.35-2.78-1.54-6.14-2.09-9.27-3-1.68-.48-3.57-.41-5.12-1.12-13.69-6.35-28.23-10.33-42.48-15-16.86-5.57-33.13-12.54-49.44-19.47a103.93,103.93,0,0,1-28.77-18.65c-8.84-7.91-16.28-17-23.9-25.88A83.25,83.25,0,0,1,100.41,296c-4.76-8.26-4.45-17.36-3.39-26.4a157.57,157.57,0,0,1,2.9-15.52c3.49-15.69,12.07-28.86,20.41-42.28C129.55,197,143.4,187.74,157.67,179c9.22-5.65,20-6.31,30.55-6.63C190,172.31,191.73,172.36,193.49,172.36Z"/><path d="M454.66,229.43c-1.29,37.26-17.6,67.74-42.33,94.5-8.14,8.82-15.51,18.44-24.28,26.57-11,10.19-21,21.44-33.24,30.34-7.21,5.24-13.19,12.18-19.71,18.35-1.45,1.37-2.77,2.89-4.33,4.12-1.93,1.51-3.81,1.06-5.19-.87-3.84-5.33-6.08-10.95-3.33-17.57,3.76-9.07,5.24-18.8,7.83-28.2,1.3-4.72.43-6.06-4-8.25-4.94-2.44-10.06-4.55-14.87-7.22-5.74-3.18-5.71-5.79-.92-10.13,4.63-4.18,9.06-8.6,13.35-13.13,2.91-3.08,2.48-4.66-1.73-6.61-7.94-3.69-15.95-7.22-24-10.73a26.78,26.78,0,0,1-8.67-5.82c-4.18-4.27-4.17-5.9.38-9.8,4-3.44,7.72-7.13,11.45-10.84,2.45-2.44,2.74-4.1.08-6.78a104.85,104.85,0,0,0-24.94-19,18.56,18.56,0,0,1-2.45-1.71c-9.19-7.08-9-7.66-2.12-17,5.1-6.84,10.85-13.12,16.14-19.79a36.86,36.86,0,0,1,6.84-6.94,34.46,34.46,0,0,0,12.74-17.24c4.68-13.94,14.72-22.68,27.36-29.36a125,125,0,0,1,44-14c8.19-1,16-.12,23.27,4,6.31,3.57,12.88,6.71,19.07,10.47,8.7,5.31,15,12.82,20.4,21.56,7.82,12.77,10.44,27,13.06,41.26C455.16,222.83,454.66,226.17,454.66,229.43Zm-9-.19c1.4-9.08-3.44-19.72-5.12-30.79-.71-4.65-4.67-8.74-6.78-13.26-4.72-10.12-12.2-17.54-21.75-23-3.89-2.23-8.22-3.8-11.8-6.42-4.78-3.5-10.07-4-15.61-4.46-12.41-1-23.59,3.94-34.83,7.7-9.68,3.25-18.25,9.07-26,15.92a26.49,26.49,0,0,0-7.63,10c-2.92,7.21-6.67,14.1-12.21,19.62-8.54,8.5-16.24,17.71-24,26.87-4.16,4.9-4.16,6.46,1.46,9.7,6.54,3.76,13.08,7.49,18.44,12.84a86.21,86.21,0,0,0,10.37,8.64c4.75,3.46,5.06,4.51,3.22,10s-6.05,9.07-9.93,13-3.74,5.3,1.1,7.75c6.46,3.27,13,6.41,19.68,9.24,12.14,5.15,12.93,7.86,7.14,19.82a19.47,19.47,0,0,1-4.42,6c-.93.85-2,1.58-2.82,2.48-3.1,3.28-2.95,4.71.9,6.81,2.19,1.2,4.57,2.06,6.8,3.2,7.91,4,8.77,5.67,7,14.19-2.06,9.8-3.53,19.75-6.89,29.25-.4,1.14-.81,2.52.31,3.51,1.46,1.3,2.79.2,4-.54a11.72,11.72,0,0,0,1.68-1.49c12.78-11.58,26.17-22.55,38.17-34.89,15.15-15.58,30.23-31.3,43.24-48.85C434.93,281.11,445,258.22,445.65,229.24Z"/></svg>