<svg width="2574" height="694" viewBox="0 0 2574 694" fill="none" xmlns="http://www.w3.org/2000/svg">
<path d="M2311.85 228.948C2319.82 232.131 2327.61 235.911 2335.8 238.343C2345.74 241.307 2354.73 246.401 2364.43 249.841C2366.63 250.619 2368.79 251.53 2371.08 252.154C2374.45 253.069 2377.46 252.608 2379.01 248.953C2379.82 246.977 2381.27 245.586 2383.16 246.456C2383.68 246.648 2384.15 246.951 2384.53 247.346C2384.92 247.741 2385.21 248.216 2385.39 248.738C2385.57 249.261 2385.64 249.816 2385.58 250.366C2385.51 250.915 2385.33 251.444 2385.04 251.914C2383.21 255.183 2384.95 256.398 2387.65 257.405C2391.81 258.967 2395.56 261.026 2400.1 257.285C2403.55 254.462 2408.58 257.949 2408.39 262.525C2408.23 265.98 2408.93 269.421 2410.42 272.542C2411.88 275.746 2413.55 275.722 2416.05 275.173C2421.61 273.968 2426.71 271.187 2430.73 267.163C2432.88 265.061 2435.44 263.422 2438.24 262.346C2441.05 261.271 2444.05 260.783 2447.05 260.911C2448.82 260.93 2450.73 261.334 2451.3 262.923C2451.99 264.932 2449.74 266.122 2448.51 266.381C2437.8 268.783 2432.65 278.871 2423.81 283.924C2414.97 288.977 2406.92 295.156 2398.37 300.657C2392.34 304.534 2386.16 308.089 2380.03 311.8C2379.32 312.237 2378.52 312.519 2377.69 312.628C2376.86 312.736 2376.02 312.669 2375.22 312.43C2373.71 312.029 2372.31 311.436 2371.94 309.738C2371.56 308.039 2372.62 307.278 2373.73 306.418C2377.87 303.046 2382.09 299.816 2387.31 298.277C2388.58 297.864 2389.82 297.373 2391.02 296.807C2391.95 296.386 2392.9 295.795 2392.63 294.594C2392.33 293.231 2391.16 293.636 2390.19 293.626C2388.7 293.742 2387.2 293.671 2385.73 293.413C2383.8 292.883 2380.8 293.048 2381.3 289.869C2381.37 289.28 2381.56 288.712 2381.87 288.2C2382.17 287.688 2382.57 287.243 2383.05 286.893C2383.53 286.543 2384.07 286.294 2384.65 286.163C2385.23 286.031 2385.83 286.02 2386.42 286.129C2392.52 286.746 2397.77 284.207 2403.04 281.774C2404.01 281.33 2405.56 281.095 2405.44 279.62C2405.34 278.346 2404.11 277.668 2403.05 277.301C2397.48 275.321 2391.92 273.691 2386.21 277.049C2383.93 278.431 2381.51 279.555 2378.98 280.4C2376.67 281.105 2374.57 282.345 2372.83 284.02C2371.1 285.694 2369.79 287.756 2369 290.035C2368.58 291.138 2367.84 292.003 2368.82 293.196C2370.51 295.229 2370.19 297.28 2368.32 298.951C2366.29 300.781 2363.96 300.403 2361.84 299.1C2359.58 297.703 2357.48 296.036 2355.26 294.567C2349.04 290.423 2341.89 289.145 2334.67 287.562C2321.82 284.756 2308.91 282.181 2296.15 278.995C2278.51 274.432 2261.31 268.268 2244.79 260.579C2240.56 258.552 2236.79 255.679 2233.72 252.139C2230.94 249.072 2231.22 246.561 2234.91 244.502C2242.68 240.145 2251.18 237.773 2259.6 235.139C2268.02 232.504 2276.52 230.482 2284.16 225.717C2287.76 223.473 2292.24 222.693 2296.32 221.258C2298.62 220.506 2300.71 219.187 2302.37 217.421C2304.04 215.655 2305.23 213.499 2305.85 211.15C2309.63 198.613 2314.26 186.349 2319.72 174.446C2321.64 170.242 2324.57 166.507 2326.63 162.356C2332.89 149.866 2338.87 137.243 2345.13 124.753C2347.39 120.208 2346.05 114.372 2350.47 110.593C2351.38 109.777 2350.3 108.799 2349.62 108.065C2348.71 107.074 2347.66 106.03 2348.53 104.569C2349.4 103.109 2350.89 102.807 2352.45 102.882C2353.29 102.902 2354.12 103.022 2354.92 103.24C2369.95 107.608 2385.52 107.659 2400.9 109.083C2423.99 111.213 2446.6 117.008 2467.87 126.251C2472.99 128.578 2477.93 131.295 2482.64 134.38C2484.77 135.727 2486.48 137.637 2487.59 139.898C2488.69 142.159 2489.15 144.683 2488.91 147.188C2488.28 157.697 2483.85 167.029 2480.15 176.611C2474.51 191.254 2465.49 204.181 2458.95 218.298C2453.79 229.418 2446.92 239.703 2442.42 251.151C2440.85 255.149 2437.73 255.852 2434.31 253.696C2430.9 251.539 2431.31 248.481 2433.51 245.532C2442.23 233.891 2448.45 220.943 2454.76 207.89C2460.5 195.938 2467.18 184.453 2472.02 172.045C2474.95 164.603 2477.22 156.921 2478.81 149.085C2479.81 144.08 2477.15 140.897 2473.05 138.51C2460.16 131.165 2446.72 125 2432.24 121.629C2420.88 118.97 2409.34 117.175 2397.72 116.259C2385.12 115.297 2372.48 114.93 2359.96 113.102C2357.04 112.684 2355.64 113.537 2355.07 116.465C2352.08 132.033 2344.49 145.834 2337.53 159.74C2333.54 167.725 2329.87 176.02 2325.04 183.38C2320.21 190.739 2320.57 199.795 2315.97 207.267C2312.47 212.935 2314.8 217.458 2320.8 220.543C2326.23 223.342 2332.1 224.499 2338.05 225.295C2360.23 228.275 2381.83 233.666 2403.13 240.395C2407.56 241.897 2412.13 242.957 2416.77 243.559C2418.92 243.806 2421.04 244.278 2423.1 244.965C2425.46 245.749 2427.38 247.211 2426.78 250.091C2426.59 251.187 2425.97 252.164 2425.07 252.819C2424.17 253.475 2423.05 253.757 2421.94 253.608C2415.65 253.04 2409.37 252.22 2403.12 251.293C2400.67 250.93 2399.84 248.007 2397.71 247.06C2394.17 245.593 2390.51 244.432 2386.77 243.589C2367.43 238.627 2347.84 234.662 2328.1 231.711C2325.47 231.301 2322.9 230.571 2320.45 229.536C2317.81 228.545 2315.23 227.238 2311.85 228.948ZM2290.75 269.6C2292.82 270.164 2295.65 270.594 2296.62 268.028C2297.84 264.839 2294.2 265.177 2292.6 264.251C2287.17 261.113 2281.51 258.228 2276.15 254.921C2273.05 253.023 2269.51 251.031 2267.66 248.127C2261.69 238.735 2261.1 242.078 2252.44 244.381C2251.05 244.926 2249.69 245.557 2248.37 246.27C2246.9 246.872 2244.78 246.77 2244.73 248.988C2244.71 250.788 2246.6 251.125 2247.75 251.988C2260.48 261.542 2276.58 262.843 2290.76 269.602L2290.75 269.6ZM2304.49 261.015C2308.41 261.831 2316.23 258.605 2315.97 256.492C2315.49 252.274 2311.11 252.912 2308.43 251.427C2308.27 251.375 2308.11 251.337 2307.94 251.314C2296.29 248.426 2284.84 245.203 2274.22 239.465C2273.08 238.851 2271.57 237.824 2270.73 239.241C2270.02 240.473 2271.42 241.742 2272.45 242.452C2275.3 244.439 2278.37 246.126 2281.24 248.105C2288.75 253.287 2297.45 256.404 2304.5 261.017L2304.49 261.015ZM2299.48 233.612C2295.76 232.627 2292.04 231.64 2288.18 232.746C2286.6 233.2 2284.5 233.534 2284.6 235.58C2284.69 237.439 2286.85 237.191 2288.22 237.653C2299.37 241.451 2311.11 243.405 2321.84 248.533C2323.77 249.588 2326.03 249.87 2328.16 249.32C2329.53 248.909 2330.67 248.22 2330.74 246.676C2330.81 245.132 2329.5 244.919 2328.44 244.437C2319.08 240.091 2309.39 236.472 2299.48 233.612ZM2329.19 273.213C2335.74 273.839 2340.86 270.397 2346.05 267.206C2346.99 266.625 2348.43 266.169 2348.25 264.792C2348.07 263.415 2346.68 262.713 2345.4 262.334C2336.1 259.642 2326.96 258.231 2318.24 264.378C2315.44 266.357 2315.61 267.414 2318.57 268.654C2322.06 270.12 2325.55 271.65 2329.17 273.206L2329.19 273.213ZM2345.32 277.315C2355.8 282.269 2366.01 280.841 2374.6 273.678C2377.59 271.189 2375.5 269.83 2373.35 269.219C2368.69 267.891 2363.86 267.224 2359.3 269.584C2354.74 271.944 2350.33 274.513 2345.3 277.308L2345.32 277.315ZM2357.39 256.287C2353.65 253.536 2349.22 251.885 2344.59 251.522C2343.88 251.459 2342.68 251.785 2342.45 252.277C2341.96 253.374 2342.93 254.153 2343.87 254.465C2348.21 255.962 2352.81 256.582 2357.39 256.287Z" fill="#262424"/>
<path d="M191.853 435.607C169.521 440.12 149.323 447.459 128.691 453.229C112.864 457.798 96.6542 460.914 80.2617 462.536C75.607 462.979 71.1295 464.546 67.2149 467.103C64.0534 469.12 63.0291 471.855 64.3804 475.219C66.0391 479.393 67.8967 483.483 69.7164 487.59C80.6778 512.365 92.0223 536.965 103.75 561.39C107.927 570.092 111.736 578.895 118.17 586.359C119.13 587.412 119.86 588.653 120.313 590.004C120.767 591.354 120.935 592.784 120.805 594.203C120.568 596.371 119.781 598.094 117.483 598.599C115.408 599.046 114.665 597.507 113.642 596.116C107.862 588.259 105.069 578.921 100.884 570.292C90.3303 548.49 80.1097 526.538 70.2223 504.436C66.9 497.032 64.0874 489.339 61.112 481.765C58.1366 474.191 53.1916 467.27 49.0835 460.077C48.8517 459.66 48.2862 459.43 48.0528 459.002C46.8182 456.826 43.7374 454.216 46.5273 452.16C49.6477 449.835 51.4132 453.191 52.8155 455.704C55.2534 460.053 58.2224 461.687 63.429 459.532C73.5199 455.357 84.3193 454.094 95.1598 453.504C109.816 452.694 123.468 447.621 137.343 443.586C156.68 437.951 175.959 431.97 195.487 427.176C203.708 425.167 207.68 427.039 212.288 434.068C221.979 448.846 228.944 464.97 236.319 480.935C240.695 490.344 246.701 499.075 251.997 508.098C255.194 513.536 258.681 518.825 261.58 524.424C265.514 532.031 272.506 532.316 279.566 532.579C298.997 533.295 318.433 534.213 337.87 534.471C346.254 534.595 354.495 534.894 362.547 537.344C364.566 537.961 367.251 538.132 367.747 540.624C368.244 543.116 366.225 544.933 364.393 546.353C362.297 547.949 359.453 548.768 357.461 546.849C353.2 542.754 348.08 542.33 342.698 542.213C332.584 541.992 322.464 541.002 312.35 542.607C311.684 542.662 311.024 542.772 310.377 542.935C307.551 543.863 303.536 544.471 303.232 547.512C302.908 550.8 307.242 550.524 309.548 551.833C314.654 554.733 319.208 552.494 323.862 550.735C325.569 550.086 327.18 549.168 328.923 548.675C330.507 548.208 332.266 547.935 333.61 549.364C334.953 550.793 334.43 552.401 333.341 553.839C332.995 554.201 332.766 554.66 332.688 555.155C332.609 555.65 332.683 556.158 332.901 556.609C333.946 558.686 343.388 562.475 345.788 561.731L359.101 557.484C360.691 556.986 362.327 556.4 363.994 556.913C366.29 557.615 368.626 558.675 368.508 561.493C368.407 563.993 366.305 565.185 364.126 565.619C361.182 566.201 358.167 566.359 355.257 566.844C350.324 567.672 345.664 569.68 341.674 572.696C332.371 579.589 321.729 583.866 310.818 587.499C298.984 591.485 287.493 596.424 276.458 602.268C271.237 605.003 265.644 606.543 260.225 608.643C259.102 609.083 257.669 609.423 256.935 608.43C252.199 601.971 245.681 603.493 239.537 604.77C230.377 606.682 221.723 603.968 212.923 602.626C197.058 600.201 182.317 593.989 167.202 589.006C159.009 586.316 150.157 586.676 141.862 584.226C140.913 583.948 139.633 584.658 138.534 585.003C136.622 585.637 134.554 585.626 132.649 584.97C130.334 584.16 129.358 582.254 129.241 579.912C129.124 577.569 130.642 576.637 132.541 576.168C150.177 571.405 167.242 564.851 184.948 560.136C203.568 555.188 221.774 548.667 240.857 545.345C242.26 545.179 243.575 544.575 244.615 543.619C245.655 542.664 246.367 541.404 246.651 540.02C247.552 536.423 251.042 533.764 253.983 531.702C256.925 529.641 256.292 528.276 255.078 526.106C251.917 520.638 248.753 515.177 245.587 509.723C237.051 495.006 228.368 480.435 221.242 464.865C217.819 457.406 214.737 449.495 209.87 442.429C204.602 434.912 199.008 432.124 191.853 435.607ZM209.593 573.456C207.817 573.874 206.047 574.382 204.242 574.683C197.09 575.874 190.836 579.41 184.175 582.021C182.708 582.59 180.282 582.021 180.034 584.059C179.751 586.438 182.177 587.615 183.887 588.081C191.4 590.093 198.776 592.747 206.529 593.705C209.635 594.09 213.038 594.496 213.395 589.642C213.523 587.978 215.44 587.74 216.847 587.181C221.934 585.157 226.956 582.992 232.026 580.931C233.337 580.398 234.59 579.703 234.619 578.238C234.687 576.392 232.812 576.704 231.746 576.081C228.445 574.111 224.766 572.86 220.949 572.408C217.132 571.955 213.262 572.313 209.593 573.456ZM288.876 569.896C281.015 571.673 273.262 573.899 265.656 576.564C264.583 576.935 263.039 576.919 262.906 578.309C262.772 579.7 264.183 580.438 265.391 581.058C270.576 583.824 276.268 585.004 281.887 586.42C284.251 587.04 286.396 588.233 289.135 587.331C295.866 585.135 301.715 581.301 308.041 578.381C309.973 577.502 310.831 575.838 308.604 574.76C302.179 571.613 296.124 566.488 288.876 569.896ZM250.388 574.556C259.462 571.391 268.55 568.255 277.605 565.043C278.84 564.604 280.105 563.866 279.91 562.205C279.88 561.911 279.791 561.626 279.649 561.367C279.507 561.107 279.314 560.879 279.082 560.695C278.85 560.512 278.584 560.377 278.299 560.298C278.014 560.219 277.716 560.199 277.423 560.237C274.618 560.38 272.874 558.796 270.98 557.104C270.059 556.244 268.933 555.634 267.71 555.332C266.487 555.03 265.207 555.046 263.991 555.379C253.72 558.105 244.434 563.707 233.927 565.752C233.675 565.782 233.431 565.862 233.209 565.987C232.988 566.113 232.794 566.281 232.639 566.483C232.483 566.684 232.37 566.915 232.305 567.161C232.24 567.407 232.225 567.663 232.26 567.915C232.356 568.411 232.614 568.86 232.995 569.192C233.375 569.524 233.856 569.718 234.36 569.745C237.375 570.256 239.913 571.861 242.552 573.216C244.977 574.447 247.721 574.906 250.415 574.531L250.388 574.556ZM246.95 553.92C244.68 552.473 241.931 551.98 239.3 552.549C231.463 554.19 223.671 555.792 216.023 558.02C199.463 562.857 183.159 568.565 166.404 572.776C163.657 573.448 160.962 574.321 158.343 575.387C156.549 576.122 156.048 577.371 158.264 578.441C162.362 580.465 166.923 580.759 171.293 581.674C174.16 582.271 172.644 578.225 174.762 577.669C175.245 577.588 175.63 577.159 176.098 576.99C187.192 572.992 198.083 568.207 209.457 565.217C221.81 561.962 234.028 558.446 246.946 553.901L246.95 553.92ZM215.82 594.459C218.743 597.459 221.86 597.244 224.354 597.67C230.898 598.799 237.627 599.513 243.135 594.236C245.157 592.317 246.74 592.814 247.567 595.403C248.116 597.116 248.801 598.736 250.932 598.198C256.387 596.823 261.818 595.33 267.227 593.719C267.808 593.594 268.33 593.279 268.71 592.822C269.09 592.365 269.305 591.794 269.322 591.2C269.251 589.742 268.015 589.441 266.935 589.043C264.715 588.379 262.546 587.558 260.443 586.587C252.853 582.468 245.356 583.231 237.912 586.499C231.035 589.521 224.29 592.723 215.82 594.459ZM321.945 563.929C320.257 564.674 318.609 565.507 317.008 566.425C314.766 567.812 314.723 570.05 315.829 572.126C317.064 574.425 318.967 573.438 320.557 572.514C322.701 571.265 324.736 569.79 326.821 568.429C327.681 567.87 328.468 567.242 328.158 566.047C327.847 564.852 326.907 564.623 325.868 564.472L321.945 563.929ZM281.02 547.939C279.609 548.478 276.644 548.08 277.229 550.497C277.862 553.078 280.91 553.543 283.346 553.441C283.809 553.43 284.264 553.321 284.682 553.122C285.099 552.923 285.47 552.638 285.771 552.286C286.071 551.933 286.293 551.521 286.423 551.077C286.553 550.633 286.588 550.167 286.526 549.708C285.894 546.954 283.318 547.556 281.02 547.939ZM292.666 553.581C291.578 554.047 288.848 554.217 290.262 555.949C291.157 557.04 292.332 557.867 293.661 558.34C294.99 558.814 296.424 558.916 297.806 558.635C298.929 558.377 300.305 557.205 299.424 556.176C298.649 555.159 297.607 554.378 296.413 553.919C295.22 553.461 293.922 553.344 292.666 553.581Z" fill="#262424"/>
<path d="M1562.23 443.37C1562.23 441.37 1562.23 439.37 1562.23 437.37C1562.23 435.17 1562.69 433.24 1565.23 433C1567.77 432.76 1568.09 434.93 1568.69 436.59C1570.81 442.44 1569.77 448.46 1569.51 454.43C1569.02 465.57 1565.36 475.82 1561.27 486.1C1556.87 497.17 1553.6 508.69 1549.7 519.96C1544.87 533.96 1539.02 547.35 1531 559.96C1522.13 574.046 1511.36 586.846 1499 598C1488.12 607.948 1476.41 616.944 1464 624.89C1451.48 632.7 1438.75 639.89 1424.62 643.97C1402.96 650.16 1381.68 658.19 1359.02 660.25C1340.02 661.98 1321.02 664.39 1301.88 665.11C1286.58 665.601 1271.26 664.815 1256.09 662.76C1236.09 660.19 1215.99 659.48 1196.09 656.62C1175.85 653.72 1155.53 650.54 1135.94 644.62C1112.89 637.68 1089.06 633.09 1067 623.06C1055.36 617.77 1042.9 614.34 1032.1 607.06C1014.76 595.546 999.165 581.589 985.81 565.62C974.98 552.62 970.94 536.82 965.42 521.55C965.081 520.245 964.983 518.89 965.13 517.55C965.22 514.55 965.86 511.72 969.6 511.48C973.34 511.24 974.54 513.84 974.81 516.9C976.51 536.14 984.52 552.57 996.81 567.17C1003.01 574.317 1009.89 580.842 1017.36 586.65C1023.72 591.75 1029.86 597.15 1036.83 601.36C1049.42 608.97 1063.41 613.51 1076.9 619.16C1094.77 626.63 1113.68 630.92 1132.11 636.39C1154.64 643.044 1177.74 647.62 1201.11 650.06C1225.74 652.66 1250.4 654.94 1275.11 657.25C1291.93 658.83 1308.7 657.35 1325.44 655.82C1340.68 654.43 1355.99 653.45 1371.04 650.44C1386.91 647.27 1402.24 642.14 1417.61 637.19C1442.68 629.1 1464.61 615.69 1484.38 598.4C1496.52 587.77 1508.46 577 1518.03 563.85C1528.57 549.299 1536.7 533.15 1542.11 516.02C1545.93 504.16 1550.29 492.47 1554.52 480.75C1558.91 468.735 1561.51 456.14 1562.23 443.37Z" fill="#001DBB"/>
<path d="M1249.69 27.1379C1260.87 28.4979 1276.62 29.2479 1292.28 31.6379C1307.94 34.0279 1323.55 35.9479 1339.2 38.0979C1360.88 41.0979 1381.04 48.0979 1400.27 58.3979C1418.02 67.8579 1434.94 78.6779 1451.6 89.8479C1465.43 99.0562 1478.09 109.913 1489.3 122.178C1499.94 133.888 1510.13 145.898 1519.64 158.498C1524.44 164.848 1528.64 171.628 1533.15 178.218C1533.68 179.008 1533.74 180.308 1535.04 180.218C1535.63 180.146 1536.18 179.889 1536.61 179.484C1537.04 179.08 1537.33 178.549 1537.44 177.968C1538.37 175.118 1538.89 172.098 1540.12 169.388C1541.35 166.678 1542.77 163.698 1546.72 164.928C1550.67 166.158 1550.84 169.508 1549.63 172.248C1546.08 180.248 1543.83 188.508 1543.8 197.308C1543.8 197.618 1543.73 198.118 1543.52 198.238C1538.41 201.048 1535.88 206.978 1530.59 209.348C1525.96 211.428 1521.59 208.948 1518.02 206.348C1510.32 200.638 1500.42 197.178 1497.02 186.748C1496.35 184.698 1495.52 182.748 1497.52 181.398C1499.74 179.828 1501.52 181.528 1502.45 183.248C1507.09 191.888 1515.89 195.328 1523.45 200.328C1525.51 201.708 1527.62 201.568 1529.19 199.468C1531.19 196.808 1533.37 194.278 1530.82 190.548C1526.12 183.688 1521.64 176.668 1517.17 169.648C1510.49 159.148 1503.75 148.648 1495.37 139.438C1482.83 125.638 1469.9 112.188 1454.59 101.348C1444.98 94.5379 1435.35 87.728 1425.4 81.4179C1408.66 70.8456 1391.08 61.6647 1372.84 53.9679C1360.54 48.7479 1347.42 47.7279 1334.84 44.2579C1321.5 40.5779 1307.77 41.2579 1294.38 39.1179C1280.04 36.8579 1265.62 35.9179 1251.25 34.2979C1236.46 32.6279 1221.71 34.9179 1207.01 36.1479C1188.21 37.7279 1170.08 42.8879 1152.09 48.2279C1141.27 51.4279 1130.86 55.9579 1120.35 60.1479C1102.61 67.2279 1085.64 75.8479 1068.53 84.2879C1051.2 92.8279 1036.03 104.188 1021.33 116.288C1013.16 123.028 1004.62 129.458 997.7 137.618C988.7 148.278 982.09 160.418 976.61 173.188C973.42 180.618 969.49 187.798 969.46 196.188C969.46 198.438 968.36 200.878 965.75 200.618C963.46 200.398 964.01 197.818 963.75 196.078C962.75 188.338 964.88 181.238 968.27 174.418C971.97 166.968 975.49 159.418 979.41 152.108C987.08 137.778 998.41 126.608 1010.79 116.358C1024.22 105.218 1037.85 94.1879 1052.89 85.4379C1071.51 74.6179 1090.64 64.5579 1110.8 56.6179C1124.41 51.2579 1137.86 45.6179 1151.89 41.2879C1173.11 34.7979 1194.59 29.9279 1216.76 28.3579C1226.21 27.6879 1235.65 26.6179 1249.69 27.1379Z" fill="#001DBB"/>
<path d="M1493.51 512.63C1491.17 511.63 1488.97 512.73 1486.72 513.94C1480.1 517.373 1473.03 519.854 1465.72 521.31C1455.24 523.64 1445.15 527.75 1434.87 531.04C1425.43 534.207 1416.17 537.896 1407.13 542.09C1404.72 543.17 1401.92 543.15 1400.8 540.09C1399.3 536.09 1402.49 534.77 1405.36 533.78C1420.28 528.6 1435.3 523.71 1450.15 518.35C1461.41 514.28 1473.53 513.12 1484.35 507.59C1490.91 504.24 1491.35 504.22 1490.18 497C1487.62 481.43 1485.51 465.7 1478.24 451.36C1475.76 446.45 1473.13 446.47 1470.16 451.17C1461.54 464.83 1454.16 479.07 1449.53 494.62C1447.9 500.06 1444.3 502.56 1438.32 502.78C1427.91 503.17 1417.82 500.97 1407.72 498.78C1398.23 496.78 1389.07 493.92 1380.72 488.88C1378.81 487.74 1376.56 487.77 1374.38 487.88C1371.57 487.98 1370.53 489.56 1371 492.19C1372.36 500.224 1374.2 508.172 1376.5 515.99C1378.34 521.99 1379.79 528.17 1381.3 534.3C1381.89 536.7 1381.04 538.63 1378.55 539.44C1375.55 540.44 1373.66 538.49 1372.55 536.27C1371.5 534.009 1370.76 531.618 1370.34 529.16C1367.14 513.72 1364.04 498.26 1358.62 483.39C1357.62 480.76 1357.62 477.84 1360.62 476.39C1363.62 474.94 1364.77 477.39 1365.82 479.52C1366.87 481.65 1368.65 482.37 1370.26 480.91C1374.72 476.85 1379.34 478.75 1383.26 480.96C1398.21 489.41 1414.42 493.12 1431.26 494.96C1437.58 495.64 1439.63 494.61 1441.64 488.45C1445.96 475.25 1452.96 463.39 1460.04 451.57C1461.04 449.87 1462.76 448.09 1461.42 446.14C1459.99 444.03 1457.81 445.56 1455.92 445.86C1445.4 447.54 1435.29 450.86 1424.99 453.41C1413.62 456.27 1403.05 461.13 1392.5 465.98C1386.24 468.86 1379.34 469.44 1373.15 472.4C1371.27 473.29 1369.56 472.02 1368.54 470.33C1367.41 468.44 1368.73 467.15 1370.03 466.08C1374.56 462.37 1380.48 461.96 1385.64 459.7C1393.25 456.38 1401.02 453.43 1408.7 450.26C1419.5 445.8 1431.16 444.16 1442.11 440.21C1452.8 436.35 1464.17 437.37 1475.11 435.4C1480.56 434.4 1483.11 439.14 1485.41 443.35C1491.41 454.35 1493.69 466.44 1495.84 478.56C1497.44 487.56 1498.84 496.56 1500.46 505.56C1501.43 511.43 1499.88 513.17 1493.51 512.63Z" fill="#262424"/>
<path d="M1775.96 315.959C1790.73 315.245 1805.54 315.844 1820.21 317.749C1834.21 319.749 1848.48 318.049 1862.56 319.559C1865.87 319.909 1869.19 320.189 1872.56 320.359C1874.04 320.506 1875.53 320.387 1876.97 320.009C1878.52 319.519 1880.34 318.609 1880.4 316.799C1880.46 314.989 1878.33 314.729 1877.03 314.499C1870.93 313.369 1865.28 310.959 1859.56 308.719C1857.01 307.87 1854.78 306.291 1853.13 304.179C1852 302.589 1851.65 300.719 1853.13 299.179C1853.69 298.531 1854.48 298.118 1855.33 298.022C1856.18 297.925 1857.04 298.153 1857.74 298.659C1865.74 304.659 1875.65 305.399 1884.63 308.659C1892.08 311.369 1892.42 313.279 1890.63 320.979C1889.23 326.979 1888.2 331.759 1880.97 332.569C1879.3 332.759 1877.97 335.079 1876.3 336.189C1872.6 338.679 1868.11 336.739 1868.58 332.499C1869.03 328.419 1866.77 327.699 1864.11 327.679C1858.32 327.679 1852.66 326.269 1846.78 326.679C1836.78 327.419 1826.78 326.089 1816.89 325.059C1800.35 323.243 1783.68 323.006 1767.11 324.349C1764.36 324.589 1761.19 324.969 1761.01 321.199C1760.85 317.969 1763.72 316.869 1766.49 316.549C1769.62 316.189 1772.8 316.149 1775.96 315.959Z" fill="#262424"/>
<path d="M577.3 347.21C591.58 344.82 605.72 349.12 620.03 348.59C623.18 348.47 628.12 349.84 628.84 346.3C629.49 343.08 624.49 341.94 621.68 340.4C618.87 338.86 615.85 338.01 612.96 336.74C610.56 335.69 608.91 333.47 609.86 331.2C610.98 328.54 613.67 329.98 615.52 330.84C622.9 334.27 630.43 337.45 637.12 342.19C644.59 347.48 644.83 355.93 637.97 362.02C634.55 365.02 630.42 366.87 626.65 369.29C623.24 371.49 619.23 372.55 617.25 376.84C616.35 378.77 613.58 379.66 611.11 379.54C610.013 379.517 608.95 379.156 608.066 378.506C607.182 377.857 606.52 376.95 606.17 375.91C605.22 373.45 606.84 372.27 608.69 371.2C615.47 367.3 621.63 362.41 628.69 358.99C629.92 358.39 632 357.99 631.75 356.16C631.47 354.08 629.37 354.67 628.04 354.72C610.73 355.27 593.53 352.72 576.24 352.9C572.94 352.9 569.64 353.71 566.33 354.05C564.347 354.374 562.335 354.471 560.33 354.34C557.84 354.02 554.9 353.21 555.1 350.08C555.3 346.95 558.51 347.35 560.67 347.27C566.22 347.08 571.71 347.21 577.3 347.21Z" fill="#262424"/>
<path d="M1700.48 143.089C1699.54 157.279 1697.13 171.389 1694.62 185.459C1692.08 199.689 1688.8 213.789 1685.62 227.899C1684.71 231.899 1683.06 235.809 1681.72 239.749C1681.41 240.614 1680.88 241.386 1680.19 241.997C1679.5 242.608 1678.68 243.038 1677.78 243.249C1670.8 245.455 1663.36 245.833 1656.19 244.349C1640.51 241.459 1624.92 237.659 1608.84 237.349C1606.18 237.224 1603.53 236.872 1600.92 236.299C1598.6 235.859 1596.85 234.569 1597.01 231.909C1597.19 228.989 1599.31 228.619 1601.67 228.669C1609.05 228.849 1616.04 231.589 1623.34 232.039C1638.62 232.979 1653.58 236.789 1668.97 236.709C1673.52 236.709 1675.86 235.279 1677.03 230.629C1681.9 211.259 1685.42 191.629 1689.45 172.079C1691.88 160.519 1693.09 148.733 1693.04 136.919C1692.95 125.039 1688.81 120.059 1676.97 119.039C1670.48 118.539 1663.96 118.902 1657.57 120.119C1655.75 120.459 1654.07 120.899 1652.88 122.609C1651.69 124.319 1650.5 126.259 1648.06 125.029C1645.62 123.799 1644.89 121.309 1644.62 118.729C1644.39 116.539 1645.05 114.359 1647.2 113.849C1651.31 112.849 1654.96 110.469 1659.68 111.279C1664.04 112.019 1668.68 111.629 1673.13 111.149C1679.69 110.449 1685.68 112.319 1691.63 114.499C1697.58 116.679 1698.5 122.339 1699.36 127.499C1700.22 132.659 1700.14 137.799 1700.48 143.089Z" fill="#262424"/>
<path d="M1607.85 208.059C1608.7 195.939 1613.63 185.059 1616.41 173.589C1619.7 160.049 1626.54 147.589 1629.09 133.859C1629.66 130.759 1630.16 127.639 1630.61 124.519C1630.92 122.309 1631.85 120.669 1634.27 120.519C1636.69 120.369 1637.53 122.219 1638.15 124.259C1640.64 132.389 1636.01 139.039 1633.73 146.189C1628.32 163.189 1619.66 179.189 1619.21 197.579C1619.1 201.819 1617.21 205.579 1615.88 209.519C1615.05 211.929 1612.88 213.809 1610.03 213.209C1607.18 212.609 1607.86 209.959 1607.85 208.059Z" fill="#262424"/>
<path d="M943.64 531.93C944.33 528.75 944.5 525.08 945.92 521.98C949.78 513.53 953.22 504.63 958.6 497.19C965.69 487.38 972.37 489.74 977.76 500.19C980.82 506.1 984.7 511.51 987.49 517.54C988.69 520.14 991.23 521.14 993.78 522.11C996.72 523.24 998.08 525.11 996.25 528.33C994.42 531.55 992.54 530.26 990.05 528.98C982.82 525.26 979.89 518.26 976.27 511.75C974.98 509.44 974.12 506.88 972.78 504.59C969.7 499.3 966.78 499.11 963.62 504.21C957.94 513.21 953.29 522.81 950.75 533.27C950.25 535.32 950.2 538.09 947.14 537.65C944.27 537.24 944.17 534.49 943.64 531.93Z" fill="#001DBB"/>
<path d="M777.031 542.822C763.551 540.272 750.641 534.082 741.031 522.092C731.646 510.695 723.647 498.224 717.201 484.942C715.981 482.342 714.831 478.942 718.361 477.672C721.591 476.502 723.531 479.372 724.361 482.262C729.221 499.742 740.211 513.532 753.161 525.142C761.501 532.632 772.661 537.922 784.941 533.912C796.941 529.972 803.771 520.912 806.941 508.912C807.941 504.982 806.361 503.152 802.941 501.722C796.051 498.862 788.941 496.342 783.151 491.332C779.361 488.072 779.411 485.812 783.441 482.752C789.571 478.102 796.551 474.872 803.241 471.252C809.451 467.892 814.921 463.652 820.601 459.622C822.601 458.182 823.061 456.482 820.751 454.832C817.651 452.632 814.751 450.222 810.561 450.032C805.231 449.782 801.871 447.972 798.981 442.212C792.825 429.808 783.535 419.229 772.031 411.522C766.321 407.722 760.031 408.762 754.371 411.412C739.121 418.532 727.281 429.302 720.371 444.962C719.891 446.062 719.991 448.092 718.121 447.692C716.251 447.292 716.571 445.292 716.821 443.922C718.271 435.782 722.721 429.092 727.991 423.082C736.171 413.772 746.911 407.852 758.161 403.332C766.731 399.892 774.531 403.532 780.981 409.492C790.411 418.212 799.501 427.252 804.041 439.762C804.467 440.966 805.27 442 806.332 442.71C807.393 443.421 808.656 443.768 809.931 443.702C815.201 443.642 819.551 446.242 824.051 448.312C829.651 450.872 830.991 460.032 825.891 463.362C821.661 466.132 818.081 469.542 814.401 472.832C808.961 477.712 802.201 480.192 796.081 483.832C794.401 484.832 791.911 485.642 792.151 487.832C792.421 490.372 794.901 491.382 797.231 491.992C801.231 493.052 805.231 494.222 809.301 495.062C812.351 495.702 813.621 497.462 814.441 500.352C816.951 509.182 812.561 516.212 808.761 523.352C803.701 532.872 794.661 537.542 785.411 541.852C783.231 542.902 780.851 542.702 777.031 542.822Z" fill="#262424"/>
<path d="M865.801 469.732C865.801 473.892 863.591 475.542 859.801 473.832C856.011 472.122 853.031 473.582 850.031 475.372C847.841 476.682 845.121 479.272 843.221 475.942C841.321 472.612 844.861 471.842 847.221 470.572C851.151 468.422 854.871 465.652 859.531 465.572C862.221 465.582 865.861 465.062 865.801 469.732Z" fill="#262424"/>
<path d="M855.241 484.112C859.411 484.242 862.471 483.822 865.301 485.012C867.861 486.082 869.791 487.852 870.011 490.892C870.111 492.392 869.551 494.192 868.011 493.192C863.341 490.192 857.831 492.112 853.071 490.082C851.071 489.222 847.771 489.502 848.261 486.222C848.751 482.942 851.841 484.222 853.981 484.112C854.4 484.066 854.822 484.066 855.241 484.112Z" fill="#262424"/>
<path d="M869.031 513.642C865.301 513.832 855.391 506.142 854.411 502.522C854.228 502.065 854.191 501.563 854.305 501.085C854.42 500.606 854.681 500.175 855.051 499.852C855.475 499.443 856.022 499.187 856.606 499.124C857.191 499.06 857.78 499.193 858.281 499.502C863.011 502.292 866.801 506.252 870.561 510.152C872.181 511.842 870.601 513.062 869.031 513.642Z" fill="#262424"/>
<path d="M1112.21 282.822C1125.69 280.272 1138.6 274.082 1148.21 262.092C1157.6 250.695 1165.6 238.224 1172.04 224.942C1173.26 222.342 1174.41 218.942 1170.88 217.672C1167.65 216.502 1165.71 219.372 1164.88 222.262C1160.02 239.742 1149.03 253.532 1136.08 265.142C1127.74 272.632 1116.58 277.922 1104.3 273.912C1092.3 269.972 1085.47 260.912 1082.3 248.912C1081.3 244.982 1082.88 243.152 1086.3 241.722C1093.19 238.862 1100.3 236.342 1106.09 231.332C1109.88 228.072 1109.83 225.812 1105.8 222.752C1099.67 218.102 1092.69 214.872 1086 211.252C1079.79 207.892 1074.32 203.652 1068.64 199.622C1066.64 198.182 1066.18 196.482 1068.49 194.832C1071.59 192.632 1074.49 190.222 1078.68 190.032C1084.01 189.782 1087.37 187.972 1090.26 182.212C1096.42 169.808 1105.71 159.229 1117.21 151.522C1122.92 147.722 1129.21 148.762 1134.87 151.412C1150.12 158.532 1161.96 169.302 1168.87 184.962C1169.35 186.062 1169.25 188.092 1171.12 187.692C1172.99 187.292 1172.67 185.292 1172.42 183.922C1170.97 175.782 1166.52 169.092 1161.25 163.082C1153.07 153.772 1142.33 147.852 1131.08 143.332C1122.51 139.892 1114.71 143.532 1108.26 149.492C1098.83 158.212 1089.74 167.252 1085.2 179.762C1084.78 180.966 1083.97 182 1082.91 182.71C1081.85 183.421 1080.59 183.768 1079.31 183.702C1074.04 183.642 1069.69 186.242 1065.19 188.312C1059.59 190.872 1058.25 200.032 1063.35 203.362C1067.58 206.132 1071.16 209.542 1074.84 212.832C1080.28 217.712 1087.04 220.192 1093.16 223.832C1094.84 224.832 1097.33 225.642 1097.09 227.832C1096.82 230.372 1094.34 231.382 1092.01 231.992C1088.01 233.052 1084.01 234.222 1079.94 235.062C1076.89 235.702 1075.62 237.462 1074.8 240.352C1072.29 249.182 1076.68 256.212 1080.48 263.352C1085.54 272.872 1094.58 277.542 1103.83 281.852C1106.01 282.902 1108.39 282.702 1112.21 282.822Z" fill="#262424"/>
<path d="M1023.44 209.732C1023.44 213.892 1025.65 215.542 1029.44 213.832C1033.23 212.122 1036.21 213.582 1039.21 215.372C1041.4 216.682 1044.12 219.272 1046.02 215.942C1047.92 212.612 1044.38 211.842 1042.02 210.572C1038.09 208.422 1034.37 205.652 1029.71 205.572C1027.02 205.582 1023.38 205.062 1023.44 209.732Z" fill="#262424"/>
<path d="M1034 224.112C1029.83 224.242 1026.77 223.822 1023.94 225.012C1021.38 226.082 1019.45 227.852 1019.23 230.892C1019.13 232.392 1019.69 234.192 1021.23 233.192C1025.9 230.192 1031.41 232.112 1036.17 230.082C1038.17 229.222 1041.47 229.502 1040.98 226.222C1040.49 222.942 1037.4 224.222 1035.26 224.112C1034.84 224.066 1034.42 224.066 1034 224.112Z" fill="#262424"/>
<path d="M1020.21 253.642C1023.94 253.832 1033.85 246.142 1034.83 242.522C1035.01 242.065 1035.05 241.563 1034.94 241.085C1034.82 240.606 1034.56 240.175 1034.19 239.852C1033.77 239.443 1033.22 239.187 1032.64 239.124C1032.05 239.06 1031.46 239.193 1030.96 239.502C1026.23 242.292 1022.44 246.252 1018.68 250.152C1017.06 251.842 1018.64 253.062 1020.21 253.642Z" fill="#262424"/>
<path d="M236.08 222H252.64C258.453 222 263.493 223.147 267.76 225.44C272.08 227.68 275.387 230.907 277.68 235.12C280.027 239.333 281.2 244.293 281.2 250C281.2 255.707 280.027 260.667 277.68 264.88C275.387 269.093 272.08 272.347 267.76 274.64C263.493 276.88 258.453 278 252.64 278H236.08V222ZM252.64 273.28C257.227 273.28 261.227 272.32 264.64 270.4C268.053 268.48 270.667 265.787 272.48 262.32C274.347 258.8 275.28 254.693 275.28 250C275.28 245.307 274.347 241.227 272.48 237.76C270.667 234.24 268.053 231.52 264.64 229.6C261.227 227.68 257.227 226.72 252.64 226.72H241.84V273.28H252.64ZM289.344 237.76H294.864V278H289.344V237.76ZM289.184 224.4H295.104V232H289.184V224.4ZM319.12 278.56C314.373 278.56 310.533 277.467 307.6 275.28C304.667 273.04 302.693 270.187 301.68 266.72L306.8 265.44C308.827 271.307 312.96 274.24 319.2 274.24C322.24 274.24 324.587 273.6 326.24 272.32C327.893 271.04 328.72 269.28 328.72 267.04C328.72 265.12 328.053 263.653 326.72 262.64C325.44 261.627 323.413 260.747 320.64 260L314.24 258.4C310.56 257.493 307.787 256.293 305.92 254.8C304.107 253.307 303.2 251.147 303.2 248.32C303.2 244.96 304.48 242.267 307.04 240.24C309.653 238.213 313.067 237.2 317.28 237.2C321.493 237.2 324.987 238.16 327.76 240.08C330.533 241.947 332.427 244.507 333.44 247.76L328.32 249.04C327.52 246.693 326.187 244.853 324.32 243.52C322.453 242.187 320.08 241.52 317.2 241.52C314.533 241.52 312.373 242.107 310.72 243.28C309.12 244.4 308.32 245.973 308.32 248C308.32 249.76 308.933 251.12 310.16 252.08C311.387 252.987 313.147 253.733 315.44 254.32L322.56 256C326.347 256.907 329.173 258.213 331.04 259.92C332.907 261.573 333.84 263.867 333.84 266.8C333.84 270.373 332.533 273.227 329.92 275.36C327.36 277.493 323.76 278.56 319.12 278.56ZM357.854 278.56C354.28 278.56 351 277.733 348.014 276.08C345.08 274.373 342.734 271.973 340.974 268.88C339.267 265.733 338.414 262.053 338.414 257.84C338.414 253.627 339.24 249.973 340.894 246.88C342.547 243.733 344.814 241.333 347.694 239.68C350.627 238.027 353.907 237.2 357.534 237.2C361.8 237.2 365.427 238.373 368.414 240.72C371.454 243.067 373.454 246.16 374.414 250L369.054 251.52C368.254 248.427 366.84 246.027 364.814 244.32C362.787 242.613 360.28 241.76 357.294 241.76C354.787 241.76 352.547 242.427 350.574 243.76C348.6 245.04 347.054 246.907 345.934 249.36C344.814 251.76 344.254 254.56 344.254 257.76C344.254 261.173 344.867 264.107 346.094 266.56C347.374 269.013 349.054 270.88 351.134 272.16C353.214 273.387 355.507 274 358.014 274C360.947 274 363.4 273.12 365.374 271.36C367.4 269.547 368.867 267.173 369.774 264.24L374.974 265.6C373.8 269.44 371.747 272.56 368.814 274.96C365.88 277.36 362.227 278.56 357.854 278.56ZM398.083 278.48C394.456 278.48 391.176 277.653 388.243 276C385.363 274.293 383.069 271.893 381.363 268.8C379.709 265.653 378.883 262.027 378.883 257.92C378.883 253.813 379.709 250.187 381.363 247.04C383.069 243.893 385.389 241.467 388.322 239.76C391.256 238.053 394.509 237.2 398.083 237.2C401.656 237.2 404.883 238.053 407.763 239.76C410.696 241.467 412.989 243.893 414.643 247.04C416.349 250.187 417.203 253.813 417.203 257.92C417.203 262.027 416.349 265.653 414.643 268.8C412.989 271.893 410.696 274.293 407.763 276C404.883 277.653 401.656 278.48 398.083 278.48ZM384.723 257.92C384.723 262.933 385.949 266.88 388.403 269.76C390.909 272.587 394.136 274 398.083 274C402.029 274 405.229 272.587 407.683 269.76C410.189 266.88 411.443 262.933 411.443 257.92C411.443 252.853 410.216 248.907 407.763 246.08C405.309 243.2 402.083 241.76 398.083 241.76C394.083 241.76 390.856 243.2 388.403 246.08C385.949 248.907 384.723 252.853 384.723 257.92ZM419.15 237.76H424.59L436.83 271.12L449.31 237.76H454.51L439.55 278H433.79L419.15 237.76ZM475.504 278.56C471.824 278.56 468.518 277.733 465.584 276.08C462.704 274.373 460.438 271.973 458.784 268.88C457.131 265.733 456.304 262.08 456.304 257.92C456.304 254.027 457.078 250.507 458.624 247.36C460.171 244.213 462.384 241.733 465.264 239.92C468.144 238.107 471.451 237.2 475.184 237.2C478.651 237.2 481.718 238 484.384 239.6C487.051 241.147 489.104 243.28 490.544 246C491.984 248.72 492.704 251.76 492.704 255.12C492.704 256.187 492.624 257.2 492.464 258.16H461.984C462.038 261.52 462.678 264.4 463.904 266.8C465.131 269.2 466.758 271.04 468.784 272.32C470.864 273.547 473.184 274.16 475.744 274.16C481.451 274.16 485.451 271.147 487.744 265.12L492.704 266.4C491.638 269.867 489.638 272.773 486.704 275.12C483.824 277.413 480.091 278.56 475.504 278.56ZM487.184 253.92C486.971 250.4 485.771 247.493 483.584 245.2C481.398 242.853 478.571 241.68 475.104 241.68C471.691 241.68 468.838 242.8 466.544 245.04C464.304 247.227 462.891 250.187 462.304 253.92H487.184ZM500.594 237.76H506.114V248.64C507.288 245.12 508.994 242.347 511.234 240.32C513.474 238.24 516.168 237.2 519.314 237.2H519.474V242.96C515.421 242.96 512.168 244.32 509.714 247.04C507.314 249.707 506.114 253.627 506.114 258.8V278H500.594V237.76ZM524.541 289.36H528.061C530.195 289.36 531.741 288.853 532.701 287.84C533.715 286.88 534.675 285.227 535.581 282.88L537.261 278.4L521.021 237.76H526.381L539.741 271.52L552.221 237.76H557.341L540.781 282.56C539.715 285.44 538.675 287.653 537.661 289.2C536.701 290.8 535.448 292 533.901 292.8C532.355 293.6 530.328 294 527.821 294H524.541V289.36ZM248.64 343.44H233.84V338.88H248.64V323.92H253.52V338.88H268.4V343.44H253.52V358.48H248.64V343.44ZM317.043 366.48C313.31 366.48 309.896 365.787 306.803 364.4C303.71 363.013 301.15 361.093 299.123 358.64C297.15 356.187 295.843 353.387 295.203 350.24L300.563 348.8C301.363 352.64 303.23 355.76 306.163 358.16C309.15 360.507 312.776 361.68 317.043 361.68C320.83 361.68 323.95 360.773 326.403 358.96C328.856 357.093 330.083 354.507 330.083 351.2C330.083 349.173 329.656 347.52 328.803 346.24C327.95 344.96 326.803 343.947 325.363 343.2C323.923 342.453 322.003 341.653 319.603 340.8L311.283 338.08C306.59 336.533 303.096 334.747 300.803 332.72C298.51 330.64 297.363 327.68 297.363 323.84C297.363 321.013 298.11 318.507 299.603 316.32C301.096 314.133 303.203 312.453 305.923 311.28C308.696 310.053 311.87 309.44 315.443 309.44C320.67 309.44 324.936 310.693 328.243 313.2C331.603 315.707 333.923 318.853 335.203 322.64L329.763 324C328.75 321.227 327.016 318.907 324.563 317.04C322.163 315.12 318.99 314.16 315.043 314.16C311.47 314.16 308.563 314.987 306.323 316.64C304.136 318.293 303.043 320.56 303.043 323.44C303.043 326 303.843 327.973 305.443 329.36C307.043 330.693 309.603 331.947 313.123 333.12L321.843 336C324.83 337.013 327.31 338.107 329.283 339.28C331.256 340.4 332.83 341.893 334.003 343.76C335.176 345.627 335.763 348 335.763 350.88C335.763 353.973 334.99 356.693 333.443 359.04C331.95 361.387 329.79 363.227 326.963 364.56C324.136 365.84 320.83 366.48 317.043 366.48ZM343.798 325.76H349.318V366H343.798V325.76ZM343.638 312.4H349.558V320H343.638V312.4ZM377.089 382.56C372.289 382.56 368.343 381.44 365.249 379.2C362.156 376.96 360.156 373.867 359.249 369.92L364.209 368.64C364.956 371.627 366.423 373.947 368.609 375.6C370.796 377.253 373.596 378.08 377.009 378.08C380.583 378.08 383.409 376.987 385.489 374.8C387.569 372.613 388.609 369.493 388.609 365.44V356.48C387.276 359.627 385.356 362.107 382.849 363.92C380.343 365.68 377.356 366.56 373.889 366.56C370.636 366.56 367.729 365.733 365.169 364.08C362.609 362.373 360.609 359.947 359.169 356.8C357.783 353.653 357.089 350 357.089 345.84C357.089 341.733 357.836 338.107 359.329 334.96C360.876 331.813 362.929 329.413 365.489 327.76C368.049 326.053 370.849 325.2 373.889 325.2C377.303 325.2 380.263 326.107 382.769 327.92C385.329 329.68 387.276 332.16 388.609 335.36V325.76H394.129V365.12C394.129 370.667 392.609 374.96 389.569 378C386.529 381.04 382.369 382.56 377.089 382.56ZM362.849 345.84C362.849 350.8 363.996 354.747 366.289 357.68C368.583 360.613 371.596 362.08 375.329 362.08C377.836 362.08 380.103 361.387 382.129 360C384.156 358.613 385.729 356.72 386.849 354.32C387.969 351.867 388.529 349.093 388.529 346C388.529 342.907 387.943 340.133 386.769 337.68C385.596 335.173 383.996 333.227 381.969 331.84C379.996 330.4 377.836 329.68 375.489 329.68C373.036 329.68 370.849 330.347 368.929 331.68C367.009 333.013 365.516 334.907 364.449 337.36C363.383 339.76 362.849 342.587 362.849 345.84ZM404.813 325.76H410.333V336C411.88 332.8 413.986 330.213 416.653 328.24C419.373 326.213 422.466 325.2 425.933 325.2C429.453 325.2 432.173 326.373 434.093 328.72C436.013 331.013 436.973 334.427 436.973 338.96V366H431.453V339.6C431.453 333.093 428.84 329.84 423.613 329.84C420.306 329.84 417.426 331.227 414.973 334C412.573 336.72 411.026 339.973 410.333 343.76V366H404.813V325.76ZM479.231 366.08H473.711V355.68C472.165 358.933 470.031 361.573 467.311 363.6C464.645 365.573 461.605 366.56 458.191 366.56C454.618 366.56 451.845 365.413 449.871 363.12C447.951 360.827 446.991 357.387 446.991 352.8L447.071 325.76H452.591L452.511 352.16C452.511 358.667 455.125 361.92 460.351 361.92C462.591 361.92 464.645 361.28 466.511 360C468.378 358.667 469.925 356.933 471.151 354.8C472.431 352.667 473.285 350.4 473.711 348V325.76H479.231V366.08ZM489.969 325.76H495.489V335.04C496.823 331.947 498.743 329.547 501.249 327.84C503.756 326.08 506.716 325.2 510.129 325.2C513.383 325.2 516.289 326.053 518.849 327.76C521.409 329.413 523.383 331.813 524.769 334.96C526.209 338.107 526.929 341.76 526.929 345.92C526.929 350.027 526.156 353.653 524.609 356.8C523.116 359.947 521.063 362.373 518.449 364.08C515.889 365.787 513.089 366.64 510.049 366.64C506.689 366.587 503.756 365.707 501.249 364C498.743 362.293 496.823 359.893 495.489 356.8V382H489.969V325.76ZM495.489 347.68C495.703 350.453 496.423 352.933 497.649 355.12C498.876 357.307 500.423 359.013 502.289 360.24C504.209 361.467 506.263 362.08 508.449 362.08C510.903 362.08 513.089 361.44 515.009 360.16C516.929 358.827 518.423 356.933 519.489 354.48C520.609 352.027 521.169 349.173 521.169 345.92C521.169 340.96 520.023 337.013 517.729 334.08C515.436 331.147 512.423 329.68 508.689 329.68C505.116 329.68 502.103 331.013 499.649 333.68C497.249 336.347 495.863 339.787 495.489 344V347.68Z" fill="black"/>
<path opacity="0.4" d="M230.72 402.4H234.032L241.856 431.392L250.688 402.4H254.096L262.88 431.248L270.32 402.4H273.584L264.992 436H261.344L252.32 406.72L243.44 436H239.744L230.72 402.4ZM285.709 436.336C283.501 436.336 281.517 435.84 279.757 434.848C278.029 433.824 276.669 432.384 275.677 430.528C274.685 428.64 274.189 426.448 274.189 423.952C274.189 421.616 274.653 419.504 275.581 417.616C276.509 415.728 277.837 414.24 279.565 413.152C281.293 412.064 283.277 411.52 285.517 411.52C287.597 411.52 289.437 412 291.037 412.96C292.637 413.888 293.869 415.168 294.733 416.8C295.597 418.432 296.029 420.256 296.029 422.272C296.029 422.912 295.981 423.52 295.885 424.096H277.597C277.629 426.112 278.013 427.84 278.749 429.28C279.485 430.72 280.461 431.824 281.677 432.592C282.925 433.328 284.317 433.696 285.853 433.696C289.277 433.696 291.677 431.888 293.053 428.272L296.029 429.04C295.389 431.12 294.189 432.864 292.429 434.272C290.701 435.648 288.461 436.336 285.709 436.336ZM292.717 421.552C292.589 419.44 291.869 417.696 290.557 416.32C289.245 414.912 287.549 414.208 285.469 414.208C283.421 414.208 281.709 414.88 280.333 416.224C278.989 417.536 278.141 419.312 277.789 421.552H292.717ZM300.811 402.4H304.075V417.472C304.875 415.616 306.011 414.16 307.483 413.104C308.987 412.048 310.779 411.52 312.859 411.52C314.811 411.52 316.555 412.032 318.091 413.056C319.627 414.048 320.811 415.488 321.643 417.376C322.507 419.264 322.939 421.456 322.939 423.952C322.939 426.416 322.475 428.592 321.547 430.48C320.651 432.368 319.435 433.824 317.899 434.848C316.363 435.84 314.683 436.336 312.859 436.336C310.811 436.336 309.035 435.808 307.531 434.752C306.027 433.696 304.875 432.224 304.075 430.336V436H300.811V402.4ZM304.075 423.856C304.075 425.712 304.427 427.392 305.131 428.896C305.835 430.368 306.779 431.536 307.963 432.4C309.179 433.232 310.491 433.648 311.899 433.648C313.371 433.648 314.683 433.248 315.835 432.448C316.987 431.648 317.883 430.528 318.523 429.088C319.163 427.616 319.483 425.904 319.483 423.952C319.483 420.976 318.795 418.608 317.419 416.848C316.043 415.088 314.235 414.208 311.995 414.208C310.491 414.208 309.131 414.624 307.915 415.456C306.699 416.288 305.755 417.44 305.083 418.912C304.411 420.352 304.075 422 304.075 423.856ZM335.785 436.336C332.937 436.336 330.633 435.68 328.873 434.368C327.113 433.024 325.929 431.312 325.321 429.232L328.393 428.464C329.609 431.984 332.089 433.744 335.833 433.744C337.657 433.744 339.065 433.36 340.057 432.592C341.049 431.824 341.545 430.768 341.545 429.424C341.545 428.272 341.145 427.392 340.345 426.784C339.577 426.176 338.361 425.648 336.697 425.2L332.857 424.24C330.649 423.696 328.985 422.976 327.865 422.08C326.777 421.184 326.233 419.888 326.233 418.192C326.233 416.176 327.001 414.56 328.537 413.344C330.105 412.128 332.153 411.52 334.681 411.52C337.209 411.52 339.305 412.096 340.969 413.248C342.633 414.368 343.769 415.904 344.377 417.856L341.305 418.624C340.825 417.216 340.025 416.112 338.905 415.312C337.785 414.512 336.361 414.112 334.633 414.112C333.033 414.112 331.737 414.464 330.745 415.168C329.785 415.84 329.305 416.784 329.305 418C329.305 419.056 329.673 419.872 330.409 420.448C331.145 420.992 332.201 421.44 333.577 421.792L337.849 422.8C340.121 423.344 341.817 424.128 342.937 425.152C344.057 426.144 344.617 427.52 344.617 429.28C344.617 431.424 343.833 433.136 342.265 434.416C340.729 435.696 338.569 436.336 335.785 436.336ZM349.138 411.856H352.45V436H349.138V411.856ZM349.042 403.84H352.594V408.4H349.042V403.84ZM365.656 436C363.672 436 362.12 435.456 361 434.368C359.88 433.248 359.32 431.696 359.32 429.712V414.592H356.344V411.856H359.32V406.864L362.632 405.184V411.856H368.536V414.592H362.632V429.568C362.632 430.688 362.92 431.584 363.496 432.256C364.072 432.896 364.872 433.216 365.896 433.216H368.536V436H365.656ZM381.381 436.336C379.173 436.336 377.189 435.84 375.429 434.848C373.701 433.824 372.341 432.384 371.349 430.528C370.357 428.64 369.861 426.448 369.861 423.952C369.861 421.616 370.325 419.504 371.253 417.616C372.181 415.728 373.509 414.24 375.237 413.152C376.965 412.064 378.949 411.52 381.189 411.52C383.269 411.52 385.109 412 386.709 412.96C388.309 413.888 389.541 415.168 390.405 416.8C391.269 418.432 391.701 420.256 391.701 422.272C391.701 422.912 391.653 423.52 391.557 424.096H373.269C373.301 426.112 373.685 427.84 374.421 429.28C375.157 430.72 376.133 431.824 377.349 432.592C378.597 433.328 379.989 433.696 381.525 433.696C384.949 433.696 387.349 431.888 388.725 428.272L391.701 429.04C391.061 431.12 389.861 432.864 388.101 434.272C386.373 435.648 384.133 436.336 381.381 436.336ZM388.389 421.552C388.261 419.44 387.541 417.696 386.229 416.32C384.917 414.912 383.221 414.208 381.141 414.208C379.093 414.208 377.381 414.88 376.005 416.224C374.661 417.536 373.813 419.312 373.461 421.552H388.389Z" fill="black"/>
<path opacity="0.4" d="M1423.65 356.4H1433.54C1437.25 356.4 1440.18 357.328 1442.32 359.184C1444.5 361.04 1445.58 363.568 1445.58 366.768C1445.58 370 1444.53 372.56 1442.42 374.448C1440.3 376.336 1437.42 377.28 1433.78 377.28H1427.1V390H1423.65V356.4ZM1433.44 374.4C1436.06 374.4 1438.14 373.728 1439.68 372.384C1441.25 371.008 1442.03 369.152 1442.03 366.816C1442.03 364.48 1441.25 362.64 1439.68 361.296C1438.14 359.92 1436.06 359.232 1433.44 359.232H1427.1V374.4H1433.44ZM1458.88 390.288C1456.7 390.288 1454.74 389.792 1452.98 388.8C1451.25 387.776 1449.87 386.336 1448.85 384.48C1447.86 382.592 1447.36 380.416 1447.36 377.952C1447.36 375.488 1447.86 373.312 1448.85 371.424C1449.87 369.536 1451.26 368.08 1453.02 367.056C1454.78 366.032 1456.74 365.52 1458.88 365.52C1461.02 365.52 1462.96 366.032 1464.69 367.056C1466.45 368.08 1467.82 369.536 1468.82 371.424C1469.84 373.312 1470.35 375.488 1470.35 377.952C1470.35 380.416 1469.84 382.592 1468.82 384.48C1467.82 386.336 1466.45 387.776 1464.69 388.8C1462.96 389.792 1461.02 390.288 1458.88 390.288ZM1450.86 377.952C1450.86 380.96 1451.6 383.328 1453.07 385.056C1454.58 386.752 1456.51 387.6 1458.88 387.6C1461.25 387.6 1463.17 386.752 1464.64 385.056C1466.14 383.328 1466.9 380.96 1466.9 377.952C1466.9 374.912 1466.16 372.544 1464.69 370.848C1463.22 369.12 1461.28 368.256 1458.88 368.256C1456.48 368.256 1454.54 369.12 1453.07 370.848C1451.6 372.544 1450.86 374.912 1450.86 377.952ZM1483.22 390.336C1480.37 390.336 1478.07 389.68 1476.31 388.368C1474.55 387.024 1473.37 385.312 1472.76 383.232L1475.83 382.464C1477.05 385.984 1479.53 387.744 1483.27 387.744C1485.09 387.744 1486.5 387.36 1487.49 386.592C1488.49 385.824 1488.98 384.768 1488.98 383.424C1488.98 382.272 1488.58 381.392 1487.78 380.784C1487.01 380.176 1485.8 379.648 1484.13 379.2L1480.29 378.24C1478.09 377.696 1476.42 376.976 1475.3 376.08C1474.21 375.184 1473.67 373.888 1473.67 372.192C1473.67 370.176 1474.44 368.56 1475.97 367.344C1477.54 366.128 1479.59 365.52 1482.12 365.52C1484.65 365.52 1486.74 366.096 1488.41 367.248C1490.07 368.368 1491.21 369.904 1491.81 371.856L1488.74 372.624C1488.26 371.216 1487.46 370.112 1486.34 369.312C1485.22 368.512 1483.8 368.112 1482.07 368.112C1480.47 368.112 1479.17 368.464 1478.18 369.168C1477.22 369.84 1476.74 370.784 1476.74 372C1476.74 373.056 1477.11 373.872 1477.85 374.448C1478.58 374.992 1479.64 375.44 1481.01 375.792L1485.29 376.8C1487.56 377.344 1489.25 378.128 1490.37 379.152C1491.49 380.144 1492.05 381.52 1492.05 383.28C1492.05 385.424 1491.27 387.136 1489.7 388.416C1488.17 389.696 1486.01 390.336 1483.22 390.336ZM1503.39 390C1501.41 390 1499.85 389.456 1498.73 388.368C1497.61 387.248 1497.05 385.696 1497.05 383.712V368.592H1494.08V365.856H1497.05V360.864L1500.37 359.184V365.856H1506.27V368.592H1500.37V383.568C1500.37 384.688 1500.65 385.584 1501.23 386.256C1501.81 386.896 1502.61 387.216 1503.63 387.216H1506.27V390H1503.39ZM1524.76 373.92C1524.76 372.128 1524.28 370.736 1523.32 369.744C1522.36 368.752 1520.92 368.256 1519 368.256C1517.24 368.256 1515.77 368.672 1514.59 369.504C1513.43 370.336 1512.6 371.504 1512.09 373.008L1509.07 372.192C1509.71 370.24 1510.91 368.64 1512.67 367.392C1514.43 366.144 1516.59 365.52 1519.15 365.52C1522.03 365.52 1524.23 366.256 1525.77 367.728C1527.31 369.168 1528.07 371.232 1528.07 373.92V390H1524.76V385.056C1523.9 386.72 1522.65 388.016 1521.02 388.944C1519.42 389.872 1517.66 390.336 1515.74 390.336C1513.56 390.336 1511.75 389.776 1510.31 388.656C1508.91 387.504 1508.2 385.936 1508.2 383.952C1508.2 381.552 1509.07 379.808 1510.79 378.72C1512.55 377.632 1514.99 376.96 1518.09 376.704C1520.2 376.544 1521.79 376.304 1522.84 375.984C1523.93 375.664 1524.57 375.12 1524.76 374.352V373.92ZM1511.71 383.568C1511.71 385.008 1512.2 386.08 1513.19 386.784C1514.22 387.456 1515.48 387.792 1516.99 387.792C1518.97 387.792 1520.71 387.136 1522.22 385.824C1523.72 384.512 1524.57 382.72 1524.76 380.448V376.944C1523.77 378.064 1521.85 378.752 1519 379.008C1516.51 379.232 1514.67 379.648 1513.48 380.256C1512.3 380.864 1511.71 381.968 1511.71 383.568ZM1534.08 356.4H1537.34V390H1534.08V356.4ZM1553.7 365.856H1556.82L1562.29 385.344L1568.19 365.856H1571.22L1576.98 385.344L1582.5 365.856H1585.52L1578.66 390H1575.59L1569.59 369.888L1563.54 390H1560.51L1553.7 365.856ZM1598.62 390.288C1596.44 390.288 1594.47 389.792 1592.71 388.8C1590.98 387.776 1589.61 386.336 1588.58 384.48C1587.59 382.592 1587.1 380.416 1587.1 377.952C1587.1 375.488 1587.59 373.312 1588.58 371.424C1589.61 369.536 1591 368.08 1592.76 367.056C1594.52 366.032 1596.47 365.52 1598.62 365.52C1600.76 365.52 1602.7 366.032 1604.42 367.056C1606.18 368.08 1607.56 369.536 1608.55 371.424C1609.58 373.312 1610.09 375.488 1610.09 377.952C1610.09 380.416 1609.58 382.592 1608.55 384.48C1607.56 386.336 1606.18 387.776 1604.42 388.8C1602.7 389.792 1600.76 390.288 1598.62 390.288ZM1590.6 377.952C1590.6 380.96 1591.34 383.328 1592.81 385.056C1594.31 386.752 1596.25 387.6 1598.62 387.6C1600.98 387.6 1602.9 386.752 1604.38 385.056C1605.88 383.328 1606.63 380.96 1606.63 377.952C1606.63 374.912 1605.9 372.544 1604.42 370.848C1602.95 369.12 1601.02 368.256 1598.62 368.256C1596.22 368.256 1594.28 369.12 1592.81 370.848C1591.34 372.544 1590.6 374.912 1590.6 377.952ZM1614.7 365.856H1618.01V372.384C1618.72 370.272 1619.74 368.608 1621.08 367.392C1622.43 366.144 1624.04 365.52 1625.93 365.52H1626.03V368.976C1623.6 368.976 1621.64 369.792 1620.17 371.424C1618.73 373.024 1618.01 375.376 1618.01 378.48V390H1614.7V365.856ZM1629.37 356.4H1632.64V377.424L1644.4 365.856H1648.38L1637.34 376.704L1648.38 390H1644.64L1635.28 378.72L1632.64 381.312V390H1629.37V356.4ZM1660.16 390.336C1657.95 390.336 1655.97 389.84 1654.21 388.848C1652.48 387.824 1651.12 386.384 1650.13 384.528C1649.14 382.64 1648.64 380.448 1648.64 377.952C1648.64 375.616 1649.11 373.504 1650.03 371.616C1650.96 369.728 1652.29 368.24 1654.02 367.152C1655.75 366.064 1657.73 365.52 1659.97 365.52C1662.05 365.52 1663.89 366 1665.49 366.96C1667.09 367.888 1668.32 369.168 1669.19 370.8C1670.05 372.432 1670.48 374.256 1670.48 376.272C1670.48 376.912 1670.43 377.52 1670.34 378.096H1652.05C1652.08 380.112 1652.47 381.84 1653.2 383.28C1653.94 384.72 1654.91 385.824 1656.13 386.592C1657.38 387.328 1658.77 387.696 1660.31 387.696C1663.73 387.696 1666.13 385.888 1667.51 382.272L1670.48 383.04C1669.84 385.12 1668.64 386.864 1666.88 388.272C1665.15 389.648 1662.91 390.336 1660.16 390.336ZM1667.17 375.552C1667.04 373.44 1666.32 371.696 1665.01 370.32C1663.7 368.912 1662 368.208 1659.92 368.208C1657.87 368.208 1656.16 368.88 1654.79 370.224C1653.44 371.536 1652.59 373.312 1652.24 375.552H1667.17ZM1675.22 365.856H1678.53V372.384C1679.23 370.272 1680.26 368.608 1681.6 367.392C1682.94 366.144 1684.56 365.52 1686.45 365.52H1686.54V368.976C1684.11 368.976 1682.16 369.792 1680.69 371.424C1679.25 373.024 1678.53 375.376 1678.53 378.48V390H1675.22V365.856ZM1717.65 373.92C1717.65 372.128 1717.17 370.736 1716.21 369.744C1715.25 368.752 1713.81 368.256 1711.89 368.256C1710.13 368.256 1708.66 368.672 1707.48 369.504C1706.32 370.336 1705.49 371.504 1704.98 373.008L1701.96 372.192C1702.6 370.24 1703.8 368.64 1705.56 367.392C1707.32 366.144 1709.48 365.52 1712.04 365.52C1714.92 365.52 1717.12 366.256 1718.66 367.728C1720.2 369.168 1720.96 371.232 1720.96 373.92V390H1717.65V385.056C1716.79 386.72 1715.54 388.016 1713.91 388.944C1712.31 389.872 1710.55 390.336 1708.63 390.336C1706.45 390.336 1704.64 389.776 1703.2 388.656C1701.8 387.504 1701.09 385.936 1701.09 383.952C1701.09 381.552 1701.96 379.808 1703.68 378.72C1705.44 377.632 1707.88 376.96 1710.98 376.704C1713.09 376.544 1714.68 376.304 1715.73 375.984C1716.82 375.664 1717.46 375.12 1717.65 374.352V373.92ZM1704.6 383.568C1704.6 385.008 1705.09 386.08 1706.08 386.784C1707.11 387.456 1708.37 387.792 1709.88 387.792C1711.86 387.792 1713.6 387.136 1715.11 385.824C1716.61 384.512 1717.46 382.72 1717.65 380.448V376.944C1716.66 378.064 1714.74 378.752 1711.89 379.008C1709.4 379.232 1707.56 379.648 1706.37 380.256C1705.19 380.864 1704.6 381.968 1704.6 383.568ZM1726.92 365.856H1730.23V371.424C1731.03 369.568 1732.18 368.128 1733.69 367.104C1735.19 366.048 1736.97 365.52 1739.02 365.52C1740.97 365.52 1742.71 366.032 1744.25 367.056C1745.78 368.048 1746.97 369.488 1747.8 371.376C1748.66 373.264 1749.1 375.456 1749.1 377.952C1749.1 380.416 1748.63 382.592 1747.7 384.48C1746.81 386.368 1745.58 387.824 1744.01 388.848C1742.47 389.872 1740.79 390.384 1738.97 390.384C1736.95 390.352 1735.19 389.824 1733.69 388.8C1732.18 387.776 1731.03 386.336 1730.23 384.48V399.6H1726.92V365.856ZM1730.23 379.008C1730.36 380.672 1730.79 382.16 1731.53 383.472C1732.26 384.784 1733.19 385.808 1734.31 386.544C1735.46 387.28 1736.7 387.648 1738.01 387.648C1739.48 387.648 1740.79 387.264 1741.94 386.496C1743.1 385.696 1743.99 384.56 1744.63 383.088C1745.3 381.616 1745.64 379.904 1745.64 377.952C1745.64 374.976 1744.95 372.608 1743.58 370.848C1742.2 369.088 1740.39 368.208 1738.15 368.208C1736.01 368.208 1734.2 369.008 1732.73 370.608C1731.29 372.208 1730.46 374.272 1730.23 376.8V379.008ZM1753.64 365.856H1756.95V371.424C1757.75 369.568 1758.9 368.128 1760.41 367.104C1761.91 366.048 1763.69 365.52 1765.73 365.52C1767.69 365.52 1769.43 366.032 1770.97 367.056C1772.5 368.048 1773.69 369.488 1774.52 371.376C1775.38 373.264 1775.81 375.456 1775.81 377.952C1775.81 380.416 1775.35 382.592 1774.42 384.48C1773.53 386.368 1772.29 387.824 1770.73 388.848C1769.19 389.872 1767.51 390.384 1765.69 390.384C1763.67 390.352 1761.91 389.824 1760.41 388.8C1758.9 387.776 1757.75 386.336 1756.95 384.48V399.6H1753.64V365.856ZM1756.95 379.008C1757.08 380.672 1757.51 382.16 1758.25 383.472C1758.98 384.784 1759.91 385.808 1761.03 386.544C1762.18 387.28 1763.41 387.648 1764.73 387.648C1766.2 387.648 1767.51 387.264 1768.66 386.496C1769.81 385.696 1770.71 384.56 1771.35 383.088C1772.02 381.616 1772.36 379.904 1772.36 377.952C1772.36 374.976 1771.67 372.608 1770.29 370.848C1768.92 369.088 1767.11 368.208 1764.87 368.208C1762.73 368.208 1760.92 369.008 1759.45 370.608C1758.01 372.208 1757.17 374.272 1756.95 376.8V379.008Z" fill="black"/>
<path opacity="0.4" d="M1978.86 394.336C1975.62 394.336 1972.79 393.616 1970.36 392.176C1967.96 390.736 1966.1 388.72 1964.79 386.128C1963.51 383.536 1962.87 380.56 1962.87 377.2C1962.87 373.872 1963.53 370.912 1964.84 368.32C1966.15 365.696 1967.99 363.664 1970.36 362.224C1972.76 360.784 1975.5 360.064 1978.57 360.064C1982.09 360.064 1985.08 361.056 1987.54 363.04C1990.01 365.024 1991.66 367.696 1992.49 371.056L1989.18 371.872C1988.5 369.184 1987.22 367.04 1985.34 365.44C1983.45 363.84 1981.18 363.04 1978.52 363.04C1976.12 363.04 1974.01 363.632 1972.18 364.816C1970.36 365.968 1968.94 367.616 1967.91 369.76C1966.92 371.872 1966.42 374.32 1966.42 377.104C1966.42 379.888 1966.92 382.368 1967.91 384.544C1968.94 386.688 1970.38 388.368 1972.23 389.584C1974.12 390.768 1976.33 391.36 1978.86 391.36C1981.48 391.36 1983.72 390.592 1985.58 389.056C1987.43 387.52 1988.7 385.392 1989.37 382.672L1992.58 383.536C1991.75 386.768 1990.1 389.376 1987.64 391.36C1985.21 393.344 1982.28 394.336 1978.86 394.336ZM2015.95 394.048H2012.63V387.808C2011.71 389.76 2010.43 391.344 2008.79 392.56C2007.19 393.744 2005.37 394.336 2003.32 394.336C2001.18 394.336 1999.51 393.648 1998.33 392.272C1997.18 390.896 1996.6 388.832 1996.6 386.08L1996.65 369.856H1999.96L1999.91 385.696C1999.91 389.6 2001.48 391.552 2004.62 391.552C2005.96 391.552 2007.19 391.168 2008.31 390.4C2009.43 389.6 2010.36 388.56 2011.1 387.28C2011.87 386 2012.38 384.64 2012.63 383.2V369.856H2015.95V394.048ZM2030.5 394.336C2027.66 394.336 2025.35 393.68 2023.59 392.368C2021.83 391.024 2020.65 389.312 2020.04 387.232L2023.11 386.464C2024.33 389.984 2026.81 391.744 2030.55 391.744C2032.38 391.744 2033.78 391.36 2034.78 390.592C2035.77 389.824 2036.26 388.768 2036.26 387.424C2036.26 386.272 2035.86 385.392 2035.06 384.784C2034.3 384.176 2033.08 383.648 2031.42 383.2L2027.58 382.24C2025.37 381.696 2023.7 380.976 2022.58 380.08C2021.5 379.184 2020.95 377.888 2020.95 376.192C2020.95 374.176 2021.72 372.56 2023.26 371.344C2024.82 370.128 2026.87 369.52 2029.4 369.52C2031.93 369.52 2034.02 370.096 2035.69 371.248C2037.35 372.368 2038.49 373.904 2039.1 375.856L2036.02 376.624C2035.54 375.216 2034.74 374.112 2033.62 373.312C2032.5 372.512 2031.08 372.112 2029.35 372.112C2027.75 372.112 2026.46 372.464 2025.46 373.168C2024.5 373.84 2024.02 374.784 2024.02 376C2024.02 377.056 2024.39 377.872 2025.13 378.448C2025.86 378.992 2026.92 379.44 2028.3 379.792L2032.57 380.8C2034.84 381.344 2036.54 382.128 2037.66 383.152C2038.78 384.144 2039.34 385.52 2039.34 387.28C2039.34 389.424 2038.55 391.136 2036.98 392.416C2035.45 393.696 2033.29 394.336 2030.5 394.336ZM2050.67 394C2048.69 394 2047.14 393.456 2046.02 392.368C2044.9 391.248 2044.34 389.696 2044.34 387.712V372.592H2041.36V369.856H2044.34V364.864L2047.65 363.184V369.856H2053.55V372.592H2047.65V387.568C2047.65 388.688 2047.94 389.584 2048.51 390.256C2049.09 390.896 2049.89 391.216 2050.91 391.216H2053.55V394H2050.67ZM2066.4 394.288C2064.22 394.288 2062.25 393.792 2060.49 392.8C2058.76 391.776 2057.39 390.336 2056.36 388.48C2055.37 386.592 2054.88 384.416 2054.88 381.952C2054.88 379.488 2055.37 377.312 2056.36 375.424C2057.39 373.536 2058.78 372.08 2060.54 371.056C2062.3 370.032 2064.25 369.52 2066.4 369.52C2068.54 369.52 2070.48 370.032 2072.2 371.056C2073.96 372.08 2075.34 373.536 2076.33 375.424C2077.36 377.312 2077.87 379.488 2077.87 381.952C2077.87 384.416 2077.36 386.592 2076.33 388.48C2075.34 390.336 2073.96 391.776 2072.2 392.8C2070.48 393.792 2068.54 394.288 2066.4 394.288ZM2058.38 381.952C2058.38 384.96 2059.12 387.328 2060.59 389.056C2062.09 390.752 2064.03 391.6 2066.4 391.6C2068.76 391.6 2070.68 390.752 2072.16 389.056C2073.66 387.328 2074.41 384.96 2074.41 381.952C2074.41 378.912 2073.68 376.544 2072.2 374.848C2070.73 373.12 2068.8 372.256 2066.4 372.256C2064 372.256 2062.06 373.12 2060.59 374.848C2059.12 376.544 2058.38 378.912 2058.38 381.952ZM2082.48 369.856H2085.79V375.184C2086.59 373.52 2087.65 372.16 2088.96 371.104C2090.31 370.048 2091.89 369.52 2093.71 369.52C2097.3 369.52 2099.31 371.456 2099.76 375.328C2100.56 373.6 2101.63 372.208 2102.98 371.152C2104.32 370.064 2105.92 369.52 2107.78 369.52C2109.86 369.52 2111.39 370.176 2112.39 371.488C2113.41 372.8 2113.92 374.672 2113.92 377.104V394H2110.61V377.728C2110.61 375.904 2110.27 374.528 2109.6 373.6C2108.96 372.64 2108 372.16 2106.72 372.16C2105.38 372.16 2104.18 372.624 2103.12 373.552C2102.1 374.448 2101.3 375.584 2100.72 376.96C2100.15 378.304 2099.86 379.6 2099.86 380.848V394H2096.55V377.728C2096.55 375.904 2096.21 374.528 2095.54 373.6C2094.9 372.64 2093.94 372.16 2092.66 372.16C2091.31 372.16 2090.11 372.624 2089.06 373.552C2088.03 374.448 2087.23 375.584 2086.66 376.96C2086.08 378.304 2085.79 379.6 2085.79 380.848V394H2082.48V369.856ZM2129.68 394.336C2127.47 394.336 2125.49 393.84 2123.73 392.848C2122 391.824 2120.64 390.384 2119.65 388.528C2118.65 386.64 2118.16 384.448 2118.16 381.952C2118.16 379.616 2118.62 377.504 2119.55 375.616C2120.48 373.728 2121.81 372.24 2123.53 371.152C2125.26 370.064 2127.25 369.52 2129.49 369.52C2131.57 369.52 2133.41 370 2135.01 370.96C2136.61 371.888 2137.84 373.168 2138.7 374.8C2139.57 376.432 2140 378.256 2140 380.272C2140 380.912 2139.95 381.52 2139.85 382.096H2121.57C2121.6 384.112 2121.98 385.84 2122.72 387.28C2123.45 388.72 2124.43 389.824 2125.65 390.592C2126.89 391.328 2128.29 391.696 2129.82 391.696C2133.25 391.696 2135.65 389.888 2137.02 386.272L2140 387.04C2139.36 389.12 2138.16 390.864 2136.4 392.272C2134.67 393.648 2132.43 394.336 2129.68 394.336ZM2136.69 379.552C2136.56 377.44 2135.84 375.696 2134.53 374.32C2133.21 372.912 2131.52 372.208 2129.44 372.208C2127.39 372.208 2125.68 372.88 2124.3 374.224C2122.96 375.536 2122.11 377.312 2121.76 379.552H2136.69ZM2144.73 369.856H2148.04V376.384C2148.75 374.272 2149.77 372.608 2151.12 371.392C2152.46 370.144 2154.08 369.52 2155.96 369.52H2156.06V372.976C2153.63 372.976 2151.68 373.792 2150.2 375.424C2148.76 377.024 2148.04 379.376 2148.04 382.48V394H2144.73V369.856ZM2189.66 388.288C2188.86 390.176 2187.71 391.664 2186.21 392.752C2184.7 393.808 2182.91 394.336 2180.83 394.336C2178.88 394.336 2177.14 393.84 2175.6 392.848C2174.06 391.824 2172.86 390.368 2172 388.48C2171.17 386.592 2170.75 384.4 2170.75 381.904C2170.75 379.44 2171.2 377.264 2172.1 375.376C2173.02 373.488 2174.26 372.048 2175.79 371.056C2177.33 370.032 2179.01 369.52 2180.83 369.52C2182.88 369.52 2184.66 370.064 2186.16 371.152C2187.7 372.208 2188.86 373.696 2189.66 375.616V360.4H2192.98V394H2189.66V388.288ZM2174.21 381.904C2174.21 384.88 2174.9 387.248 2176.27 389.008C2177.65 390.768 2179.46 391.648 2181.7 391.648C2183.2 391.648 2184.56 391.232 2185.78 390.4C2186.99 389.568 2187.94 388.432 2188.61 386.992C2189.28 385.52 2189.62 383.856 2189.62 382C2189.62 380.144 2189.26 378.48 2188.56 377.008C2187.86 375.504 2186.9 374.336 2185.68 373.504C2184.5 372.64 2183.2 372.208 2181.79 372.208C2180.32 372.208 2179.01 372.608 2177.86 373.408C2176.7 374.208 2175.81 375.344 2175.17 376.816C2174.53 378.256 2174.21 379.952 2174.21 381.904ZM2213.93 377.92C2213.93 376.128 2213.45 374.736 2212.49 373.744C2211.53 372.752 2210.09 372.256 2208.17 372.256C2206.41 372.256 2204.94 372.672 2203.76 373.504C2202.61 374.336 2201.77 375.504 2201.26 377.008L2198.24 376.192C2198.88 374.24 2200.08 372.64 2201.84 371.392C2203.6 370.144 2205.76 369.52 2208.32 369.52C2211.2 369.52 2213.41 370.256 2214.94 371.728C2216.48 373.168 2217.25 375.232 2217.25 377.92V394H2213.93V389.056C2213.07 390.72 2211.82 392.016 2210.19 392.944C2208.59 393.872 2206.83 394.336 2204.91 394.336C2202.73 394.336 2200.93 393.776 2199.49 392.656C2198.08 391.504 2197.37 389.936 2197.37 387.952C2197.37 385.552 2198.24 383.808 2199.97 382.72C2201.73 381.632 2204.16 380.96 2207.26 380.704C2209.37 380.544 2210.96 380.304 2212.01 379.984C2213.1 379.664 2213.74 379.12 2213.93 378.352V377.92ZM2200.88 387.568C2200.88 389.008 2201.37 390.08 2202.37 390.784C2203.39 391.456 2204.65 391.792 2206.16 391.792C2208.14 391.792 2209.89 391.136 2211.39 389.824C2212.89 388.512 2213.74 386.72 2213.93 384.448V380.944C2212.94 382.064 2211.02 382.752 2208.17 383.008C2205.68 383.232 2203.84 383.648 2202.65 384.256C2201.47 384.864 2200.88 385.968 2200.88 387.568ZM2231.46 394.336C2228.61 394.336 2226.3 393.68 2224.54 392.368C2222.78 391.024 2221.6 389.312 2220.99 387.232L2224.06 386.464C2225.28 389.984 2227.76 391.744 2231.5 391.744C2233.33 391.744 2234.74 391.36 2235.73 390.592C2236.72 389.824 2237.22 388.768 2237.22 387.424C2237.22 386.272 2236.82 385.392 2236.02 384.784C2235.25 384.176 2234.03 383.648 2232.37 383.2L2228.53 382.24C2226.32 381.696 2224.66 380.976 2223.54 380.08C2222.45 379.184 2221.9 377.888 2221.9 376.192C2221.9 374.176 2222.67 372.56 2224.21 371.344C2225.78 370.128 2227.82 369.52 2230.35 369.52C2232.88 369.52 2234.98 370.096 2236.64 371.248C2238.3 372.368 2239.44 373.904 2240.05 375.856L2236.98 376.624C2236.5 375.216 2235.7 374.112 2234.58 373.312C2233.46 372.512 2232.03 372.112 2230.3 372.112C2228.7 372.112 2227.41 372.464 2226.42 373.168C2225.46 373.84 2224.98 374.784 2224.98 376C2224.98 377.056 2225.34 377.872 2226.08 378.448C2226.82 378.992 2227.87 379.44 2229.25 379.792L2233.52 380.8C2235.79 381.344 2237.49 382.128 2238.61 383.152C2239.73 384.144 2240.29 385.52 2240.29 387.28C2240.29 389.424 2239.5 391.136 2237.94 392.416C2236.4 393.696 2234.24 394.336 2231.46 394.336ZM2244.86 360.4H2248.12V376.096C2249.05 374.144 2250.33 372.56 2251.96 371.344C2253.59 370.128 2255.45 369.52 2257.53 369.52C2259.64 369.52 2261.27 370.224 2262.43 371.632C2263.58 373.008 2264.15 375.056 2264.15 377.776V394H2260.84V378.16C2260.84 374.256 2259.27 372.304 2256.14 372.304C2254.76 372.304 2253.5 372.72 2252.35 373.552C2251.23 374.352 2250.3 375.408 2249.56 376.72C2248.83 378.032 2248.35 379.44 2248.12 380.944V394H2244.86V360.4ZM2270.4 360.4H2273.67V375.472C2274.47 373.616 2275.6 372.16 2277.08 371.104C2278.58 370.048 2280.37 369.52 2282.45 369.52C2284.4 369.52 2286.15 370.032 2287.68 371.056C2289.22 372.048 2290.4 373.488 2291.24 375.376C2292.1 377.264 2292.53 379.456 2292.53 381.952C2292.53 384.416 2292.07 386.592 2291.14 388.48C2290.24 390.368 2289.03 391.824 2287.49 392.848C2285.96 393.84 2284.28 394.336 2282.45 394.336C2280.4 394.336 2278.63 393.808 2277.12 392.752C2275.62 391.696 2274.47 390.224 2273.67 388.336V394H2270.4V360.4ZM2273.67 381.856C2273.67 383.712 2274.02 385.392 2274.72 386.896C2275.43 388.368 2276.37 389.536 2277.56 390.4C2278.77 391.232 2280.08 391.648 2281.49 391.648C2282.96 391.648 2284.28 391.248 2285.43 390.448C2286.58 389.648 2287.48 388.528 2288.12 387.088C2288.76 385.616 2289.08 383.904 2289.08 381.952C2289.08 378.976 2288.39 376.608 2287.01 374.848C2285.64 373.088 2283.83 372.208 2281.59 372.208C2280.08 372.208 2278.72 372.624 2277.51 373.456C2276.29 374.288 2275.35 375.44 2274.68 376.912C2274 378.352 2273.67 380 2273.67 381.856ZM2307.19 394.288C2305.02 394.288 2303.05 393.792 2301.29 392.8C2299.56 391.776 2298.19 390.336 2297.16 388.48C2296.17 386.592 2295.67 384.416 2295.67 381.952C2295.67 379.488 2296.17 377.312 2297.16 375.424C2298.19 373.536 2299.58 372.08 2301.34 371.056C2303.1 370.032 2305.05 369.52 2307.19 369.52C2309.34 369.52 2311.27 370.032 2313 371.056C2314.76 372.08 2316.14 373.536 2317.13 375.424C2318.15 377.312 2318.67 379.488 2318.67 381.952C2318.67 384.416 2318.15 386.592 2317.13 388.48C2316.14 390.336 2314.76 391.776 2313 392.8C2311.27 393.792 2309.34 394.288 2307.19 394.288ZM2299.18 381.952C2299.18 384.96 2299.91 387.328 2301.39 389.056C2302.89 390.752 2304.83 391.6 2307.19 391.6C2309.56 391.6 2311.48 390.752 2312.95 389.056C2314.46 387.328 2315.21 384.96 2315.21 381.952C2315.21 378.912 2314.47 376.544 2313 374.848C2311.53 373.12 2309.59 372.256 2307.19 372.256C2304.79 372.256 2302.86 373.12 2301.39 374.848C2299.91 376.544 2299.18 378.912 2299.18 381.952ZM2337.87 377.92C2337.87 376.128 2337.39 374.736 2336.43 373.744C2335.47 372.752 2334.03 372.256 2332.11 372.256C2330.35 372.256 2328.88 372.672 2327.69 373.504C2326.54 374.336 2325.71 375.504 2325.2 377.008L2322.17 376.192C2322.81 374.24 2324.01 372.64 2325.77 371.392C2327.53 370.144 2329.69 369.52 2332.25 369.52C2335.13 369.52 2337.34 370.256 2338.88 371.728C2340.41 373.168 2341.18 375.232 2341.18 377.92V394H2337.87V389.056C2337.01 390.72 2335.76 392.016 2334.13 392.944C2332.53 393.872 2330.77 394.336 2328.85 394.336C2326.67 394.336 2324.86 393.776 2323.42 392.656C2322.01 391.504 2321.31 389.936 2321.31 387.952C2321.31 385.552 2322.17 383.808 2323.9 382.72C2325.66 381.632 2328.09 380.96 2331.2 380.704C2333.31 380.544 2334.89 380.304 2335.95 379.984C2337.04 379.664 2337.68 379.12 2337.87 378.352V377.92ZM2324.81 387.568C2324.81 389.008 2325.31 390.08 2326.3 390.784C2327.33 391.456 2328.59 391.792 2330.09 391.792C2332.08 391.792 2333.82 391.136 2335.33 389.824C2336.83 388.512 2337.68 386.72 2337.87 384.448V380.944C2336.88 382.064 2334.96 382.752 2332.11 383.008C2329.61 383.232 2327.77 383.648 2326.59 384.256C2325.41 384.864 2324.81 385.968 2324.81 387.568ZM2347.14 369.856H2350.45V376.384C2351.15 374.272 2352.18 372.608 2353.52 371.392C2354.87 370.144 2356.48 369.52 2358.37 369.52H2358.47V372.976C2356.03 372.976 2354.08 373.792 2352.61 375.424C2351.17 377.024 2350.45 379.376 2350.45 382.48V394H2347.14V369.856ZM2378.66 388.288C2377.86 390.176 2376.71 391.664 2375.21 392.752C2373.7 393.808 2371.91 394.336 2369.83 394.336C2367.88 394.336 2366.14 393.84 2364.6 392.848C2363.06 391.824 2361.86 390.368 2361 388.48C2360.17 386.592 2359.75 384.4 2359.75 381.904C2359.75 379.44 2360.2 377.264 2361.1 375.376C2362.02 373.488 2363.26 372.048 2364.79 371.056C2366.33 370.032 2368.01 369.52 2369.83 369.52C2371.88 369.52 2373.66 370.064 2375.16 371.152C2376.7 372.208 2377.86 373.696 2378.66 375.616V360.4H2381.98V394H2378.66V388.288ZM2363.21 381.904C2363.21 384.88 2363.9 387.248 2365.27 389.008C2366.65 390.768 2368.46 391.648 2370.7 391.648C2372.2 391.648 2373.56 391.232 2374.78 390.4C2375.99 389.568 2376.94 388.432 2377.61 386.992C2378.28 385.52 2378.62 383.856 2378.62 382C2378.62 380.144 2378.26 378.48 2377.56 377.008C2376.86 375.504 2375.9 374.336 2374.68 373.504C2373.5 372.64 2372.2 372.208 2370.79 372.208C2369.32 372.208 2368.01 372.608 2366.86 373.408C2365.7 374.208 2364.81 375.344 2364.17 376.816C2363.53 378.256 2363.21 379.952 2363.21 381.904Z" fill="black"/>
<path d="M788.76 366.56C783.373 366.56 778.653 365.36 774.6 362.96C770.6 360.56 767.507 357.2 765.32 352.88C763.187 348.56 762.12 343.6 762.12 338C762.12 332.453 763.213 327.52 765.4 323.2C767.587 318.827 770.653 315.44 774.6 313.04C778.6 310.64 783.16 309.44 788.28 309.44C794.147 309.44 799.133 311.093 803.24 314.4C807.347 317.707 810.093 322.16 811.48 327.76L805.96 329.12C804.84 324.64 802.707 321.067 799.56 318.4C796.413 315.733 792.627 314.4 788.2 314.4C784.2 314.4 780.68 315.387 777.64 317.36C774.6 319.28 772.227 322.027 770.52 325.6C768.867 329.12 768.04 333.2 768.04 337.84C768.04 342.48 768.867 346.613 770.52 350.24C772.227 353.813 774.627 356.613 777.72 358.64C780.867 360.613 784.547 361.6 788.76 361.6C793.133 361.6 796.867 360.32 799.96 357.76C803.053 355.2 805.16 351.653 806.28 347.12L811.64 348.56C810.253 353.947 807.507 358.293 803.4 361.6C799.347 364.907 794.467 366.56 788.76 366.56ZM819.128 310H824.568V336.16C826.114 332.907 828.248 330.267 830.968 328.24C833.688 326.213 836.781 325.2 840.248 325.2C843.768 325.2 846.488 326.373 848.408 328.72C850.328 331.013 851.288 334.427 851.288 338.96V366H845.768V339.6C845.768 333.093 843.154 329.84 837.928 329.84C835.634 329.84 833.528 330.533 831.608 331.92C829.741 333.253 828.194 335.013 826.968 337.2C825.741 339.387 824.941 341.733 824.568 344.24V366H819.128V310ZM877.786 366.56C874.106 366.56 870.799 365.733 867.866 364.08C864.986 362.373 862.719 359.973 861.066 356.88C859.412 353.733 858.586 350.08 858.586 345.92C858.586 342.027 859.359 338.507 860.906 335.36C862.452 332.213 864.666 329.733 867.546 327.92C870.426 326.107 873.732 325.2 877.466 325.2C880.932 325.2 883.999 326 886.666 327.6C889.332 329.147 891.386 331.28 892.826 334C894.266 336.72 894.986 339.76 894.986 343.12C894.986 344.187 894.906 345.2 894.746 346.16H864.266C864.319 349.52 864.959 352.4 866.186 354.8C867.412 357.2 869.039 359.04 871.066 360.32C873.146 361.547 875.466 362.16 878.026 362.16C883.732 362.16 887.732 359.147 890.026 353.12L894.986 354.4C893.919 357.867 891.919 360.773 888.986 363.12C886.106 365.413 882.372 366.56 877.786 366.56ZM889.466 341.92C889.252 338.4 888.052 335.493 885.866 333.2C883.679 330.853 880.852 329.68 877.386 329.68C873.972 329.68 871.119 330.8 868.826 333.04C866.586 335.227 865.172 338.187 864.586 341.92H889.466ZM919.51 366.56C915.937 366.56 912.657 365.733 909.67 364.08C906.737 362.373 904.39 359.973 902.63 356.88C900.923 353.733 900.07 350.053 900.07 345.84C900.07 341.627 900.897 337.973 902.55 334.88C904.203 331.733 906.47 329.333 909.35 327.68C912.283 326.027 915.563 325.2 919.19 325.2C923.457 325.2 927.083 326.373 930.07 328.72C933.11 331.067 935.11 334.16 936.07 338L930.71 339.52C929.91 336.427 928.497 334.027 926.47 332.32C924.443 330.613 921.937 329.76 918.95 329.76C916.443 329.76 914.203 330.427 912.23 331.76C910.257 333.04 908.71 334.907 907.59 337.36C906.47 339.76 905.91 342.56 905.91 345.76C905.91 349.173 906.523 352.107 907.75 354.56C909.03 357.013 910.71 358.88 912.79 360.16C914.87 361.387 917.163 362 919.67 362C922.603 362 925.057 361.12 927.03 359.36C929.057 357.547 930.523 355.173 931.43 352.24L936.63 353.6C935.457 357.44 933.403 360.56 930.47 362.96C927.537 365.36 923.883 366.56 919.51 366.56ZM943.112 310H948.552V345.04L968.152 325.76H974.792L956.392 343.84L974.792 366H968.552L952.952 347.2L948.552 351.52V366H943.112V310ZM996.211 340.08V344.48H973.171V340.08H996.211ZM1003.11 325.76H1008.63V366H1003.11V325.76ZM1002.95 312.4H1008.87V320H1002.95V312.4ZM1019.36 325.76H1024.88V336C1026.43 332.8 1028.53 330.213 1031.2 328.24C1033.92 326.213 1037.01 325.2 1040.48 325.2C1044 325.2 1046.72 326.373 1048.64 328.72C1050.56 331.013 1051.52 334.427 1051.52 338.96V366H1046V339.6C1046 333.093 1043.39 329.84 1038.16 329.84C1034.85 329.84 1031.97 331.227 1029.52 334C1027.12 336.72 1025.57 339.973 1024.88 343.76V366H1019.36V325.76Z" fill="#262424"/>
<path d="M1426.08 269H1444.16C1450.08 269 1454.75 270.44 1458.16 273.32C1461.57 276.2 1463.28 280.227 1463.28 285.4C1463.28 289.453 1462.11 292.84 1459.76 295.56C1457.41 298.28 1454.61 300.04 1451.36 300.84L1465.04 325H1458.8L1446.16 302.28H1431.84V325H1426.08V269ZM1444.8 297.56C1448.53 297.56 1451.55 296.52 1453.84 294.44C1456.19 292.307 1457.36 289.373 1457.36 285.64C1457.36 281.8 1456.08 278.867 1453.52 276.84C1451.01 274.76 1447.49 273.72 1442.96 273.72H1431.84V297.56H1444.8ZM1487.54 325.56C1483.86 325.56 1480.55 324.733 1477.62 323.08C1474.74 321.373 1472.47 318.973 1470.82 315.88C1469.16 312.733 1468.34 309.08 1468.34 304.92C1468.34 301.027 1469.11 297.507 1470.66 294.36C1472.2 291.213 1474.42 288.733 1477.3 286.92C1480.18 285.107 1483.48 284.2 1487.22 284.2C1490.68 284.2 1493.75 285 1496.42 286.6C1499.08 288.147 1501.14 290.28 1502.58 293C1504.02 295.72 1504.74 298.76 1504.74 302.12C1504.74 303.187 1504.66 304.2 1504.5 305.16H1474.02C1474.07 308.52 1474.71 311.4 1475.94 313.8C1477.16 316.2 1478.79 318.04 1480.82 319.32C1482.9 320.547 1485.22 321.16 1487.78 321.16C1493.48 321.16 1497.48 318.147 1499.78 312.12L1504.74 313.4C1503.67 316.867 1501.67 319.773 1498.74 322.12C1495.86 324.413 1492.12 325.56 1487.54 325.56ZM1499.22 300.92C1499 297.4 1497.8 294.493 1495.62 292.2C1493.43 289.853 1490.6 288.68 1487.14 288.68C1483.72 288.68 1480.87 289.8 1478.58 292.04C1476.34 294.227 1474.92 297.187 1474.34 300.92H1499.22ZM1512.63 284.76H1518.15V294.04C1519.48 290.947 1521.4 288.547 1523.91 286.84C1526.41 285.08 1529.37 284.2 1532.79 284.2C1536.04 284.2 1538.95 285.053 1541.51 286.76C1544.07 288.413 1546.04 290.813 1547.43 293.96C1548.87 297.107 1549.59 300.76 1549.59 304.92C1549.59 309.027 1548.81 312.653 1547.27 315.8C1545.77 318.947 1543.72 321.373 1541.11 323.08C1538.55 324.787 1535.75 325.64 1532.71 325.64C1529.35 325.587 1526.41 324.707 1523.91 323C1521.4 321.293 1519.48 318.893 1518.15 315.8V341H1512.63V284.76ZM1518.15 306.68C1518.36 309.453 1519.08 311.933 1520.31 314.12C1521.53 316.307 1523.08 318.013 1524.95 319.24C1526.87 320.467 1528.92 321.08 1531.11 321.08C1533.56 321.08 1535.75 320.44 1537.67 319.16C1539.59 317.827 1541.08 315.933 1542.15 313.48C1543.27 311.027 1543.83 308.173 1543.83 304.92C1543.83 299.96 1542.68 296.013 1540.39 293.08C1538.09 290.147 1535.08 288.68 1531.35 288.68C1527.77 288.68 1524.76 290.013 1522.31 292.68C1519.91 295.347 1518.52 298.787 1518.15 303V306.68ZM1574.02 325.48C1570.39 325.48 1567.11 324.653 1564.18 323C1561.3 321.293 1559.01 318.893 1557.3 315.8C1555.65 312.653 1554.82 309.027 1554.82 304.92C1554.82 300.813 1555.65 297.187 1557.3 294.04C1559.01 290.893 1561.33 288.467 1564.26 286.76C1567.19 285.053 1570.45 284.2 1574.02 284.2C1577.59 284.2 1580.82 285.053 1583.7 286.76C1586.63 288.467 1588.93 290.893 1590.58 294.04C1592.29 297.187 1593.14 300.813 1593.14 304.92C1593.14 309.027 1592.29 312.653 1590.58 315.8C1588.93 318.893 1586.63 321.293 1583.7 323C1580.82 324.653 1577.59 325.48 1574.02 325.48ZM1560.66 304.92C1560.66 309.933 1561.89 313.88 1564.34 316.76C1566.85 319.587 1570.07 321 1574.02 321C1577.97 321 1581.17 319.587 1583.62 316.76C1586.13 313.88 1587.38 309.933 1587.38 304.92C1587.38 299.853 1586.15 295.907 1583.7 293.08C1581.25 290.2 1578.02 288.76 1574.02 288.76C1570.02 288.76 1566.79 290.2 1564.34 293.08C1561.89 295.907 1560.66 299.853 1560.66 304.92ZM1600.83 284.76H1606.35V295.64C1607.52 292.12 1609.23 289.347 1611.47 287.32C1613.71 285.24 1616.4 284.2 1619.55 284.2H1619.71V289.96C1615.66 289.96 1612.4 291.32 1609.95 294.04C1607.55 296.707 1606.35 300.627 1606.35 305.8V325H1600.83V284.76ZM1637.89 325C1634.58 325 1632 324.093 1630.13 322.28C1628.26 320.413 1627.33 317.827 1627.33 314.52V289.32H1622.37V284.76H1627.33V276.44L1632.85 273.64V284.76H1642.69V289.32H1632.85V314.28C1632.85 316.147 1633.33 317.64 1634.29 318.76C1635.25 319.827 1636.58 320.36 1638.29 320.36H1642.69V325H1637.89Z" fill="#262424"/>
<path d="M1967.08 186H1999.72V190.72H1972.84V212.16H1995.4V216.88H1972.84V242H1967.08V186ZM2034.53 242.08H2029.01V231.68C2027.46 234.933 2025.33 237.573 2022.61 239.6C2019.94 241.573 2016.9 242.56 2013.49 242.56C2009.91 242.56 2007.14 241.413 2005.17 239.12C2003.25 236.827 2002.29 233.387 2002.29 228.8L2002.37 201.76H2007.89L2007.81 228.16C2007.81 234.667 2010.42 237.92 2015.65 237.92C2017.89 237.92 2019.94 237.28 2021.81 236C2023.67 234.667 2025.22 232.933 2026.45 230.8C2027.73 228.667 2028.58 226.4 2029.01 224V201.76H2034.53V242.08ZM2045.27 201.76H2050.79V212.64C2051.96 209.12 2053.67 206.347 2055.91 204.32C2058.15 202.24 2060.84 201.2 2063.99 201.2H2064.15V206.96C2060.09 206.96 2056.84 208.32 2054.39 211.04C2051.99 213.707 2050.79 217.627 2050.79 222.8V242H2045.27V201.76ZM2082.33 242C2079.02 242 2076.43 241.093 2074.57 239.28C2072.7 237.413 2071.77 234.827 2071.77 231.52V206.32H2066.81V201.76H2071.77V193.44L2077.29 190.64V201.76H2087.13V206.32H2077.29V231.28C2077.29 233.147 2077.77 234.64 2078.73 235.76C2079.69 236.827 2081.02 237.36 2082.73 237.36H2087.13V242H2082.33ZM2093.63 186H2099.07V212.16C2100.61 208.907 2102.75 206.267 2105.47 204.24C2108.19 202.213 2111.28 201.2 2114.75 201.2C2118.27 201.2 2120.99 202.373 2122.91 204.72C2124.83 207.013 2125.79 210.427 2125.79 214.96V242H2120.27V215.6C2120.27 209.093 2117.65 205.84 2112.43 205.84C2110.13 205.84 2108.03 206.533 2106.11 207.92C2104.24 209.253 2102.69 211.013 2101.47 213.2C2100.24 215.387 2099.44 217.733 2099.07 220.24V242H2093.63V186ZM2152.29 242.56C2148.61 242.56 2145.3 241.733 2142.37 240.08C2139.49 238.373 2137.22 235.973 2135.57 232.88C2133.91 229.733 2133.09 226.08 2133.09 221.92C2133.09 218.027 2133.86 214.507 2135.41 211.36C2136.95 208.213 2139.17 205.733 2142.05 203.92C2144.93 202.107 2148.23 201.2 2151.97 201.2C2155.43 201.2 2158.5 202 2161.17 203.6C2163.83 205.147 2165.89 207.28 2167.33 210C2168.77 212.72 2169.49 215.76 2169.49 219.12C2169.49 220.187 2169.41 221.2 2169.25 222.16H2138.77C2138.82 225.52 2139.46 228.4 2140.69 230.8C2141.91 233.2 2143.54 235.04 2145.57 236.32C2147.65 237.547 2149.97 238.16 2152.53 238.16C2158.23 238.16 2162.23 235.147 2164.53 229.12L2169.49 230.4C2168.42 233.867 2166.42 236.773 2163.49 239.12C2160.61 241.413 2156.87 242.56 2152.29 242.56ZM2163.97 217.92C2163.75 214.4 2162.55 211.493 2160.37 209.2C2158.18 206.853 2155.35 205.68 2151.89 205.68C2148.47 205.68 2145.62 206.8 2143.33 209.04C2141.09 211.227 2139.67 214.187 2139.09 217.92H2163.97ZM2177.38 201.76H2182.9V212.64C2184.07 209.12 2185.78 206.347 2188.02 204.32C2190.26 202.24 2192.95 201.2 2196.1 201.2H2196.26V206.96C2192.2 206.96 2188.95 208.32 2186.5 211.04C2184.1 213.707 2182.9 217.627 2182.9 222.8V242H2177.38V201.76ZM1990.68 303.2C1990.68 300.213 1989.88 297.893 1988.28 296.24C1986.68 294.587 1984.28 293.76 1981.08 293.76C1978.15 293.76 1975.69 294.453 1973.72 295.84C1971.8 297.227 1970.41 299.173 1969.56 301.68L1964.52 300.32C1965.59 297.067 1967.59 294.4 1970.52 292.32C1973.45 290.24 1977.05 289.2 1981.32 289.2C1986.12 289.2 1989.8 290.427 1992.36 292.88C1994.92 295.28 1996.2 298.72 1996.2 303.2V330H1990.68V321.76C1989.24 324.533 1987.16 326.693 1984.44 328.24C1981.77 329.787 1978.84 330.56 1975.64 330.56C1972.01 330.56 1969 329.627 1966.6 327.76C1964.25 325.84 1963.08 323.227 1963.08 319.92C1963.08 315.92 1964.52 313.013 1967.4 311.2C1970.33 309.387 1974.39 308.267 1979.56 307.84C1983.08 307.573 1985.72 307.173 1987.48 306.64C1989.29 306.107 1990.36 305.2 1990.68 303.92V303.2ZM1968.92 319.28C1968.92 321.68 1969.75 323.467 1971.4 324.64C1973.11 325.76 1975.21 326.32 1977.72 326.32C1981.03 326.32 1983.93 325.227 1986.44 323.04C1988.95 320.853 1990.36 317.867 1990.68 314.08V308.24C1989.03 310.107 1985.83 311.253 1981.08 311.68C1976.92 312.053 1973.85 312.747 1971.88 313.76C1969.91 314.773 1968.92 316.613 1968.92 319.28ZM2022.76 330.56C2019.19 330.56 2015.91 329.733 2012.92 328.08C2009.99 326.373 2007.64 323.973 2005.88 320.88C2004.17 317.733 2003.32 314.053 2003.32 309.84C2003.32 305.627 2004.15 301.973 2005.8 298.88C2007.45 295.733 2009.72 293.333 2012.6 291.68C2015.53 290.027 2018.81 289.2 2022.44 289.2C2026.71 289.2 2030.33 290.373 2033.32 292.72C2036.36 295.067 2038.36 298.16 2039.32 302L2033.96 303.52C2033.16 300.427 2031.75 298.027 2029.72 296.32C2027.69 294.613 2025.19 293.76 2022.2 293.76C2019.69 293.76 2017.45 294.427 2015.48 295.76C2013.51 297.04 2011.96 298.907 2010.84 301.36C2009.72 303.76 2009.16 306.56 2009.16 309.76C2009.16 313.173 2009.77 316.107 2011 318.56C2012.28 321.013 2013.96 322.88 2016.04 324.16C2018.12 325.387 2020.41 326 2022.92 326C2025.85 326 2028.31 325.12 2030.28 323.36C2032.31 321.547 2033.77 319.173 2034.68 316.24L2039.88 317.6C2038.71 321.44 2036.65 324.56 2033.72 326.96C2030.79 329.36 2027.13 330.56 2022.76 330.56ZM2057.87 330C2054.57 330 2051.98 329.093 2050.11 327.28C2048.25 325.413 2047.31 322.827 2047.31 319.52V294.32H2042.35V289.76H2047.31V281.44L2052.83 278.64V289.76H2062.67V294.32H2052.83V319.28C2052.83 321.147 2053.31 322.64 2054.27 323.76C2055.23 324.827 2056.57 325.36 2058.27 325.36H2062.67V330H2057.87ZM2069.09 289.76H2074.61V330H2069.09V289.76ZM2068.93 276.4H2074.85V284H2068.93V276.4ZM2101.43 330.48C2097.8 330.48 2094.52 329.653 2091.59 328C2088.71 326.293 2086.41 323.893 2084.71 320.8C2083.05 317.653 2082.23 314.027 2082.23 309.92C2082.23 305.813 2083.05 302.187 2084.71 299.04C2086.41 295.893 2088.73 293.467 2091.67 291.76C2094.6 290.053 2097.85 289.2 2101.43 289.2C2105 289.2 2108.23 290.053 2111.11 291.76C2114.04 293.467 2116.33 295.893 2117.99 299.04C2119.69 302.187 2120.55 305.813 2120.55 309.92C2120.55 314.027 2119.69 317.653 2117.99 320.8C2116.33 323.893 2114.04 326.293 2111.11 328C2108.23 329.653 2105 330.48 2101.43 330.48ZM2088.07 309.92C2088.07 314.933 2089.29 318.88 2091.75 321.76C2094.25 324.587 2097.48 326 2101.43 326C2105.37 326 2108.57 324.587 2111.03 321.76C2113.53 318.88 2114.79 314.933 2114.79 309.92C2114.79 304.853 2113.56 300.907 2111.11 298.08C2108.65 295.2 2105.43 293.76 2101.43 293.76C2097.43 293.76 2094.2 295.2 2091.75 298.08C2089.29 300.907 2088.07 304.853 2088.07 309.92ZM2128.31 289.76H2133.83V300C2135.38 296.8 2137.49 294.213 2140.15 292.24C2142.87 290.213 2145.97 289.2 2149.43 289.2C2152.95 289.2 2155.67 290.373 2157.59 292.72C2159.51 295.013 2160.47 298.427 2160.47 302.96V330H2154.95V303.6C2154.95 297.093 2152.34 293.84 2147.11 293.84C2143.81 293.84 2140.93 295.227 2138.47 298C2136.07 300.72 2134.53 303.973 2133.83 307.76V330H2128.31V289.76ZM2184.65 330.56C2179.9 330.56 2176.06 329.467 2173.13 327.28C2170.2 325.04 2168.22 322.187 2167.21 318.72L2172.33 317.44C2174.36 323.307 2178.49 326.24 2184.73 326.24C2187.77 326.24 2190.12 325.6 2191.77 324.32C2193.42 323.04 2194.25 321.28 2194.25 319.04C2194.25 317.12 2193.58 315.653 2192.25 314.64C2190.97 313.627 2188.94 312.747 2186.17 312L2179.77 310.4C2176.09 309.493 2173.32 308.293 2171.45 306.8C2169.64 305.307 2168.73 303.147 2168.73 300.32C2168.73 296.96 2170.01 294.267 2172.57 292.24C2175.18 290.213 2178.6 289.2 2182.81 289.2C2187.02 289.2 2190.52 290.16 2193.29 292.08C2196.06 293.947 2197.96 296.507 2198.97 299.76L2193.85 301.04C2193.05 298.693 2191.72 296.853 2189.85 295.52C2187.98 294.187 2185.61 293.52 2182.73 293.52C2180.06 293.52 2177.9 294.107 2176.25 295.28C2174.65 296.4 2173.85 297.973 2173.85 300C2173.85 301.76 2174.46 303.12 2175.69 304.08C2176.92 304.987 2178.68 305.733 2180.97 306.32L2188.09 308C2191.88 308.907 2194.7 310.213 2196.57 311.92C2198.44 313.573 2199.37 315.867 2199.37 318.8C2199.37 322.373 2198.06 325.227 2195.45 327.36C2192.89 329.493 2189.29 330.56 2184.65 330.56Z" fill="black"/>
</svg>
