<svg width="2556" height="694" viewBox="0 0 2556 694" fill="none" xmlns="http://www.w3.org/2000/svg">
<path d="M2311.85 228.948C2319.82 232.131 2327.61 235.911 2335.8 238.343C2345.74 241.307 2354.73 246.401 2364.43 249.841C2366.63 250.619 2368.79 251.53 2371.08 252.154C2374.45 253.069 2377.46 252.608 2379.01 248.953C2379.82 246.977 2381.27 245.586 2383.16 246.456C2383.68 246.648 2384.15 246.951 2384.53 247.346C2384.92 247.741 2385.21 248.216 2385.39 248.738C2385.57 249.261 2385.64 249.816 2385.58 250.366C2385.51 250.915 2385.33 251.444 2385.04 251.914C2383.21 255.183 2384.95 256.398 2387.65 257.405C2391.81 258.967 2395.56 261.026 2400.1 257.285C2403.55 254.462 2408.58 257.949 2408.39 262.525C2408.23 265.98 2408.93 269.421 2410.42 272.542C2411.88 275.746 2413.55 275.722 2416.05 275.173C2421.61 273.968 2426.71 271.187 2430.73 267.163C2432.88 265.061 2435.44 263.422 2438.24 262.346C2441.05 261.271 2444.05 260.783 2447.05 260.911C2448.82 260.93 2450.73 261.334 2451.3 262.923C2451.99 264.932 2449.74 266.122 2448.51 266.381C2437.8 268.783 2432.65 278.871 2423.81 283.924C2414.97 288.977 2406.92 295.156 2398.37 300.657C2392.34 304.534 2386.16 308.089 2380.03 311.8C2379.32 312.237 2378.52 312.519 2377.69 312.628C2376.86 312.736 2376.02 312.669 2375.22 312.43C2373.71 312.029 2372.31 311.436 2371.94 309.738C2371.56 308.039 2372.62 307.278 2373.73 306.418C2377.87 303.046 2382.09 299.816 2387.31 298.277C2388.58 297.864 2389.82 297.373 2391.02 296.807C2391.95 296.386 2392.9 295.795 2392.63 294.594C2392.33 293.231 2391.16 293.636 2390.19 293.626C2388.7 293.742 2387.2 293.671 2385.73 293.413C2383.8 292.883 2380.8 293.048 2381.3 289.869C2381.37 289.28 2381.56 288.712 2381.87 288.2C2382.17 287.688 2382.57 287.243 2383.05 286.893C2383.53 286.543 2384.07 286.294 2384.65 286.163C2385.23 286.031 2385.83 286.02 2386.42 286.129C2392.52 286.746 2397.77 284.207 2403.04 281.774C2404.01 281.33 2405.56 281.095 2405.44 279.62C2405.34 278.346 2404.11 277.668 2403.05 277.301C2397.48 275.321 2391.92 273.691 2386.21 277.049C2383.93 278.431 2381.51 279.555 2378.98 280.4C2376.67 281.105 2374.57 282.345 2372.83 284.02C2371.1 285.694 2369.79 287.756 2369 290.035C2368.58 291.138 2367.84 292.003 2368.82 293.196C2370.51 295.229 2370.19 297.28 2368.32 298.951C2366.29 300.781 2363.96 300.403 2361.84 299.1C2359.58 297.703 2357.48 296.036 2355.26 294.567C2349.04 290.423 2341.89 289.145 2334.67 287.562C2321.82 284.756 2308.91 282.181 2296.15 278.995C2278.51 274.432 2261.31 268.268 2244.79 260.579C2240.56 258.552 2236.79 255.679 2233.72 252.139C2230.94 249.072 2231.22 246.561 2234.91 244.502C2242.68 240.145 2251.18 237.773 2259.6 235.139C2268.02 232.504 2276.52 230.482 2284.16 225.717C2287.76 223.473 2292.24 222.693 2296.32 221.258C2298.62 220.506 2300.71 219.187 2302.37 217.421C2304.04 215.655 2305.23 213.499 2305.85 211.15C2309.63 198.613 2314.26 186.349 2319.72 174.446C2321.64 170.242 2324.57 166.507 2326.63 162.356C2332.89 149.866 2338.87 137.243 2345.13 124.753C2347.39 120.208 2346.05 114.372 2350.47 110.593C2351.38 109.777 2350.3 108.799 2349.62 108.065C2348.71 107.074 2347.66 106.03 2348.53 104.569C2349.4 103.109 2350.89 102.807 2352.45 102.882C2353.29 102.902 2354.12 103.022 2354.92 103.24C2369.95 107.608 2385.52 107.659 2400.9 109.083C2423.99 111.213 2446.6 117.008 2467.87 126.251C2472.99 128.578 2477.93 131.295 2482.64 134.38C2484.77 135.727 2486.48 137.637 2487.59 139.898C2488.69 142.159 2489.15 144.683 2488.91 147.188C2488.28 157.697 2483.85 167.029 2480.15 176.611C2474.51 191.254 2465.49 204.181 2458.95 218.298C2453.79 229.418 2446.92 239.703 2442.42 251.151C2440.85 255.149 2437.73 255.852 2434.31 253.696C2430.9 251.539 2431.31 248.481 2433.51 245.532C2442.23 233.891 2448.45 220.943 2454.76 207.89C2460.5 195.938 2467.18 184.453 2472.02 172.045C2474.95 164.603 2477.22 156.921 2478.81 149.085C2479.81 144.08 2477.15 140.897 2473.05 138.51C2460.16 131.165 2446.72 125 2432.24 121.629C2420.88 118.97 2409.34 117.175 2397.72 116.259C2385.12 115.297 2372.48 114.93 2359.96 113.102C2357.04 112.684 2355.64 113.537 2355.07 116.465C2352.08 132.033 2344.49 145.834 2337.53 159.74C2333.54 167.725 2329.87 176.02 2325.04 183.38C2320.21 190.739 2320.57 199.795 2315.97 207.267C2312.47 212.935 2314.8 217.458 2320.8 220.543C2326.23 223.342 2332.1 224.499 2338.05 225.295C2360.23 228.275 2381.83 233.666 2403.13 240.395C2407.56 241.897 2412.13 242.957 2416.77 243.559C2418.92 243.806 2421.04 244.278 2423.1 244.965C2425.46 245.749 2427.38 247.211 2426.78 250.091C2426.59 251.187 2425.97 252.164 2425.07 252.819C2424.17 253.475 2423.05 253.757 2421.94 253.608C2415.65 253.04 2409.37 252.22 2403.12 251.293C2400.67 250.93 2399.84 248.007 2397.71 247.06C2394.17 245.593 2390.51 244.432 2386.77 243.589C2367.43 238.627 2347.84 234.662 2328.1 231.711C2325.47 231.301 2322.9 230.571 2320.45 229.536C2317.81 228.545 2315.23 227.238 2311.85 228.948ZM2290.75 269.6C2292.82 270.164 2295.65 270.594 2296.62 268.028C2297.84 264.839 2294.2 265.177 2292.6 264.251C2287.17 261.113 2281.51 258.228 2276.15 254.921C2273.05 253.023 2269.51 251.031 2267.66 248.127C2261.69 238.735 2261.1 242.078 2252.44 244.381C2251.05 244.926 2249.69 245.557 2248.37 246.27C2246.9 246.872 2244.78 246.77 2244.73 248.988C2244.71 250.788 2246.6 251.125 2247.75 251.988C2260.48 261.542 2276.58 262.843 2290.76 269.602L2290.75 269.6ZM2304.49 261.015C2308.41 261.831 2316.23 258.605 2315.97 256.492C2315.49 252.274 2311.11 252.912 2308.43 251.427C2308.27 251.375 2308.11 251.337 2307.94 251.314C2296.29 248.426 2284.84 245.203 2274.22 239.465C2273.08 238.851 2271.57 237.824 2270.73 239.241C2270.02 240.473 2271.42 241.742 2272.45 242.452C2275.3 244.439 2278.37 246.126 2281.24 248.105C2288.75 253.287 2297.45 256.404 2304.5 261.017L2304.49 261.015ZM2299.48 233.612C2295.76 232.627 2292.04 231.64 2288.18 232.746C2286.6 233.2 2284.5 233.534 2284.6 235.58C2284.69 237.439 2286.85 237.191 2288.22 237.653C2299.37 241.451 2311.11 243.405 2321.84 248.533C2323.77 249.588 2326.03 249.87 2328.16 249.32C2329.53 248.909 2330.67 248.22 2330.74 246.676C2330.81 245.132 2329.5 244.919 2328.44 244.437C2319.08 240.091 2309.39 236.472 2299.48 233.612ZM2329.19 273.213C2335.74 273.839 2340.86 270.397 2346.05 267.206C2346.99 266.625 2348.43 266.169 2348.25 264.792C2348.07 263.415 2346.68 262.713 2345.4 262.334C2336.1 259.642 2326.96 258.231 2318.24 264.378C2315.44 266.357 2315.61 267.414 2318.57 268.654C2322.06 270.12 2325.55 271.65 2329.17 273.206L2329.19 273.213ZM2345.32 277.315C2355.8 282.269 2366.01 280.841 2374.6 273.678C2377.59 271.189 2375.5 269.83 2373.35 269.219C2368.69 267.891 2363.86 267.224 2359.3 269.584C2354.74 271.944 2350.33 274.513 2345.3 277.308L2345.32 277.315ZM2357.39 256.287C2353.65 253.536 2349.22 251.885 2344.59 251.522C2343.88 251.459 2342.68 251.785 2342.45 252.277C2341.96 253.374 2342.93 254.153 2343.87 254.465C2348.21 255.962 2352.81 256.582 2357.39 256.287Z" fill="#262424"/>
<path d="M191.853 435.607C169.521 440.12 149.323 447.459 128.691 453.229C112.864 457.798 96.6542 460.914 80.2617 462.536C75.607 462.979 71.1295 464.546 67.2149 467.103C64.0534 469.12 63.0291 471.855 64.3804 475.219C66.0391 479.393 67.8967 483.483 69.7164 487.59C80.6778 512.365 92.0223 536.965 103.75 561.39C107.927 570.092 111.736 578.895 118.17 586.359C119.13 587.412 119.86 588.653 120.313 590.004C120.767 591.354 120.935 592.784 120.805 594.203C120.568 596.371 119.781 598.094 117.483 598.599C115.408 599.046 114.665 597.507 113.642 596.116C107.862 588.259 105.069 578.921 100.884 570.292C90.3303 548.49 80.1097 526.538 70.2223 504.436C66.9 497.032 64.0874 489.339 61.112 481.765C58.1366 474.191 53.1916 467.27 49.0835 460.077C48.8517 459.66 48.2862 459.43 48.0528 459.002C46.8182 456.826 43.7374 454.216 46.5273 452.16C49.6477 449.835 51.4132 453.191 52.8155 455.704C55.2534 460.053 58.2224 461.687 63.429 459.532C73.5199 455.357 84.3193 454.094 95.1598 453.504C109.816 452.694 123.468 447.621 137.343 443.586C156.68 437.951 175.959 431.97 195.487 427.176C203.708 425.167 207.68 427.039 212.288 434.068C221.979 448.846 228.944 464.97 236.319 480.935C240.695 490.344 246.701 499.075 251.997 508.098C255.194 513.536 258.681 518.825 261.58 524.424C265.514 532.031 272.506 532.316 279.566 532.579C298.997 533.295 318.433 534.213 337.87 534.471C346.254 534.595 354.495 534.894 362.547 537.344C364.566 537.961 367.251 538.132 367.747 540.624C368.244 543.116 366.225 544.933 364.393 546.353C362.297 547.949 359.453 548.768 357.461 546.849C353.2 542.754 348.08 542.33 342.698 542.213C332.584 541.992 322.464 541.002 312.35 542.607C311.684 542.662 311.024 542.772 310.377 542.935C307.551 543.863 303.536 544.471 303.232 547.512C302.908 550.8 307.242 550.524 309.548 551.833C314.654 554.733 319.208 552.494 323.862 550.735C325.569 550.086 327.18 549.168 328.923 548.675C330.507 548.208 332.266 547.935 333.61 549.364C334.953 550.793 334.43 552.401 333.341 553.839C332.995 554.201 332.766 554.66 332.688 555.155C332.609 555.65 332.683 556.158 332.901 556.609C333.946 558.686 343.388 562.475 345.788 561.731L359.101 557.484C360.691 556.986 362.327 556.4 363.994 556.913C366.29 557.615 368.626 558.675 368.508 561.493C368.407 563.993 366.305 565.185 364.126 565.619C361.182 566.201 358.167 566.359 355.257 566.844C350.324 567.672 345.664 569.68 341.674 572.696C332.371 579.589 321.729 583.866 310.818 587.499C298.984 591.485 287.493 596.424 276.458 602.268C271.237 605.003 265.644 606.543 260.225 608.643C259.102 609.083 257.669 609.423 256.935 608.43C252.199 601.971 245.681 603.493 239.537 604.77C230.377 606.682 221.723 603.968 212.923 602.626C197.058 600.201 182.317 593.989 167.202 589.006C159.009 586.316 150.157 586.676 141.862 584.226C140.913 583.948 139.633 584.658 138.534 585.003C136.622 585.637 134.554 585.626 132.649 584.97C130.334 584.16 129.358 582.254 129.241 579.912C129.124 577.569 130.642 576.637 132.541 576.168C150.177 571.405 167.242 564.851 184.948 560.136C203.568 555.188 221.774 548.667 240.857 545.345C242.26 545.179 243.575 544.575 244.615 543.619C245.655 542.664 246.367 541.404 246.651 540.02C247.552 536.423 251.042 533.764 253.983 531.702C256.925 529.641 256.292 528.276 255.078 526.106C251.917 520.638 248.753 515.177 245.587 509.723C237.051 495.006 228.368 480.435 221.242 464.865C217.819 457.406 214.737 449.495 209.87 442.429C204.602 434.912 199.008 432.124 191.853 435.607ZM209.593 573.456C207.817 573.874 206.047 574.382 204.242 574.683C197.09 575.874 190.836 579.41 184.175 582.021C182.708 582.59 180.282 582.021 180.034 584.059C179.751 586.438 182.177 587.615 183.887 588.081C191.4 590.093 198.776 592.747 206.529 593.705C209.635 594.09 213.038 594.496 213.395 589.642C213.523 587.978 215.44 587.74 216.847 587.181C221.934 585.157 226.956 582.992 232.026 580.931C233.337 580.398 234.59 579.703 234.619 578.238C234.687 576.392 232.812 576.704 231.746 576.081C228.445 574.111 224.766 572.86 220.949 572.408C217.132 571.955 213.262 572.313 209.593 573.456ZM288.876 569.896C281.015 571.673 273.262 573.899 265.656 576.564C264.583 576.935 263.039 576.919 262.906 578.309C262.772 579.7 264.183 580.438 265.391 581.058C270.576 583.824 276.268 585.004 281.887 586.42C284.251 587.04 286.396 588.233 289.135 587.331C295.866 585.135 301.715 581.301 308.041 578.381C309.973 577.502 310.831 575.838 308.604 574.76C302.179 571.613 296.124 566.488 288.876 569.896ZM250.388 574.556C259.462 571.391 268.55 568.255 277.605 565.043C278.84 564.604 280.105 563.866 279.91 562.205C279.88 561.911 279.791 561.626 279.649 561.367C279.507 561.107 279.314 560.879 279.082 560.695C278.85 560.512 278.584 560.377 278.299 560.298C278.014 560.219 277.716 560.199 277.423 560.237C274.618 560.38 272.874 558.796 270.98 557.104C270.059 556.244 268.933 555.634 267.71 555.332C266.487 555.03 265.207 555.046 263.991 555.379C253.72 558.105 244.434 563.707 233.927 565.752C233.675 565.782 233.431 565.862 233.209 565.987C232.988 566.113 232.794 566.281 232.639 566.483C232.483 566.684 232.37 566.915 232.305 567.161C232.24 567.407 232.225 567.663 232.26 567.915C232.356 568.411 232.614 568.86 232.995 569.192C233.375 569.524 233.856 569.718 234.36 569.745C237.375 570.256 239.913 571.861 242.552 573.216C244.977 574.447 247.721 574.906 250.415 574.531L250.388 574.556ZM246.95 553.92C244.68 552.473 241.931 551.98 239.3 552.549C231.463 554.19 223.671 555.792 216.023 558.02C199.463 562.857 183.159 568.565 166.404 572.776C163.657 573.448 160.962 574.321 158.343 575.387C156.549 576.122 156.048 577.371 158.264 578.441C162.362 580.465 166.923 580.759 171.293 581.674C174.16 582.271 172.644 578.225 174.762 577.669C175.245 577.588 175.63 577.159 176.098 576.99C187.192 572.992 198.083 568.207 209.457 565.217C221.81 561.962 234.028 558.446 246.946 553.901L246.95 553.92ZM215.82 594.459C218.743 597.459 221.86 597.244 224.354 597.67C230.898 598.799 237.627 599.513 243.135 594.236C245.157 592.317 246.74 592.814 247.567 595.403C248.116 597.116 248.801 598.736 250.932 598.198C256.387 596.823 261.818 595.33 267.227 593.719C267.808 593.594 268.33 593.279 268.71 592.822C269.09 592.365 269.305 591.794 269.322 591.2C269.251 589.742 268.015 589.441 266.935 589.043C264.715 588.379 262.546 587.558 260.443 586.587C252.853 582.468 245.356 583.231 237.912 586.499C231.035 589.521 224.29 592.723 215.82 594.459ZM321.945 563.929C320.257 564.674 318.609 565.507 317.008 566.425C314.766 567.812 314.723 570.05 315.829 572.126C317.064 574.425 318.967 573.438 320.557 572.514C322.701 571.265 324.736 569.79 326.821 568.429C327.681 567.87 328.468 567.242 328.158 566.047C327.847 564.852 326.907 564.623 325.868 564.472L321.945 563.929ZM281.02 547.939C279.609 548.478 276.644 548.08 277.229 550.497C277.862 553.078 280.91 553.543 283.346 553.441C283.809 553.43 284.264 553.321 284.682 553.122C285.099 552.923 285.47 552.638 285.771 552.286C286.071 551.933 286.293 551.521 286.423 551.077C286.553 550.633 286.588 550.167 286.526 549.708C285.894 546.954 283.318 547.556 281.02 547.939ZM292.666 553.581C291.578 554.047 288.848 554.217 290.262 555.949C291.157 557.04 292.332 557.867 293.661 558.34C294.99 558.814 296.424 558.916 297.806 558.635C298.929 558.377 300.305 557.205 299.424 556.176C298.649 555.159 297.607 554.378 296.413 553.919C295.22 553.461 293.922 553.344 292.666 553.581Z" fill="#262424"/>
<path d="M1562.23 443.37C1562.23 441.37 1562.23 439.37 1562.23 437.37C1562.23 435.17 1562.69 433.24 1565.23 433C1567.77 432.76 1568.09 434.93 1568.69 436.59C1570.81 442.44 1569.77 448.46 1569.51 454.43C1569.02 465.57 1565.36 475.82 1561.27 486.1C1556.87 497.17 1553.6 508.69 1549.7 519.96C1544.87 533.96 1539.02 547.35 1531 559.96C1522.13 574.046 1511.36 586.846 1499 598C1488.12 607.948 1476.41 616.944 1464 624.89C1451.48 632.7 1438.75 639.89 1424.62 643.97C1402.96 650.16 1381.68 658.19 1359.02 660.25C1340.02 661.98 1321.02 664.39 1301.88 665.11C1286.58 665.601 1271.26 664.815 1256.09 662.76C1236.09 660.19 1215.99 659.48 1196.09 656.62C1175.85 653.72 1155.53 650.54 1135.94 644.62C1112.89 637.68 1089.06 633.09 1067 623.06C1055.36 617.77 1042.9 614.34 1032.1 607.06C1014.76 595.546 999.165 581.589 985.81 565.62C974.98 552.62 970.94 536.82 965.42 521.55C965.081 520.245 964.983 518.89 965.13 517.55C965.22 514.55 965.86 511.72 969.6 511.48C973.34 511.24 974.54 513.84 974.81 516.9C976.51 536.14 984.52 552.57 996.81 567.17C1003.01 574.317 1009.89 580.842 1017.36 586.65C1023.72 591.75 1029.86 597.15 1036.83 601.36C1049.42 608.97 1063.41 613.51 1076.9 619.16C1094.77 626.63 1113.68 630.92 1132.11 636.39C1154.64 643.044 1177.74 647.62 1201.11 650.06C1225.74 652.66 1250.4 654.94 1275.11 657.25C1291.93 658.83 1308.7 657.35 1325.44 655.82C1340.68 654.43 1355.99 653.45 1371.04 650.44C1386.91 647.27 1402.24 642.14 1417.61 637.19C1442.68 629.1 1464.61 615.69 1484.38 598.4C1496.52 587.77 1508.46 577 1518.03 563.85C1528.57 549.299 1536.7 533.15 1542.11 516.02C1545.93 504.16 1550.29 492.47 1554.52 480.75C1558.91 468.735 1561.51 456.14 1562.23 443.37Z" fill="#001DBB"/>
<path d="M1249.69 27.1379C1260.87 28.4979 1276.62 29.2479 1292.28 31.6379C1307.94 34.0279 1323.55 35.9479 1339.2 38.0979C1360.88 41.0979 1381.04 48.0979 1400.27 58.3979C1418.02 67.8579 1434.94 78.6779 1451.6 89.8479C1465.43 99.0562 1478.09 109.913 1489.3 122.178C1499.94 133.888 1510.13 145.898 1519.64 158.498C1524.44 164.848 1528.64 171.628 1533.15 178.218C1533.68 179.008 1533.74 180.308 1535.04 180.218C1535.63 180.146 1536.18 179.889 1536.61 179.484C1537.04 179.08 1537.33 178.549 1537.44 177.968C1538.37 175.118 1538.89 172.098 1540.12 169.388C1541.35 166.678 1542.77 163.698 1546.72 164.928C1550.67 166.158 1550.84 169.508 1549.63 172.248C1546.08 180.248 1543.83 188.508 1543.8 197.308C1543.8 197.618 1543.73 198.118 1543.52 198.238C1538.41 201.048 1535.88 206.978 1530.59 209.348C1525.96 211.428 1521.59 208.948 1518.02 206.348C1510.32 200.638 1500.42 197.178 1497.02 186.748C1496.35 184.698 1495.52 182.748 1497.52 181.398C1499.74 179.828 1501.52 181.528 1502.45 183.248C1507.09 191.888 1515.89 195.328 1523.45 200.328C1525.51 201.708 1527.62 201.568 1529.19 199.468C1531.19 196.808 1533.37 194.278 1530.82 190.548C1526.12 183.688 1521.64 176.668 1517.17 169.648C1510.49 159.148 1503.75 148.648 1495.37 139.438C1482.83 125.638 1469.9 112.188 1454.59 101.348C1444.98 94.5379 1435.35 87.728 1425.4 81.4179C1408.66 70.8456 1391.08 61.6647 1372.84 53.9679C1360.54 48.7479 1347.42 47.7279 1334.84 44.2579C1321.5 40.5779 1307.77 41.2579 1294.38 39.1179C1280.04 36.8579 1265.62 35.9179 1251.25 34.2979C1236.46 32.6279 1221.71 34.9179 1207.01 36.1479C1188.21 37.7279 1170.08 42.8879 1152.09 48.2279C1141.27 51.4279 1130.86 55.9579 1120.35 60.1479C1102.61 67.2279 1085.64 75.8479 1068.53 84.2879C1051.2 92.8279 1036.03 104.188 1021.33 116.288C1013.16 123.028 1004.62 129.458 997.7 137.618C988.7 148.278 982.09 160.418 976.61 173.188C973.42 180.618 969.49 187.798 969.46 196.188C969.46 198.438 968.36 200.878 965.75 200.618C963.46 200.398 964.01 197.818 963.75 196.078C962.75 188.338 964.88 181.238 968.27 174.418C971.97 166.968 975.49 159.418 979.41 152.108C987.08 137.778 998.41 126.608 1010.79 116.358C1024.22 105.218 1037.85 94.1879 1052.89 85.4379C1071.51 74.6179 1090.64 64.5579 1110.8 56.6179C1124.41 51.2579 1137.86 45.6179 1151.89 41.2879C1173.11 34.7979 1194.59 29.9279 1216.76 28.3579C1226.21 27.6879 1235.65 26.6179 1249.69 27.1379Z" fill="#001DBB"/>
<path d="M1493.51 512.63C1491.17 511.63 1488.97 512.73 1486.72 513.94C1480.1 517.373 1473.03 519.854 1465.72 521.31C1455.24 523.64 1445.15 527.75 1434.87 531.04C1425.43 534.207 1416.17 537.896 1407.13 542.09C1404.72 543.17 1401.92 543.15 1400.8 540.09C1399.3 536.09 1402.49 534.77 1405.36 533.78C1420.28 528.6 1435.3 523.71 1450.15 518.35C1461.41 514.28 1473.53 513.12 1484.35 507.59C1490.91 504.24 1491.35 504.22 1490.18 497C1487.62 481.43 1485.51 465.7 1478.24 451.36C1475.76 446.45 1473.13 446.47 1470.16 451.17C1461.54 464.83 1454.16 479.07 1449.53 494.62C1447.9 500.06 1444.3 502.56 1438.32 502.78C1427.91 503.17 1417.82 500.97 1407.72 498.78C1398.23 496.78 1389.07 493.92 1380.72 488.88C1378.81 487.74 1376.56 487.77 1374.38 487.88C1371.57 487.98 1370.53 489.56 1371 492.19C1372.36 500.224 1374.2 508.172 1376.5 515.99C1378.34 521.99 1379.79 528.17 1381.3 534.3C1381.89 536.7 1381.04 538.63 1378.55 539.44C1375.55 540.44 1373.66 538.49 1372.55 536.27C1371.5 534.009 1370.76 531.618 1370.34 529.16C1367.14 513.72 1364.04 498.26 1358.62 483.39C1357.62 480.76 1357.62 477.84 1360.62 476.39C1363.62 474.94 1364.77 477.39 1365.82 479.52C1366.87 481.65 1368.65 482.37 1370.26 480.91C1374.72 476.85 1379.34 478.75 1383.26 480.96C1398.21 489.41 1414.42 493.12 1431.26 494.96C1437.58 495.64 1439.63 494.61 1441.64 488.45C1445.96 475.25 1452.96 463.39 1460.04 451.57C1461.04 449.87 1462.76 448.09 1461.42 446.14C1459.99 444.03 1457.81 445.56 1455.92 445.86C1445.4 447.54 1435.29 450.86 1424.99 453.41C1413.62 456.27 1403.05 461.13 1392.5 465.98C1386.24 468.86 1379.34 469.44 1373.15 472.4C1371.27 473.29 1369.56 472.02 1368.54 470.33C1367.41 468.44 1368.73 467.15 1370.03 466.08C1374.56 462.37 1380.48 461.96 1385.64 459.7C1393.25 456.38 1401.02 453.43 1408.7 450.26C1419.5 445.8 1431.16 444.16 1442.11 440.21C1452.8 436.35 1464.17 437.37 1475.11 435.4C1480.56 434.4 1483.11 439.14 1485.41 443.35C1491.41 454.35 1493.69 466.44 1495.84 478.56C1497.44 487.56 1498.84 496.56 1500.46 505.56C1501.43 511.43 1499.88 513.17 1493.51 512.63Z" fill="#262424"/>
<path d="M1775.96 315.959C1790.73 315.245 1805.54 315.844 1820.21 317.749C1834.21 319.749 1848.48 318.049 1862.56 319.559C1865.87 319.909 1869.19 320.189 1872.56 320.359C1874.04 320.506 1875.53 320.387 1876.97 320.009C1878.52 319.519 1880.34 318.609 1880.4 316.799C1880.46 314.989 1878.33 314.729 1877.03 314.499C1870.93 313.369 1865.28 310.959 1859.56 308.719C1857.01 307.87 1854.78 306.291 1853.13 304.179C1852 302.589 1851.65 300.719 1853.13 299.179C1853.69 298.531 1854.48 298.118 1855.33 298.022C1856.18 297.925 1857.04 298.153 1857.74 298.659C1865.74 304.659 1875.65 305.399 1884.63 308.659C1892.08 311.369 1892.42 313.279 1890.63 320.979C1889.23 326.979 1888.2 331.759 1880.97 332.569C1879.3 332.759 1877.97 335.079 1876.3 336.189C1872.6 338.679 1868.11 336.739 1868.58 332.499C1869.03 328.419 1866.77 327.699 1864.11 327.679C1858.32 327.679 1852.66 326.269 1846.78 326.679C1836.78 327.419 1826.78 326.089 1816.89 325.059C1800.35 323.243 1783.68 323.006 1767.11 324.349C1764.36 324.589 1761.19 324.969 1761.01 321.199C1760.85 317.969 1763.72 316.869 1766.49 316.549C1769.62 316.189 1772.8 316.149 1775.96 315.959Z" fill="#262424"/>
<path d="M577.3 347.21C591.58 344.82 605.72 349.12 620.03 348.59C623.18 348.47 628.12 349.84 628.84 346.3C629.49 343.08 624.49 341.94 621.68 340.4C618.87 338.86 615.85 338.01 612.96 336.74C610.56 335.69 608.91 333.47 609.86 331.2C610.98 328.54 613.67 329.98 615.52 330.84C622.9 334.27 630.43 337.45 637.12 342.19C644.59 347.48 644.83 355.93 637.97 362.02C634.55 365.02 630.42 366.87 626.65 369.29C623.24 371.49 619.23 372.55 617.25 376.84C616.35 378.77 613.58 379.66 611.11 379.54C610.013 379.517 608.95 379.156 608.066 378.506C607.182 377.857 606.52 376.95 606.17 375.91C605.22 373.45 606.84 372.27 608.69 371.2C615.47 367.3 621.63 362.41 628.69 358.99C629.92 358.39 632 357.99 631.75 356.16C631.47 354.08 629.37 354.67 628.04 354.72C610.73 355.27 593.53 352.72 576.24 352.9C572.94 352.9 569.64 353.71 566.33 354.05C564.347 354.374 562.335 354.471 560.33 354.34C557.84 354.02 554.9 353.21 555.1 350.08C555.3 346.95 558.51 347.35 560.67 347.27C566.22 347.08 571.71 347.21 577.3 347.21Z" fill="#262424"/>
<path d="M1700.48 143.089C1699.54 157.279 1697.13 171.389 1694.62 185.459C1692.08 199.689 1688.8 213.789 1685.62 227.899C1684.71 231.899 1683.06 235.809 1681.72 239.749C1681.41 240.614 1680.88 241.386 1680.19 241.997C1679.5 242.608 1678.68 243.038 1677.78 243.249C1670.8 245.455 1663.36 245.833 1656.19 244.349C1640.51 241.459 1624.92 237.659 1608.84 237.349C1606.18 237.224 1603.53 236.872 1600.92 236.299C1598.6 235.859 1596.85 234.569 1597.01 231.909C1597.19 228.989 1599.31 228.619 1601.67 228.669C1609.05 228.849 1616.04 231.589 1623.34 232.039C1638.62 232.979 1653.58 236.789 1668.97 236.709C1673.52 236.709 1675.86 235.279 1677.03 230.629C1681.9 211.259 1685.42 191.629 1689.45 172.079C1691.88 160.519 1693.09 148.733 1693.04 136.919C1692.95 125.039 1688.81 120.059 1676.97 119.039C1670.48 118.539 1663.96 118.902 1657.57 120.119C1655.75 120.459 1654.07 120.899 1652.88 122.609C1651.69 124.319 1650.5 126.259 1648.06 125.029C1645.62 123.799 1644.89 121.309 1644.62 118.729C1644.39 116.539 1645.05 114.359 1647.2 113.849C1651.31 112.849 1654.96 110.469 1659.68 111.279C1664.04 112.019 1668.68 111.629 1673.13 111.149C1679.69 110.449 1685.68 112.319 1691.63 114.499C1697.58 116.679 1698.5 122.339 1699.36 127.499C1700.22 132.659 1700.14 137.799 1700.48 143.089Z" fill="#262424"/>
<path d="M1607.85 208.059C1608.7 195.939 1613.63 185.059 1616.41 173.589C1619.7 160.049 1626.54 147.589 1629.09 133.859C1629.66 130.759 1630.16 127.639 1630.61 124.519C1630.92 122.309 1631.85 120.669 1634.27 120.519C1636.69 120.369 1637.53 122.219 1638.15 124.259C1640.64 132.389 1636.01 139.039 1633.73 146.189C1628.32 163.189 1619.66 179.189 1619.21 197.579C1619.1 201.819 1617.21 205.579 1615.88 209.519C1615.05 211.929 1612.88 213.809 1610.03 213.209C1607.18 212.609 1607.86 209.959 1607.85 208.059Z" fill="#262424"/>
<path d="M943.64 531.93C944.33 528.75 944.5 525.08 945.92 521.98C949.78 513.53 953.22 504.63 958.6 497.19C965.69 487.38 972.37 489.74 977.76 500.19C980.82 506.1 984.7 511.51 987.49 517.54C988.69 520.14 991.23 521.14 993.78 522.11C996.72 523.24 998.08 525.11 996.25 528.33C994.42 531.55 992.54 530.26 990.05 528.98C982.82 525.26 979.89 518.26 976.27 511.75C974.98 509.44 974.12 506.88 972.78 504.59C969.7 499.3 966.78 499.11 963.62 504.21C957.94 513.21 953.29 522.81 950.75 533.27C950.25 535.32 950.2 538.09 947.14 537.65C944.27 537.24 944.17 534.49 943.64 531.93Z" fill="#001DBB"/>
<path d="M777.031 542.822C763.551 540.272 750.641 534.082 741.031 522.092C731.646 510.695 723.647 498.224 717.201 484.942C715.981 482.342 714.831 478.942 718.361 477.672C721.591 476.502 723.531 479.372 724.361 482.262C729.221 499.742 740.211 513.532 753.161 525.142C761.501 532.632 772.661 537.922 784.941 533.912C796.941 529.972 803.771 520.912 806.941 508.912C807.941 504.982 806.361 503.152 802.941 501.722C796.051 498.862 788.941 496.342 783.151 491.332C779.361 488.072 779.411 485.812 783.441 482.752C789.571 478.102 796.551 474.872 803.241 471.252C809.451 467.892 814.921 463.652 820.601 459.622C822.601 458.182 823.061 456.482 820.751 454.832C817.651 452.632 814.751 450.222 810.561 450.032C805.231 449.782 801.871 447.972 798.981 442.212C792.825 429.808 783.535 419.229 772.031 411.522C766.321 407.722 760.031 408.762 754.371 411.412C739.121 418.532 727.281 429.302 720.371 444.962C719.891 446.062 719.991 448.092 718.121 447.692C716.251 447.292 716.571 445.292 716.821 443.922C718.271 435.782 722.721 429.092 727.991 423.082C736.171 413.772 746.911 407.852 758.161 403.332C766.731 399.892 774.531 403.532 780.981 409.492C790.411 418.212 799.501 427.252 804.041 439.762C804.467 440.966 805.27 442 806.332 442.71C807.393 443.421 808.656 443.768 809.931 443.702C815.201 443.642 819.551 446.242 824.051 448.312C829.651 450.872 830.991 460.032 825.891 463.362C821.661 466.132 818.081 469.542 814.401 472.832C808.961 477.712 802.201 480.192 796.081 483.832C794.401 484.832 791.911 485.642 792.151 487.832C792.421 490.372 794.901 491.382 797.231 491.992C801.231 493.052 805.231 494.222 809.301 495.062C812.351 495.702 813.621 497.462 814.441 500.352C816.951 509.182 812.561 516.212 808.761 523.352C803.701 532.872 794.661 537.542 785.411 541.852C783.231 542.902 780.851 542.702 777.031 542.822Z" fill="#262424"/>
<path d="M865.801 469.732C865.801 473.892 863.591 475.542 859.801 473.832C856.011 472.122 853.031 473.582 850.031 475.372C847.841 476.682 845.121 479.272 843.221 475.942C841.321 472.612 844.861 471.842 847.221 470.572C851.151 468.422 854.871 465.652 859.531 465.572C862.221 465.582 865.861 465.062 865.801 469.732Z" fill="#262424"/>
<path d="M855.241 484.112C859.411 484.242 862.471 483.822 865.301 485.012C867.861 486.082 869.791 487.852 870.011 490.892C870.111 492.392 869.551 494.192 868.011 493.192C863.341 490.192 857.831 492.112 853.071 490.082C851.071 489.222 847.771 489.502 848.261 486.222C848.751 482.942 851.841 484.222 853.981 484.112C854.4 484.066 854.822 484.066 855.241 484.112Z" fill="#262424"/>
<path d="M869.031 513.642C865.301 513.832 855.391 506.142 854.411 502.522C854.228 502.065 854.191 501.563 854.305 501.085C854.42 500.606 854.681 500.175 855.051 499.852C855.475 499.443 856.022 499.187 856.606 499.124C857.191 499.06 857.78 499.193 858.281 499.502C863.011 502.292 866.801 506.252 870.561 510.152C872.181 511.842 870.601 513.062 869.031 513.642Z" fill="#262424"/>
<path d="M1112.21 282.822C1125.69 280.272 1138.6 274.082 1148.21 262.092C1157.6 250.695 1165.6 238.224 1172.04 224.942C1173.26 222.342 1174.41 218.942 1170.88 217.672C1167.65 216.502 1165.71 219.372 1164.88 222.262C1160.02 239.742 1149.03 253.532 1136.08 265.142C1127.74 272.632 1116.58 277.922 1104.3 273.912C1092.3 269.972 1085.47 260.912 1082.3 248.912C1081.3 244.982 1082.88 243.152 1086.3 241.722C1093.19 238.862 1100.3 236.342 1106.09 231.332C1109.88 228.072 1109.83 225.812 1105.8 222.752C1099.67 218.102 1092.69 214.872 1086 211.252C1079.79 207.892 1074.32 203.652 1068.64 199.622C1066.64 198.182 1066.18 196.482 1068.49 194.832C1071.59 192.632 1074.49 190.222 1078.68 190.032C1084.01 189.782 1087.37 187.972 1090.26 182.212C1096.42 169.808 1105.71 159.229 1117.21 151.522C1122.92 147.722 1129.21 148.762 1134.87 151.412C1150.12 158.532 1161.96 169.302 1168.87 184.962C1169.35 186.062 1169.25 188.092 1171.12 187.692C1172.99 187.292 1172.67 185.292 1172.42 183.922C1170.97 175.782 1166.52 169.092 1161.25 163.082C1153.07 153.772 1142.33 147.852 1131.08 143.332C1122.51 139.892 1114.71 143.532 1108.26 149.492C1098.83 158.212 1089.74 167.252 1085.2 179.762C1084.78 180.966 1083.97 182 1082.91 182.71C1081.85 183.421 1080.59 183.768 1079.31 183.702C1074.04 183.642 1069.69 186.242 1065.19 188.312C1059.59 190.872 1058.25 200.032 1063.35 203.362C1067.58 206.132 1071.16 209.542 1074.84 212.832C1080.28 217.712 1087.04 220.192 1093.16 223.832C1094.84 224.832 1097.33 225.642 1097.09 227.832C1096.82 230.372 1094.34 231.382 1092.01 231.992C1088.01 233.052 1084.01 234.222 1079.94 235.062C1076.89 235.702 1075.62 237.462 1074.8 240.352C1072.29 249.182 1076.68 256.212 1080.48 263.352C1085.54 272.872 1094.58 277.542 1103.83 281.852C1106.01 282.902 1108.39 282.702 1112.21 282.822Z" fill="#262424"/>
<path d="M1023.44 209.732C1023.44 213.892 1025.65 215.542 1029.44 213.832C1033.23 212.122 1036.21 213.582 1039.21 215.372C1041.4 216.682 1044.12 219.272 1046.02 215.942C1047.92 212.612 1044.38 211.842 1042.02 210.572C1038.09 208.422 1034.37 205.652 1029.71 205.572C1027.02 205.582 1023.38 205.062 1023.44 209.732Z" fill="#262424"/>
<path d="M1034 224.112C1029.83 224.242 1026.77 223.822 1023.94 225.012C1021.38 226.082 1019.45 227.852 1019.23 230.892C1019.13 232.392 1019.69 234.192 1021.23 233.192C1025.9 230.192 1031.41 232.112 1036.17 230.082C1038.17 229.222 1041.47 229.502 1040.98 226.222C1040.49 222.942 1037.4 224.222 1035.26 224.112C1034.84 224.066 1034.42 224.066 1034 224.112Z" fill="#262424"/>
<path d="M1020.21 253.642C1023.94 253.832 1033.85 246.142 1034.83 242.522C1035.01 242.065 1035.05 241.563 1034.94 241.085C1034.82 240.606 1034.56 240.175 1034.19 239.852C1033.77 239.443 1033.22 239.187 1032.64 239.124C1032.05 239.06 1031.46 239.193 1030.96 239.502C1026.23 242.292 1022.44 246.252 1018.68 250.152C1017.06 251.842 1018.64 253.062 1020.21 253.642Z" fill="#262424"/>
<path d="M236.08 259H252.64C258.453 259 263.493 260.147 267.76 262.44C272.08 264.68 275.387 267.907 277.68 272.12C280.027 276.333 281.2 281.293 281.2 287C281.2 292.707 280.027 297.667 277.68 301.88C275.387 306.093 272.08 309.347 267.76 311.64C263.493 313.88 258.453 315 252.64 315H236.08V259ZM252.64 310.28C257.227 310.28 261.227 309.32 264.64 307.4C268.053 305.48 270.667 302.787 272.48 299.32C274.347 295.8 275.28 291.693 275.28 287C275.28 282.307 274.347 278.227 272.48 274.76C270.667 271.24 268.053 268.52 264.64 266.6C261.227 264.68 257.227 263.72 252.64 263.72H241.84V310.28H252.64ZM289.344 274.76H294.864V315H289.344V274.76ZM289.184 261.4H295.104V269H289.184V261.4ZM319.12 315.56C314.373 315.56 310.533 314.467 307.6 312.28C304.667 310.04 302.693 307.187 301.68 303.72L306.8 302.44C308.827 308.307 312.96 311.24 319.2 311.24C322.24 311.24 324.587 310.6 326.24 309.32C327.893 308.04 328.72 306.28 328.72 304.04C328.72 302.12 328.053 300.653 326.72 299.64C325.44 298.627 323.413 297.747 320.64 297L314.24 295.4C310.56 294.493 307.787 293.293 305.92 291.8C304.107 290.307 303.2 288.147 303.2 285.32C303.2 281.96 304.48 279.267 307.04 277.24C309.653 275.213 313.067 274.2 317.28 274.2C321.493 274.2 324.987 275.16 327.76 277.08C330.533 278.947 332.427 281.507 333.44 284.76L328.32 286.04C327.52 283.693 326.187 281.853 324.32 280.52C322.453 279.187 320.08 278.52 317.2 278.52C314.533 278.52 312.373 279.107 310.72 280.28C309.12 281.4 308.32 282.973 308.32 285C308.32 286.76 308.933 288.12 310.16 289.08C311.387 289.987 313.147 290.733 315.44 291.32L322.56 293C326.347 293.907 329.173 295.213 331.04 296.92C332.907 298.573 333.84 300.867 333.84 303.8C333.84 307.373 332.533 310.227 329.92 312.36C327.36 314.493 323.76 315.56 319.12 315.56ZM357.854 315.56C354.28 315.56 351 314.733 348.014 313.08C345.08 311.373 342.734 308.973 340.974 305.88C339.267 302.733 338.414 299.053 338.414 294.84C338.414 290.627 339.24 286.973 340.894 283.88C342.547 280.733 344.814 278.333 347.694 276.68C350.627 275.027 353.907 274.2 357.534 274.2C361.8 274.2 365.427 275.373 368.414 277.72C371.454 280.067 373.454 283.16 374.414 287L369.054 288.52C368.254 285.427 366.84 283.027 364.814 281.32C362.787 279.613 360.28 278.76 357.294 278.76C354.787 278.76 352.547 279.427 350.574 280.76C348.6 282.04 347.054 283.907 345.934 286.36C344.814 288.76 344.254 291.56 344.254 294.76C344.254 298.173 344.867 301.107 346.094 303.56C347.374 306.013 349.054 307.88 351.134 309.16C353.214 310.387 355.507 311 358.014 311C360.947 311 363.4 310.12 365.374 308.36C367.4 306.547 368.867 304.173 369.774 301.24L374.974 302.6C373.8 306.44 371.747 309.56 368.814 311.96C365.88 314.36 362.227 315.56 357.854 315.56ZM398.083 315.48C394.456 315.48 391.176 314.653 388.243 313C385.363 311.293 383.069 308.893 381.363 305.8C379.709 302.653 378.883 299.027 378.883 294.92C378.883 290.813 379.709 287.187 381.363 284.04C383.069 280.893 385.389 278.467 388.322 276.76C391.256 275.053 394.509 274.2 398.083 274.2C401.656 274.2 404.883 275.053 407.763 276.76C410.696 278.467 412.989 280.893 414.643 284.04C416.349 287.187 417.203 290.813 417.203 294.92C417.203 299.027 416.349 302.653 414.643 305.8C412.989 308.893 410.696 311.293 407.763 313C404.883 314.653 401.656 315.48 398.083 315.48ZM384.723 294.92C384.723 299.933 385.949 303.88 388.403 306.76C390.909 309.587 394.136 311 398.083 311C402.029 311 405.229 309.587 407.683 306.76C410.189 303.88 411.443 299.933 411.443 294.92C411.443 289.853 410.216 285.907 407.763 283.08C405.309 280.2 402.083 278.76 398.083 278.76C394.083 278.76 390.856 280.2 388.403 283.08C385.949 285.907 384.723 289.853 384.723 294.92ZM419.15 274.76H424.59L436.83 308.12L449.31 274.76H454.51L439.55 315H433.79L419.15 274.76ZM475.504 315.56C471.824 315.56 468.518 314.733 465.584 313.08C462.704 311.373 460.438 308.973 458.784 305.88C457.131 302.733 456.304 299.08 456.304 294.92C456.304 291.027 457.078 287.507 458.624 284.36C460.171 281.213 462.384 278.733 465.264 276.92C468.144 275.107 471.451 274.2 475.184 274.2C478.651 274.2 481.718 275 484.384 276.6C487.051 278.147 489.104 280.28 490.544 283C491.984 285.72 492.704 288.76 492.704 292.12C492.704 293.187 492.624 294.2 492.464 295.16H461.984C462.038 298.52 462.678 301.4 463.904 303.8C465.131 306.2 466.758 308.04 468.784 309.32C470.864 310.547 473.184 311.16 475.744 311.16C481.451 311.16 485.451 308.147 487.744 302.12L492.704 303.4C491.638 306.867 489.638 309.773 486.704 312.12C483.824 314.413 480.091 315.56 475.504 315.56ZM487.184 290.92C486.971 287.4 485.771 284.493 483.584 282.2C481.398 279.853 478.571 278.68 475.104 278.68C471.691 278.68 468.838 279.8 466.544 282.04C464.304 284.227 462.891 287.187 462.304 290.92H487.184ZM500.594 274.76H506.114V285.64C507.288 282.12 508.994 279.347 511.234 277.32C513.474 275.24 516.168 274.2 519.314 274.2H519.474V279.96C515.421 279.96 512.168 281.32 509.714 284.04C507.314 286.707 506.114 290.627 506.114 295.8V315H500.594V274.76ZM524.541 326.36H528.061C530.195 326.36 531.741 325.853 532.701 324.84C533.715 323.88 534.675 322.227 535.581 319.88L537.261 315.4L521.021 274.76H526.381L539.741 308.52L552.221 274.76H557.341L540.781 319.56C539.715 322.44 538.675 324.653 537.661 326.2C536.701 327.8 535.448 329 533.901 329.8C532.355 330.6 530.328 331 527.821 331H524.541V326.36ZM248.64 380.44H233.84V375.88H248.64V360.92H253.52V375.88H268.4V380.44H253.52V395.48H248.64V380.44ZM317.043 403.48C313.31 403.48 309.896 402.787 306.803 401.4C303.71 400.013 301.15 398.093 299.123 395.64C297.15 393.187 295.843 390.387 295.203 387.24L300.563 385.8C301.363 389.64 303.23 392.76 306.163 395.16C309.15 397.507 312.776 398.68 317.043 398.68C320.83 398.68 323.95 397.773 326.403 395.96C328.856 394.093 330.083 391.507 330.083 388.2C330.083 386.173 329.656 384.52 328.803 383.24C327.95 381.96 326.803 380.947 325.363 380.2C323.923 379.453 322.003 378.653 319.603 377.8L311.283 375.08C306.59 373.533 303.096 371.747 300.803 369.72C298.51 367.64 297.363 364.68 297.363 360.84C297.363 358.013 298.11 355.507 299.603 353.32C301.096 351.133 303.203 349.453 305.923 348.28C308.696 347.053 311.87 346.44 315.443 346.44C320.67 346.44 324.936 347.693 328.243 350.2C331.603 352.707 333.923 355.853 335.203 359.64L329.763 361C328.75 358.227 327.016 355.907 324.563 354.04C322.163 352.12 318.99 351.16 315.043 351.16C311.47 351.16 308.563 351.987 306.323 353.64C304.136 355.293 303.043 357.56 303.043 360.44C303.043 363 303.843 364.973 305.443 366.36C307.043 367.693 309.603 368.947 313.123 370.12L321.843 373C324.83 374.013 327.31 375.107 329.283 376.28C331.256 377.4 332.83 378.893 334.003 380.76C335.176 382.627 335.763 385 335.763 387.88C335.763 390.973 334.99 393.693 333.443 396.04C331.95 398.387 329.79 400.227 326.963 401.56C324.136 402.84 320.83 403.48 317.043 403.48ZM343.798 362.76H349.318V403H343.798V362.76ZM343.638 349.4H349.558V357H343.638V349.4ZM377.089 419.56C372.289 419.56 368.343 418.44 365.249 416.2C362.156 413.96 360.156 410.867 359.249 406.92L364.209 405.64C364.956 408.627 366.423 410.947 368.609 412.6C370.796 414.253 373.596 415.08 377.009 415.08C380.583 415.08 383.409 413.987 385.489 411.8C387.569 409.613 388.609 406.493 388.609 402.44V393.48C387.276 396.627 385.356 399.107 382.849 400.92C380.343 402.68 377.356 403.56 373.889 403.56C370.636 403.56 367.729 402.733 365.169 401.08C362.609 399.373 360.609 396.947 359.169 393.8C357.783 390.653 357.089 387 357.089 382.84C357.089 378.733 357.836 375.107 359.329 371.96C360.876 368.813 362.929 366.413 365.489 364.76C368.049 363.053 370.849 362.2 373.889 362.2C377.303 362.2 380.263 363.107 382.769 364.92C385.329 366.68 387.276 369.16 388.609 372.36V362.76H394.129V402.12C394.129 407.667 392.609 411.96 389.569 415C386.529 418.04 382.369 419.56 377.089 419.56ZM362.849 382.84C362.849 387.8 363.996 391.747 366.289 394.68C368.583 397.613 371.596 399.08 375.329 399.08C377.836 399.08 380.103 398.387 382.129 397C384.156 395.613 385.729 393.72 386.849 391.32C387.969 388.867 388.529 386.093 388.529 383C388.529 379.907 387.943 377.133 386.769 374.68C385.596 372.173 383.996 370.227 381.969 368.84C379.996 367.4 377.836 366.68 375.489 366.68C373.036 366.68 370.849 367.347 368.929 368.68C367.009 370.013 365.516 371.907 364.449 374.36C363.383 376.76 362.849 379.587 362.849 382.84ZM404.813 362.76H410.333V373C411.88 369.8 413.986 367.213 416.653 365.24C419.373 363.213 422.466 362.2 425.933 362.2C429.453 362.2 432.173 363.373 434.093 365.72C436.013 368.013 436.973 371.427 436.973 375.96V403H431.453V376.6C431.453 370.093 428.84 366.84 423.613 366.84C420.306 366.84 417.426 368.227 414.973 371C412.573 373.72 411.026 376.973 410.333 380.76V403H404.813V362.76ZM479.231 403.08H473.711V392.68C472.165 395.933 470.031 398.573 467.311 400.6C464.645 402.573 461.605 403.56 458.191 403.56C454.618 403.56 451.845 402.413 449.871 400.12C447.951 397.827 446.991 394.387 446.991 389.8L447.071 362.76H452.591L452.511 389.16C452.511 395.667 455.125 398.92 460.351 398.92C462.591 398.92 464.645 398.28 466.511 397C468.378 395.667 469.925 393.933 471.151 391.8C472.431 389.667 473.285 387.4 473.711 385V362.76H479.231V403.08ZM489.969 362.76H495.489V372.04C496.823 368.947 498.743 366.547 501.249 364.84C503.756 363.08 506.716 362.2 510.129 362.2C513.383 362.2 516.289 363.053 518.849 364.76C521.409 366.413 523.383 368.813 524.769 371.96C526.209 375.107 526.929 378.76 526.929 382.92C526.929 387.027 526.156 390.653 524.609 393.8C523.116 396.947 521.063 399.373 518.449 401.08C515.889 402.787 513.089 403.64 510.049 403.64C506.689 403.587 503.756 402.707 501.249 401C498.743 399.293 496.823 396.893 495.489 393.8V419H489.969V362.76ZM495.489 384.68C495.703 387.453 496.423 389.933 497.649 392.12C498.876 394.307 500.423 396.013 502.289 397.24C504.209 398.467 506.263 399.08 508.449 399.08C510.903 399.08 513.089 398.44 515.009 397.16C516.929 395.827 518.423 393.933 519.489 391.48C520.609 389.027 521.169 386.173 521.169 382.92C521.169 377.96 520.023 374.013 517.729 371.08C515.436 368.147 512.423 366.68 508.689 366.68C505.116 366.68 502.103 368.013 499.649 370.68C497.249 373.347 495.863 376.787 495.489 381V384.68Z" fill="black"/>
<path d="M788.76 369.56C783.373 369.56 778.653 368.36 774.6 365.96C770.6 363.56 767.507 360.2 765.32 355.88C763.187 351.56 762.12 346.6 762.12 341C762.12 335.453 763.213 330.52 765.4 326.2C767.587 321.827 770.653 318.44 774.6 316.04C778.6 313.64 783.16 312.44 788.28 312.44C794.147 312.44 799.133 314.093 803.24 317.4C807.347 320.707 810.093 325.16 811.48 330.76L805.96 332.12C804.84 327.64 802.707 324.067 799.56 321.4C796.413 318.733 792.627 317.4 788.2 317.4C784.2 317.4 780.68 318.387 777.64 320.36C774.6 322.28 772.227 325.027 770.52 328.6C768.867 332.12 768.04 336.2 768.04 340.84C768.04 345.48 768.867 349.613 770.52 353.24C772.227 356.813 774.627 359.613 777.72 361.64C780.867 363.613 784.547 364.6 788.76 364.6C793.133 364.6 796.867 363.32 799.96 360.76C803.053 358.2 805.16 354.653 806.28 350.12L811.64 351.56C810.253 356.947 807.507 361.293 803.4 364.6C799.347 367.907 794.467 369.56 788.76 369.56ZM819.128 313H824.568V339.16C826.114 335.907 828.248 333.267 830.968 331.24C833.688 329.213 836.781 328.2 840.248 328.2C843.768 328.2 846.488 329.373 848.408 331.72C850.328 334.013 851.288 337.427 851.288 341.96V369H845.768V342.6C845.768 336.093 843.154 332.84 837.928 332.84C835.634 332.84 833.528 333.533 831.608 334.92C829.741 336.253 828.194 338.013 826.968 340.2C825.741 342.387 824.941 344.733 824.568 347.24V369H819.128V313ZM877.786 369.56C874.106 369.56 870.799 368.733 867.866 367.08C864.986 365.373 862.719 362.973 861.066 359.88C859.412 356.733 858.586 353.08 858.586 348.92C858.586 345.027 859.359 341.507 860.906 338.36C862.452 335.213 864.666 332.733 867.546 330.92C870.426 329.107 873.732 328.2 877.466 328.2C880.932 328.2 883.999 329 886.666 330.6C889.332 332.147 891.386 334.28 892.826 337C894.266 339.72 894.986 342.76 894.986 346.12C894.986 347.187 894.906 348.2 894.746 349.16H864.266C864.319 352.52 864.959 355.4 866.186 357.8C867.412 360.2 869.039 362.04 871.066 363.32C873.146 364.547 875.466 365.16 878.026 365.16C883.732 365.16 887.732 362.147 890.026 356.12L894.986 357.4C893.919 360.867 891.919 363.773 888.986 366.12C886.106 368.413 882.372 369.56 877.786 369.56ZM889.466 344.92C889.252 341.4 888.052 338.493 885.866 336.2C883.679 333.853 880.852 332.68 877.386 332.68C873.972 332.68 871.119 333.8 868.826 336.04C866.586 338.227 865.172 341.187 864.586 344.92H889.466ZM919.51 369.56C915.937 369.56 912.657 368.733 909.67 367.08C906.737 365.373 904.39 362.973 902.63 359.88C900.923 356.733 900.07 353.053 900.07 348.84C900.07 344.627 900.897 340.973 902.55 337.88C904.203 334.733 906.47 332.333 909.35 330.68C912.283 329.027 915.563 328.2 919.19 328.2C923.457 328.2 927.083 329.373 930.07 331.72C933.11 334.067 935.11 337.16 936.07 341L930.71 342.52C929.91 339.427 928.497 337.027 926.47 335.32C924.443 333.613 921.937 332.76 918.95 332.76C916.443 332.76 914.203 333.427 912.23 334.76C910.257 336.04 908.71 337.907 907.59 340.36C906.47 342.76 905.91 345.56 905.91 348.76C905.91 352.173 906.523 355.107 907.75 357.56C909.03 360.013 910.71 361.88 912.79 363.16C914.87 364.387 917.163 365 919.67 365C922.603 365 925.057 364.12 927.03 362.36C929.057 360.547 930.523 358.173 931.43 355.24L936.63 356.6C935.457 360.44 933.403 363.56 930.47 365.96C927.537 368.36 923.883 369.56 919.51 369.56ZM943.112 313H948.552V348.04L968.152 328.76H974.792L956.392 346.84L974.792 369H968.552L952.952 350.2L948.552 354.52V369H943.112V313ZM996.211 343.08V347.48H973.171V343.08H996.211ZM1003.11 328.76H1008.63V369H1003.11V328.76ZM1002.95 315.4H1008.87V323H1002.95V315.4ZM1019.36 328.76H1024.88V339C1026.43 335.8 1028.53 333.213 1031.2 331.24C1033.92 329.213 1037.01 328.2 1040.48 328.2C1044 328.2 1046.72 329.373 1048.64 331.72C1050.56 334.013 1051.52 337.427 1051.52 341.96V369H1046V342.6C1046 336.093 1043.39 332.84 1038.16 332.84C1034.85 332.84 1031.97 334.227 1029.52 337C1027.12 339.72 1025.57 342.973 1024.88 346.76V369H1019.36V328.76Z" fill="#262424"/>
<path d="M1426.08 313H1444.16C1450.08 313 1454.75 314.44 1458.16 317.32C1461.57 320.2 1463.28 324.227 1463.28 329.4C1463.28 333.453 1462.11 336.84 1459.76 339.56C1457.41 342.28 1454.61 344.04 1451.36 344.84L1465.04 369H1458.8L1446.16 346.28H1431.84V369H1426.08V313ZM1444.8 341.56C1448.53 341.56 1451.55 340.52 1453.84 338.44C1456.19 336.307 1457.36 333.373 1457.36 329.64C1457.36 325.8 1456.08 322.867 1453.52 320.84C1451.01 318.76 1447.49 317.72 1442.96 317.72H1431.84V341.56H1444.8ZM1487.54 369.56C1483.86 369.56 1480.55 368.733 1477.62 367.08C1474.74 365.373 1472.47 362.973 1470.82 359.88C1469.16 356.733 1468.34 353.08 1468.34 348.92C1468.34 345.027 1469.11 341.507 1470.66 338.36C1472.2 335.213 1474.42 332.733 1477.3 330.92C1480.18 329.107 1483.48 328.2 1487.22 328.2C1490.68 328.2 1493.75 329 1496.42 330.6C1499.08 332.147 1501.14 334.28 1502.58 337C1504.02 339.72 1504.74 342.76 1504.74 346.12C1504.74 347.187 1504.66 348.2 1504.5 349.16H1474.02C1474.07 352.52 1474.71 355.4 1475.94 357.8C1477.16 360.2 1478.79 362.04 1480.82 363.32C1482.9 364.547 1485.22 365.16 1487.78 365.16C1493.48 365.16 1497.48 362.147 1499.78 356.12L1504.74 357.4C1503.67 360.867 1501.67 363.773 1498.74 366.12C1495.86 368.413 1492.12 369.56 1487.54 369.56ZM1499.22 344.92C1499 341.4 1497.8 338.493 1495.62 336.2C1493.43 333.853 1490.6 332.68 1487.14 332.68C1483.72 332.68 1480.87 333.8 1478.58 336.04C1476.34 338.227 1474.92 341.187 1474.34 344.92H1499.22ZM1512.63 328.76H1518.15V338.04C1519.48 334.947 1521.4 332.547 1523.91 330.84C1526.41 329.08 1529.37 328.2 1532.79 328.2C1536.04 328.2 1538.95 329.053 1541.51 330.76C1544.07 332.413 1546.04 334.813 1547.43 337.96C1548.87 341.107 1549.59 344.76 1549.59 348.92C1549.59 353.027 1548.81 356.653 1547.27 359.8C1545.77 362.947 1543.72 365.373 1541.11 367.08C1538.55 368.787 1535.75 369.64 1532.71 369.64C1529.35 369.587 1526.41 368.707 1523.91 367C1521.4 365.293 1519.48 362.893 1518.15 359.8V385H1512.63V328.76ZM1518.15 350.68C1518.36 353.453 1519.08 355.933 1520.31 358.12C1521.53 360.307 1523.08 362.013 1524.95 363.24C1526.87 364.467 1528.92 365.08 1531.11 365.08C1533.56 365.08 1535.75 364.44 1537.67 363.16C1539.59 361.827 1541.08 359.933 1542.15 357.48C1543.27 355.027 1543.83 352.173 1543.83 348.92C1543.83 343.96 1542.68 340.013 1540.39 337.08C1538.09 334.147 1535.08 332.68 1531.35 332.68C1527.77 332.68 1524.76 334.013 1522.31 336.68C1519.91 339.347 1518.52 342.787 1518.15 347V350.68ZM1574.02 369.48C1570.39 369.48 1567.11 368.653 1564.18 367C1561.3 365.293 1559.01 362.893 1557.3 359.8C1555.65 356.653 1554.82 353.027 1554.82 348.92C1554.82 344.813 1555.65 341.187 1557.3 338.04C1559.01 334.893 1561.33 332.467 1564.26 330.76C1567.19 329.053 1570.45 328.2 1574.02 328.2C1577.59 328.2 1580.82 329.053 1583.7 330.76C1586.63 332.467 1588.93 334.893 1590.58 338.04C1592.29 341.187 1593.14 344.813 1593.14 348.92C1593.14 353.027 1592.29 356.653 1590.58 359.8C1588.93 362.893 1586.63 365.293 1583.7 367C1580.82 368.653 1577.59 369.48 1574.02 369.48ZM1560.66 348.92C1560.66 353.933 1561.89 357.88 1564.34 360.76C1566.85 363.587 1570.07 365 1574.02 365C1577.97 365 1581.17 363.587 1583.62 360.76C1586.13 357.88 1587.38 353.933 1587.38 348.92C1587.38 343.853 1586.15 339.907 1583.7 337.08C1581.25 334.2 1578.02 332.76 1574.02 332.76C1570.02 332.76 1566.79 334.2 1564.34 337.08C1561.89 339.907 1560.66 343.853 1560.66 348.92ZM1600.83 328.76H1606.35V339.64C1607.52 336.12 1609.23 333.347 1611.47 331.32C1613.71 329.24 1616.4 328.2 1619.55 328.2H1619.71V333.96C1615.66 333.96 1612.4 335.32 1609.95 338.04C1607.55 340.707 1606.35 344.627 1606.35 349.8V369H1600.83V328.76ZM1637.89 369C1634.58 369 1632 368.093 1630.13 366.28C1628.26 364.413 1627.33 361.827 1627.33 358.52V333.32H1622.37V328.76H1627.33V320.44L1632.85 317.64V328.76H1642.69V333.32H1632.85V358.28C1632.85 360.147 1633.33 361.64 1634.29 362.76C1635.25 363.827 1636.58 364.36 1638.29 364.36H1642.69V369H1637.89Z" fill="#262424"/>
<path d="M1967.08 249H1999.72V253.72H1972.84V275.16H1995.4V279.88H1972.84V305H1967.08V249ZM2034.53 305.08H2029.01V294.68C2027.46 297.933 2025.33 300.573 2022.61 302.6C2019.94 304.573 2016.9 305.56 2013.49 305.56C2009.91 305.56 2007.14 304.413 2005.17 302.12C2003.25 299.827 2002.29 296.387 2002.29 291.8L2002.37 264.76H2007.89L2007.81 291.16C2007.81 297.667 2010.42 300.92 2015.65 300.92C2017.89 300.92 2019.94 300.28 2021.81 299C2023.67 297.667 2025.22 295.933 2026.45 293.8C2027.73 291.667 2028.58 289.4 2029.01 287V264.76H2034.53V305.08ZM2045.27 264.76H2050.79V275.64C2051.96 272.12 2053.67 269.347 2055.91 267.32C2058.15 265.24 2060.84 264.2 2063.99 264.2H2064.15V269.96C2060.09 269.96 2056.84 271.32 2054.39 274.04C2051.99 276.707 2050.79 280.627 2050.79 285.8V305H2045.27V264.76ZM2082.33 305C2079.02 305 2076.43 304.093 2074.57 302.28C2072.7 300.413 2071.77 297.827 2071.77 294.52V269.32H2066.81V264.76H2071.77V256.44L2077.29 253.64V264.76H2087.13V269.32H2077.29V294.28C2077.29 296.147 2077.77 297.64 2078.73 298.76C2079.69 299.827 2081.02 300.36 2082.73 300.36H2087.13V305H2082.33ZM2093.63 249H2099.07V275.16C2100.61 271.907 2102.75 269.267 2105.47 267.24C2108.19 265.213 2111.28 264.2 2114.75 264.2C2118.27 264.2 2120.99 265.373 2122.91 267.72C2124.83 270.013 2125.79 273.427 2125.79 277.96V305H2120.27V278.6C2120.27 272.093 2117.65 268.84 2112.43 268.84C2110.13 268.84 2108.03 269.533 2106.11 270.92C2104.24 272.253 2102.69 274.013 2101.47 276.2C2100.24 278.387 2099.44 280.733 2099.07 283.24V305H2093.63V249ZM2152.29 305.56C2148.61 305.56 2145.3 304.733 2142.37 303.08C2139.49 301.373 2137.22 298.973 2135.57 295.88C2133.91 292.733 2133.09 289.08 2133.09 284.92C2133.09 281.027 2133.86 277.507 2135.41 274.36C2136.95 271.213 2139.17 268.733 2142.05 266.92C2144.93 265.107 2148.23 264.2 2151.97 264.2C2155.43 264.2 2158.5 265 2161.17 266.6C2163.83 268.147 2165.89 270.28 2167.33 273C2168.77 275.72 2169.49 278.76 2169.49 282.12C2169.49 283.187 2169.41 284.2 2169.25 285.16H2138.77C2138.82 288.52 2139.46 291.4 2140.69 293.8C2141.91 296.2 2143.54 298.04 2145.57 299.32C2147.65 300.547 2149.97 301.16 2152.53 301.16C2158.23 301.16 2162.23 298.147 2164.53 292.12L2169.49 293.4C2168.42 296.867 2166.42 299.773 2163.49 302.12C2160.61 304.413 2156.87 305.56 2152.29 305.56ZM2163.97 280.92C2163.75 277.4 2162.55 274.493 2160.37 272.2C2158.18 269.853 2155.35 268.68 2151.89 268.68C2148.47 268.68 2145.62 269.8 2143.33 272.04C2141.09 274.227 2139.67 277.187 2139.09 280.92H2163.97ZM2177.38 264.76H2182.9V275.64C2184.07 272.12 2185.78 269.347 2188.02 267.32C2190.26 265.24 2192.95 264.2 2196.1 264.2H2196.26V269.96C2192.2 269.96 2188.95 271.32 2186.5 274.04C2184.1 276.707 2182.9 280.627 2182.9 285.8V305H2177.38V264.76ZM1990.68 366.2C1990.68 363.213 1989.88 360.893 1988.28 359.24C1986.68 357.587 1984.28 356.76 1981.08 356.76C1978.15 356.76 1975.69 357.453 1973.72 358.84C1971.8 360.227 1970.41 362.173 1969.56 364.68L1964.52 363.32C1965.59 360.067 1967.59 357.4 1970.52 355.32C1973.45 353.24 1977.05 352.2 1981.32 352.2C1986.12 352.2 1989.8 353.427 1992.36 355.88C1994.92 358.28 1996.2 361.72 1996.2 366.2V393H1990.68V384.76C1989.24 387.533 1987.16 389.693 1984.44 391.24C1981.77 392.787 1978.84 393.56 1975.64 393.56C1972.01 393.56 1969 392.627 1966.6 390.76C1964.25 388.84 1963.08 386.227 1963.08 382.92C1963.08 378.92 1964.52 376.013 1967.4 374.2C1970.33 372.387 1974.39 371.267 1979.56 370.84C1983.08 370.573 1985.72 370.173 1987.48 369.64C1989.29 369.107 1990.36 368.2 1990.68 366.92V366.2ZM1968.92 382.28C1968.92 384.68 1969.75 386.467 1971.4 387.64C1973.11 388.76 1975.21 389.32 1977.72 389.32C1981.03 389.32 1983.93 388.227 1986.44 386.04C1988.95 383.853 1990.36 380.867 1990.68 377.08V371.24C1989.03 373.107 1985.83 374.253 1981.08 374.68C1976.92 375.053 1973.85 375.747 1971.88 376.76C1969.91 377.773 1968.92 379.613 1968.92 382.28ZM2022.76 393.56C2019.19 393.56 2015.91 392.733 2012.92 391.08C2009.99 389.373 2007.64 386.973 2005.88 383.88C2004.17 380.733 2003.32 377.053 2003.32 372.84C2003.32 368.627 2004.15 364.973 2005.8 361.88C2007.45 358.733 2009.72 356.333 2012.6 354.68C2015.53 353.027 2018.81 352.2 2022.44 352.2C2026.71 352.2 2030.33 353.373 2033.32 355.72C2036.36 358.067 2038.36 361.16 2039.32 365L2033.96 366.52C2033.16 363.427 2031.75 361.027 2029.72 359.32C2027.69 357.613 2025.19 356.76 2022.2 356.76C2019.69 356.76 2017.45 357.427 2015.48 358.76C2013.51 360.04 2011.96 361.907 2010.84 364.36C2009.72 366.76 2009.16 369.56 2009.16 372.76C2009.16 376.173 2009.77 379.107 2011 381.56C2012.28 384.013 2013.96 385.88 2016.04 387.16C2018.12 388.387 2020.41 389 2022.92 389C2025.85 389 2028.31 388.12 2030.28 386.36C2032.31 384.547 2033.77 382.173 2034.68 379.24L2039.88 380.6C2038.71 384.44 2036.65 387.56 2033.72 389.96C2030.79 392.36 2027.13 393.56 2022.76 393.56ZM2057.87 393C2054.57 393 2051.98 392.093 2050.11 390.28C2048.25 388.413 2047.31 385.827 2047.31 382.52V357.32H2042.35V352.76H2047.31V344.44L2052.83 341.64V352.76H2062.67V357.32H2052.83V382.28C2052.83 384.147 2053.31 385.64 2054.27 386.76C2055.23 387.827 2056.57 388.36 2058.27 388.36H2062.67V393H2057.87ZM2069.09 352.76H2074.61V393H2069.09V352.76ZM2068.93 339.4H2074.85V347H2068.93V339.4ZM2101.43 393.48C2097.8 393.48 2094.52 392.653 2091.59 391C2088.71 389.293 2086.41 386.893 2084.71 383.8C2083.05 380.653 2082.23 377.027 2082.23 372.92C2082.23 368.813 2083.05 365.187 2084.71 362.04C2086.41 358.893 2088.73 356.467 2091.67 354.76C2094.6 353.053 2097.85 352.2 2101.43 352.2C2105 352.2 2108.23 353.053 2111.11 354.76C2114.04 356.467 2116.33 358.893 2117.99 362.04C2119.69 365.187 2120.55 368.813 2120.55 372.92C2120.55 377.027 2119.69 380.653 2117.99 383.8C2116.33 386.893 2114.04 389.293 2111.11 391C2108.23 392.653 2105 393.48 2101.43 393.48ZM2088.07 372.92C2088.07 377.933 2089.29 381.88 2091.75 384.76C2094.25 387.587 2097.48 389 2101.43 389C2105.37 389 2108.57 387.587 2111.03 384.76C2113.53 381.88 2114.79 377.933 2114.79 372.92C2114.79 367.853 2113.56 363.907 2111.11 361.08C2108.65 358.2 2105.43 356.76 2101.43 356.76C2097.43 356.76 2094.2 358.2 2091.75 361.08C2089.29 363.907 2088.07 367.853 2088.07 372.92ZM2128.31 352.76H2133.83V363C2135.38 359.8 2137.49 357.213 2140.15 355.24C2142.87 353.213 2145.97 352.2 2149.43 352.2C2152.95 352.2 2155.67 353.373 2157.59 355.72C2159.51 358.013 2160.47 361.427 2160.47 365.96V393H2154.95V366.6C2154.95 360.093 2152.34 356.84 2147.11 356.84C2143.81 356.84 2140.93 358.227 2138.47 361C2136.07 363.72 2134.53 366.973 2133.83 370.76V393H2128.31V352.76ZM2184.65 393.56C2179.9 393.56 2176.06 392.467 2173.13 390.28C2170.2 388.04 2168.22 385.187 2167.21 381.72L2172.33 380.44C2174.36 386.307 2178.49 389.24 2184.73 389.24C2187.77 389.24 2190.12 388.6 2191.77 387.32C2193.42 386.04 2194.25 384.28 2194.25 382.04C2194.25 380.12 2193.58 378.653 2192.25 377.64C2190.97 376.627 2188.94 375.747 2186.17 375L2179.77 373.4C2176.09 372.493 2173.32 371.293 2171.45 369.8C2169.64 368.307 2168.73 366.147 2168.73 363.32C2168.73 359.96 2170.01 357.267 2172.57 355.24C2175.18 353.213 2178.6 352.2 2182.81 352.2C2187.02 352.2 2190.52 353.16 2193.29 355.08C2196.06 356.947 2197.96 359.507 2198.97 362.76L2193.85 364.04C2193.05 361.693 2191.72 359.853 2189.85 358.52C2187.98 357.187 2185.61 356.52 2182.73 356.52C2180.06 356.52 2177.9 357.107 2176.25 358.28C2174.65 359.4 2173.85 360.973 2173.85 363C2173.85 364.76 2174.46 366.12 2175.69 367.08C2176.92 367.987 2178.68 368.733 2180.97 369.32L2188.09 371C2191.88 371.907 2194.7 373.213 2196.57 374.92C2198.44 376.573 2199.37 378.867 2199.37 381.8C2199.37 385.373 2198.06 388.227 2195.45 390.36C2192.89 392.493 2189.29 393.56 2184.65 393.56Z" fill="black"/>
</svg>
