<svg width="2574" height="694" viewBox="0 0 2574 694" fill="none" xmlns="http://www.w3.org/2000/svg">
<path d="M2257 170.55C2265.48 171.85 2273.93 173.77 2282.45 174.29C2292.81 174.93 2302.72 177.86 2312.94 179.02C2315.26 179.28 2317.57 179.68 2319.94 179.77C2323.43 179.9 2326.26 178.77 2326.94 174.86C2327.29 172.75 2328.38 171.07 2330.42 171.49C2330.97 171.559 2331.49 171.749 2331.96 172.046C2332.43 172.343 2332.82 172.739 2333.11 173.207C2333.41 173.675 2333.59 174.203 2333.66 174.751C2333.72 175.3 2333.67 175.856 2333.49 176.38C2332.44 179.98 2334.41 180.77 2337.27 181.14C2341.68 181.72 2345.79 182.88 2349.37 178.21C2352.09 174.68 2357.78 176.94 2358.63 181.44C2359.26 184.842 2360.71 188.036 2362.87 190.74C2365.02 193.53 2366.64 193.13 2368.95 192.03C2374.09 189.599 2378.43 185.739 2381.44 180.91C2383.06 178.376 2385.18 176.201 2387.67 174.519C2390.16 172.837 2392.97 171.683 2395.93 171.13C2397.65 170.75 2399.61 170.71 2400.52 172.13C2401.65 173.93 2399.72 175.6 2398.58 176.13C2388.69 180.89 2385.96 191.88 2378.49 198.8C2371.02 205.72 2364.57 213.56 2357.49 220.85C2352.49 225.99 2347.27 230.85 2342.14 235.85C2341.55 236.436 2340.83 236.891 2340.05 237.184C2339.27 237.477 2338.43 237.602 2337.6 237.55C2336.04 237.5 2334.54 237.24 2333.79 235.67C2333.04 234.1 2333.9 233.12 2334.79 232.03C2338.06 227.81 2341.44 223.71 2346.18 221.03C2347.32 220.342 2348.42 219.584 2349.46 218.76C2350.27 218.14 2351.06 217.35 2350.53 216.24C2349.93 214.98 2348.88 215.64 2347.93 215.85C2346.51 216.299 2345.03 216.568 2343.54 216.65C2341.54 216.57 2338.65 217.41 2338.42 214.2C2338.36 213.609 2338.42 213.012 2338.6 212.445C2338.77 211.879 2339.06 211.354 2339.45 210.905C2339.84 210.455 2340.32 210.089 2340.85 209.831C2341.38 209.572 2341.97 209.425 2342.56 209.4C2348.65 208.62 2353.19 204.96 2357.77 201.4C2358.61 200.75 2360.07 200.17 2359.62 198.76C2359.24 197.54 2357.88 197.16 2356.77 197.04C2350.9 196.37 2345.11 196.04 2340.31 200.6C2338.4 202.462 2336.29 204.105 2334.02 205.5C2331.93 206.707 2330.16 208.391 2328.85 210.414C2327.54 212.438 2326.73 214.742 2326.48 217.14C2326.32 218.31 2325.79 219.32 2327.02 220.26C2329.12 221.86 2329.27 223.93 2327.83 225.98C2326.27 228.22 2323.91 228.38 2321.55 227.59C2319.03 226.74 2316.61 225.59 2314.12 224.66C2307.12 222.03 2299.87 222.4 2292.48 222.49C2279.33 222.66 2266.17 223.07 2253.02 222.85C2234.8 222.393 2216.66 220.274 2198.82 216.52C2194.24 215.5 2189.92 213.553 2186.13 210.8C2182.73 208.44 2182.44 205.93 2185.57 203.09C2192.15 197.09 2199.89 192.86 2207.5 188.39C2215.11 183.92 2222.93 180.03 2229.3 173.66C2232.3 170.66 2236.48 168.89 2240.13 166.57C2242.21 165.316 2243.94 163.56 2245.16 161.463C2246.38 159.367 2247.06 156.996 2247.13 154.57C2247.98 141.502 2249.72 128.508 2252.35 115.68C2253.27 111.15 2255.28 106.85 2256.35 102.34C2259.62 88.7598 2262.6 75.1098 2265.87 61.5298C2267.05 56.5898 2264.42 51.2098 2267.87 46.5298C2268.57 45.5298 2267.3 44.8198 2266.47 44.2598C2265.36 43.4998 2264.1 42.7198 2264.62 41.0998C2265.14 39.4798 2266.52 38.8498 2268.06 38.5698C2268.88 38.4003 2269.71 38.3298 2270.55 38.3598C2286.17 39.2198 2301.35 35.7498 2316.66 33.6598C2339.63 30.5158 2362.96 31.0525 2385.77 35.2498C2391.29 36.3577 2396.72 37.8889 2402 39.8298C2404.38 40.6606 2406.48 42.1342 2408.06 44.0868C2409.65 46.0393 2410.67 48.3942 2411 50.8898C2412.76 61.2698 2410.56 71.3598 2409.12 81.5298C2406.93 97.0698 2401.07 111.7 2397.89 126.93C2395.37 138.93 2391.01 150.5 2389.21 162.67C2388.58 166.92 2385.7 168.31 2381.89 166.98C2378.08 165.65 2377.78 162.58 2379.26 159.21C2385.12 145.9 2388.26 131.88 2391.45 117.74C2394.34 104.8 2398.26 92.0998 2400.17 78.9198C2401.34 71.0095 2401.81 63.0126 2401.59 55.0198C2401.43 49.9198 2398.12 47.4198 2393.59 46.0198C2379.37 41.7798 2364.89 38.8098 2350.02 38.7998C2338.36 38.7756 2326.71 39.6347 2315.18 41.3698C2302.69 43.2798 2290.29 45.7798 2277.68 46.8298C2274.75 47.0798 2273.57 48.2298 2273.68 51.2098C2274.29 67.0498 2270.01 82.2098 2266.37 97.3298C2264.29 106.01 2262.59 114.92 2259.55 123.18C2256.51 131.44 2258.91 140.18 2256.11 148.5C2253.99 154.81 2257.28 158.69 2263.82 160.34C2269.74 161.84 2275.72 161.64 2281.7 161.07C2303.98 158.96 2326.24 159.33 2348.51 161.07C2353.17 161.532 2357.85 161.532 2362.51 161.07C2364.66 160.825 2366.83 160.805 2368.99 161.01C2371.47 161.24 2373.67 162.23 2373.74 165.17C2373.79 166.283 2373.42 167.374 2372.69 168.216C2371.96 169.058 2370.93 169.586 2369.82 169.69C2363.56 170.56 2357.26 171.18 2350.96 171.69C2348.49 171.89 2347.02 169.23 2344.73 168.79C2340.95 168.161 2337.12 167.856 2333.29 167.88C2313.33 167.418 2293.35 167.982 2273.45 169.57C2270.8 169.765 2268.13 169.634 2265.51 169.18C2262.72 168.81 2259.91 168.12 2257 170.55ZM2245.63 214.92C2247.78 215 2250.63 214.78 2251 212.06C2251.46 208.68 2248 209.83 2246.23 209.29C2240.23 207.46 2234.06 205.93 2228.09 203.92C2224.65 202.77 2220.75 201.63 2218.29 199.22C2210.35 191.42 2210.53 194.81 2202.62 199.01C2201.38 199.856 2200.2 200.778 2199.08 201.77C2197.78 202.69 2195.69 203.07 2196.15 205.24C2196.53 207 2198.45 206.9 2199.77 207.48C2214.33 213.91 2230.3 211.54 2245.64 214.92H2245.63ZM2257.08 203.45C2261.08 203.36 2267.97 198.45 2267.24 196.45C2265.82 192.45 2261.7 194.06 2258.75 193.22C2258.58 193.205 2258.42 193.205 2258.25 193.22C2246.25 193.04 2234.36 192.49 2222.72 189.3C2221.47 188.96 2219.77 188.3 2219.27 189.87C2218.86 191.23 2220.51 192.15 2221.67 192.61C2224.9 193.9 2228.27 194.85 2231.51 196.13C2240 199.48 2249.18 200.55 2257.09 203.45H2257.08ZM2246 177.89C2242.16 177.77 2238.31 177.65 2234.8 179.6C2233.36 180.4 2231.39 181.2 2231.95 183.17C2232.46 184.96 2234.51 184.23 2235.95 184.37C2247.67 185.55 2259.55 184.8 2271.16 187.37C2273.28 187.962 2275.54 187.726 2277.49 186.71C2278.73 186 2279.69 185.07 2279.41 183.55C2279.13 182.03 2277.8 182.12 2276.66 181.89C2266.56 179.772 2256.31 178.435 2246 177.89ZM2283.9 209.75C2290.42 208.88 2294.63 204.37 2298.96 200.09C2299.75 199.31 2301.05 198.54 2300.56 197.24C2300.07 195.94 2298.56 195.57 2297.23 195.49C2287.56 194.97 2278.34 195.66 2271.23 203.62C2268.95 206.18 2269.36 207.17 2272.52 207.71C2276.25 208.35 2280 209.05 2283.87 209.75H2283.9ZM2300.54 210.1C2311.86 212.56 2321.49 208.86 2328.24 199.94C2330.59 196.84 2328.24 195.99 2326.01 195.88C2321.17 195.64 2316.32 196.08 2312.41 199.41C2308.5 202.74 2304.78 206.24 2300.51 210.1H2300.54ZM2307.54 186.89C2303.28 185.054 2298.59 184.448 2294 185.14C2293.29 185.24 2292.19 185.83 2292.08 186.36C2291.85 187.54 2292.97 188.08 2293.96 188.17C2298.53 188.648 2303.14 188.213 2307.54 186.89Z" fill="#262424"/>
<path d="M157.853 428.607C135.521 433.12 115.323 440.459 94.6906 446.229C78.8644 450.798 62.6542 453.914 46.2617 455.536C41.607 455.979 37.1295 457.546 33.2149 460.103C30.0534 462.12 29.0291 464.855 30.3804 468.219C32.0391 472.393 33.8967 476.483 35.7164 480.59C46.6778 505.365 58.0223 529.965 69.7498 554.39C73.927 563.092 77.7358 571.895 84.1702 579.359C85.1299 580.412 85.8598 581.653 86.3135 583.004C86.7672 584.354 86.9347 585.784 86.8053 587.203C86.5685 589.371 85.781 591.094 83.4827 591.599C81.4079 592.046 80.6649 590.507 79.6424 589.116C73.8623 581.259 71.0695 571.921 66.8841 563.292C56.3303 541.49 46.1097 519.538 36.2223 497.436C32.9 490.032 30.0874 482.339 27.112 474.765C24.1366 467.191 19.1916 460.27 15.0835 453.077C14.8517 452.66 14.2862 452.43 14.0528 452.002C12.8182 449.826 9.73743 447.216 12.5273 445.16C15.6477 442.835 17.4132 446.191 18.8155 448.704C21.2534 453.053 24.2224 454.687 29.429 452.532C39.5199 448.357 50.3193 447.094 61.1598 446.504C75.816 445.694 89.4678 440.621 103.343 436.586C122.68 430.951 141.959 424.97 161.487 420.176C169.708 418.167 173.68 420.039 178.288 427.068C187.979 441.846 194.944 457.97 202.319 473.935C206.695 483.344 212.701 492.075 217.997 501.098C221.194 506.536 224.681 511.825 227.58 517.424C231.514 525.031 238.506 525.316 245.566 525.579C264.997 526.295 284.433 527.213 303.87 527.471C312.254 527.595 320.495 527.894 328.547 530.344C330.566 530.961 333.251 531.132 333.747 533.624C334.244 536.116 332.225 537.933 330.393 539.353C328.297 540.949 325.453 541.768 323.461 539.849C319.2 535.754 314.08 535.33 308.698 535.213C298.584 534.992 288.464 534.002 278.35 535.607C277.684 535.662 277.024 535.772 276.377 535.935C273.551 536.863 269.536 537.471 269.232 540.512C268.908 543.8 273.242 543.524 275.548 544.833C280.654 547.733 285.208 545.494 289.862 543.735C291.569 543.086 293.18 542.168 294.923 541.675C296.507 541.208 298.266 540.935 299.61 542.364C300.953 543.793 300.43 545.401 299.341 546.839C298.995 547.201 298.766 547.66 298.688 548.155C298.609 548.65 298.683 549.158 298.901 549.609C299.946 551.686 309.388 555.475 311.788 554.731L325.101 550.484C326.691 549.986 328.327 549.4 329.994 549.913C332.29 550.615 334.626 551.675 334.508 554.493C334.407 556.993 332.305 558.185 330.126 558.619C327.182 559.201 324.167 559.359 321.257 559.844C316.324 560.672 311.664 562.68 307.674 565.696C298.371 572.589 287.729 576.866 276.818 580.499C264.984 584.485 253.493 589.424 242.458 595.268C237.237 598.003 231.644 599.543 226.225 601.643C225.102 602.083 223.669 602.423 222.935 601.43C218.199 594.971 211.681 596.493 205.537 597.77C196.377 599.682 187.723 596.968 178.923 595.626C163.058 593.201 148.317 586.989 133.202 582.006C125.009 579.316 116.157 579.676 107.862 577.226C106.913 576.948 105.633 577.658 104.534 578.003C102.622 578.637 100.554 578.626 98.6488 577.97C96.3341 577.16 95.3577 575.254 95.241 572.912C95.1244 570.569 96.6418 569.637 98.5406 569.168C116.177 564.405 133.242 557.851 150.948 553.136C169.568 548.188 187.774 541.667 206.857 538.345C208.26 538.179 209.575 537.575 210.615 536.619C211.655 535.664 212.367 534.404 212.651 533.02C213.552 529.423 217.042 526.764 219.983 524.702C222.925 522.641 222.292 521.276 221.078 519.106C217.917 513.638 214.753 508.177 211.587 502.723C203.051 488.006 194.368 473.435 187.242 457.865C183.819 450.406 180.737 442.495 175.87 435.429C170.602 427.912 165.008 425.124 157.853 428.607ZM175.593 566.456C173.817 566.874 172.047 567.382 170.242 567.683C163.09 568.874 156.836 572.41 150.175 575.021C148.708 575.59 146.282 575.021 146.034 577.059C145.751 579.438 148.177 580.615 149.887 581.081C157.4 583.093 164.776 585.747 172.529 586.705C175.635 587.09 179.038 587.496 179.395 582.642C179.523 580.978 181.44 580.74 182.847 580.181C187.934 578.157 192.956 575.992 198.026 573.931C199.337 573.398 200.59 572.703 200.619 571.238C200.687 569.392 198.812 569.704 197.746 569.081C194.445 567.111 190.766 565.86 186.949 565.408C183.132 564.955 179.262 565.313 175.593 566.456ZM254.876 562.896C247.015 564.673 239.262 566.899 231.656 569.564C230.583 569.935 229.039 569.919 228.906 571.309C228.772 572.7 230.183 573.438 231.391 574.058C236.576 576.824 242.268 578.004 247.887 579.42C250.251 580.04 252.396 581.233 255.135 580.331C261.866 578.135 267.715 574.301 274.041 571.381C275.973 570.502 276.831 568.838 274.604 567.76C268.179 564.613 262.124 559.488 254.876 562.896ZM216.388 567.556C225.462 564.391 234.55 561.255 243.605 558.043C244.84 557.604 246.105 556.866 245.91 555.205C245.88 554.911 245.791 554.626 245.649 554.367C245.507 554.107 245.314 553.879 245.082 553.695C244.85 553.512 244.584 553.377 244.299 553.298C244.014 553.219 243.716 553.199 243.423 553.237C240.618 553.38 238.874 551.796 236.98 550.104C236.059 549.244 234.933 548.634 233.71 548.332C232.487 548.03 231.207 548.046 229.991 548.379C219.72 551.105 210.434 556.707 199.927 558.752C199.675 558.782 199.431 558.862 199.209 558.987C198.988 559.113 198.794 559.281 198.639 559.483C198.483 559.684 198.37 559.915 198.305 560.161C198.24 560.407 198.225 560.663 198.26 560.915C198.356 561.411 198.614 561.86 198.995 562.192C199.375 562.524 199.856 562.718 200.36 562.745C203.375 563.256 205.913 564.861 208.552 566.216C210.977 567.447 213.721 567.906 216.415 567.531L216.388 567.556ZM212.95 546.92C210.68 545.473 207.931 544.98 205.3 545.549C197.463 547.19 189.671 548.792 182.023 551.02C165.463 555.857 149.159 561.565 132.404 565.776C129.657 566.448 126.962 567.321 124.343 568.387C122.549 569.122 122.048 570.371 124.264 571.441C128.362 573.465 132.923 573.759 137.293 574.674C140.16 575.271 138.644 571.225 140.762 570.669C141.245 570.588 141.63 570.159 142.098 569.99C153.192 565.992 164.083 561.207 175.457 558.217C187.81 554.962 200.028 551.446 212.946 546.901L212.95 546.92ZM181.82 587.459C184.743 590.459 187.86 590.244 190.354 590.67C196.898 591.799 203.627 592.513 209.135 587.236C211.157 585.317 212.74 585.814 213.567 588.403C214.116 590.116 214.801 591.736 216.932 591.198C222.387 589.823 227.818 588.33 233.227 586.719C233.808 586.594 234.33 586.279 234.71 585.822C235.09 585.365 235.305 584.794 235.322 584.2C235.251 582.742 234.015 582.441 232.935 582.043C230.715 581.379 228.546 580.558 226.443 579.587C218.853 575.468 211.356 576.231 203.912 579.499C197.035 582.521 190.29 585.723 181.82 587.459ZM287.945 556.929C286.257 557.674 284.609 558.507 283.008 559.425C280.766 560.812 280.723 563.05 281.829 565.126C283.064 567.425 284.967 566.438 286.557 565.514C288.701 564.265 290.736 562.79 292.821 561.429C293.681 560.87 294.468 560.242 294.158 559.047C293.847 557.852 292.907 557.623 291.868 557.472L287.945 556.929ZM247.02 540.939C245.609 541.478 242.644 541.08 243.229 543.497C243.862 546.078 246.91 546.543 249.346 546.441C249.809 546.43 250.264 546.321 250.682 546.122C251.099 545.923 251.47 545.638 251.771 545.286C252.071 544.933 252.293 544.521 252.423 544.077C252.553 543.633 252.588 543.167 252.526 542.708C251.894 539.954 249.318 540.556 247.02 540.939ZM258.666 546.581C257.578 547.047 254.848 547.217 256.262 548.949C257.157 550.04 258.332 550.867 259.661 551.34C260.99 551.814 262.424 551.916 263.806 551.635C264.929 551.377 266.305 550.205 265.424 549.176C264.649 548.159 263.607 547.378 262.413 546.919C261.22 546.461 259.922 546.344 258.666 546.581Z" fill="#262424"/>
<path d="M1528.23 436.37C1528.23 434.37 1528.23 432.37 1528.23 430.37C1528.23 428.17 1528.69 426.24 1531.23 426C1533.77 425.76 1534.09 427.93 1534.69 429.59C1536.81 435.44 1535.77 441.46 1535.51 447.43C1535.02 458.57 1531.36 468.82 1527.27 479.1C1522.87 490.17 1519.6 501.69 1515.7 512.96C1510.87 526.96 1505.02 540.35 1497 552.96C1488.13 567.046 1477.36 579.846 1465 591C1454.12 600.948 1442.41 609.944 1430 617.89C1417.48 625.7 1404.75 632.89 1390.62 636.97C1368.96 643.16 1347.68 651.19 1325.02 653.25C1306.02 654.98 1287.02 657.39 1267.88 658.11C1252.58 658.601 1237.26 657.815 1222.09 655.76C1202.09 653.19 1181.99 652.48 1162.09 649.62C1141.85 646.72 1121.53 643.54 1101.94 637.62C1078.89 630.68 1055.06 626.09 1033 616.06C1021.36 610.77 1008.9 607.34 998.1 600.06C980.756 588.546 965.165 574.589 951.81 558.62C940.98 545.62 936.94 529.82 931.42 514.55C931.081 513.245 930.983 511.89 931.13 510.55C931.22 507.55 931.86 504.72 935.6 504.48C939.34 504.24 940.54 506.84 940.81 509.9C942.51 529.14 950.52 545.57 962.81 560.17C969.009 567.317 975.892 573.842 983.36 579.65C989.72 584.75 995.86 590.15 1002.83 594.36C1015.42 601.97 1029.41 606.51 1042.9 612.16C1060.77 619.63 1079.68 623.92 1098.11 629.39C1120.64 636.044 1143.74 640.62 1167.11 643.06C1191.74 645.66 1216.4 647.94 1241.11 650.25C1257.93 651.83 1274.7 650.35 1291.44 648.82C1306.68 647.43 1321.99 646.45 1337.04 643.44C1352.91 640.27 1368.24 635.14 1383.61 630.19C1408.68 622.1 1430.61 608.69 1450.38 591.4C1462.52 580.77 1474.46 570 1484.03 556.85C1494.57 542.299 1502.7 526.15 1508.11 509.02C1511.93 497.16 1516.29 485.47 1520.52 473.75C1524.91 461.735 1527.51 449.14 1528.23 436.37Z" fill="#001DBB"/>
<path d="M1215.69 20.1379C1226.87 21.4979 1242.62 22.2479 1258.28 24.6379C1273.94 27.0279 1289.55 28.9479 1305.2 31.0979C1326.88 34.0979 1347.04 41.0979 1366.27 51.3979C1384.02 60.8579 1400.94 71.6779 1417.6 82.8479C1431.43 92.0562 1444.09 102.913 1455.3 115.178C1465.94 126.888 1476.13 138.898 1485.64 151.498C1490.44 157.848 1494.64 164.628 1499.15 171.218C1499.68 172.008 1499.74 173.308 1501.04 173.218C1501.63 173.146 1502.18 172.889 1502.61 172.484C1503.04 172.08 1503.33 171.549 1503.44 170.968C1504.37 168.118 1504.89 165.098 1506.12 162.388C1507.35 159.678 1508.77 156.698 1512.72 157.928C1516.67 159.158 1516.84 162.508 1515.63 165.248C1512.08 173.248 1509.83 181.508 1509.8 190.308C1509.8 190.618 1509.73 191.118 1509.52 191.238C1504.41 194.048 1501.88 199.978 1496.59 202.348C1491.96 204.428 1487.59 201.948 1484.02 199.348C1476.32 193.638 1466.42 190.178 1463.02 179.748C1462.35 177.698 1461.52 175.748 1463.52 174.398C1465.74 172.828 1467.52 174.528 1468.45 176.248C1473.09 184.888 1481.89 188.328 1489.45 193.328C1491.51 194.708 1493.62 194.568 1495.19 192.468C1497.19 189.808 1499.37 187.278 1496.82 183.548C1492.12 176.688 1487.64 169.668 1483.17 162.648C1476.49 152.148 1469.75 141.648 1461.37 132.438C1448.83 118.638 1435.9 105.188 1420.59 94.3479C1410.98 87.5379 1401.35 80.7279 1391.4 74.4179C1374.66 63.8456 1357.08 54.6647 1338.84 46.9679C1326.54 41.7479 1313.42 40.7279 1300.84 37.2579C1287.5 33.5779 1273.77 34.2579 1260.38 32.1179C1246.04 29.8579 1231.62 28.9179 1217.25 27.2979C1202.46 25.6279 1187.71 27.9179 1173.01 29.1479C1154.21 30.7279 1136.08 35.8879 1118.09 41.2279C1107.27 44.4279 1096.86 48.9579 1086.35 53.1479C1068.61 60.2279 1051.64 68.8479 1034.53 77.2879C1017.2 85.8279 1002.03 97.1879 987.33 109.288C979.16 116.028 970.62 122.458 963.7 130.618C954.7 141.278 948.09 153.418 942.61 166.188C939.42 173.618 935.49 180.798 935.46 189.188C935.46 191.438 934.36 193.878 931.75 193.618C929.46 193.398 930.01 190.818 929.75 189.078C928.75 181.338 930.88 174.238 934.27 167.418C937.97 159.968 941.49 152.418 945.41 145.108C953.08 130.778 964.41 119.608 976.79 109.358C990.22 98.2179 1003.85 87.1879 1018.89 78.4379C1037.51 67.6179 1056.64 57.5579 1076.8 49.6179C1090.41 44.2579 1103.86 38.6179 1117.89 34.2879C1139.11 27.7979 1160.59 22.9279 1182.76 21.3579C1192.21 20.6879 1201.65 19.6179 1215.69 20.1379Z" fill="#001DBB"/>
<path d="M1459.51 505.63C1457.17 504.63 1454.97 505.73 1452.72 506.94C1446.1 510.373 1439.03 512.854 1431.72 514.31C1421.24 516.64 1411.15 520.75 1400.87 524.04C1391.43 527.207 1382.17 530.896 1373.13 535.09C1370.72 536.17 1367.92 536.15 1366.8 533.09C1365.3 529.09 1368.49 527.77 1371.36 526.78C1386.28 521.6 1401.3 516.71 1416.15 511.35C1427.41 507.28 1439.53 506.12 1450.35 500.59C1456.91 497.24 1457.35 497.22 1456.18 490C1453.62 474.43 1451.51 458.7 1444.24 444.36C1441.76 439.45 1439.13 439.47 1436.16 444.17C1427.54 457.83 1420.16 472.07 1415.53 487.62C1413.9 493.06 1410.3 495.56 1404.32 495.78C1393.91 496.17 1383.82 493.97 1373.72 491.78C1364.23 489.78 1355.07 486.92 1346.72 481.88C1344.81 480.74 1342.56 480.77 1340.38 480.88C1337.57 480.98 1336.53 482.56 1337 485.19C1338.36 493.224 1340.2 501.172 1342.5 508.99C1344.34 514.99 1345.79 521.17 1347.3 527.3C1347.89 529.7 1347.04 531.63 1344.55 532.44C1341.55 533.44 1339.66 531.49 1338.55 529.27C1337.5 527.009 1336.76 524.618 1336.34 522.16C1333.14 506.72 1330.04 491.26 1324.62 476.39C1323.62 473.76 1323.62 470.84 1326.62 469.39C1329.62 467.94 1330.77 470.39 1331.82 472.52C1332.87 474.65 1334.65 475.37 1336.26 473.91C1340.72 469.85 1345.34 471.75 1349.26 473.96C1364.21 482.41 1380.42 486.12 1397.26 487.96C1403.58 488.64 1405.63 487.61 1407.64 481.45C1411.96 468.25 1418.96 456.39 1426.04 444.57C1427.04 442.87 1428.76 441.09 1427.42 439.14C1425.99 437.03 1423.81 438.56 1421.92 438.86C1411.4 440.54 1401.29 443.86 1390.99 446.41C1379.62 449.27 1369.05 454.13 1358.5 458.98C1352.24 461.86 1345.34 462.44 1339.15 465.4C1337.27 466.29 1335.56 465.02 1334.54 463.33C1333.41 461.44 1334.73 460.15 1336.03 459.08C1340.56 455.37 1346.48 454.96 1351.64 452.7C1359.25 449.38 1367.02 446.43 1374.7 443.26C1385.5 438.8 1397.16 437.16 1408.11 433.21C1418.8 429.35 1430.17 430.37 1441.11 428.4C1446.56 427.4 1449.11 432.14 1451.41 436.35C1457.41 447.35 1459.69 459.44 1461.84 471.56C1463.44 480.56 1464.84 489.56 1466.46 498.56C1467.43 504.43 1465.88 506.17 1459.51 505.63Z" fill="#262424"/>
<path d="M1725.43 334.959C1740.2 334.245 1755.01 334.844 1769.68 336.749C1783.68 338.749 1797.95 337.049 1812.03 338.559C1815.34 338.909 1818.66 339.189 1822.03 339.359C1823.51 339.506 1825 339.387 1826.44 339.009C1827.99 338.519 1829.81 337.609 1829.87 335.799C1829.93 333.989 1827.8 333.729 1826.5 333.499C1820.4 332.369 1814.75 329.959 1809.03 327.719C1806.49 326.87 1804.25 325.291 1802.6 323.179C1801.47 321.589 1801.12 319.719 1802.6 318.179C1803.16 317.531 1803.95 317.118 1804.8 317.022C1805.66 316.925 1806.52 317.153 1807.21 317.659C1815.21 323.659 1825.12 324.399 1834.1 327.659C1841.55 330.369 1841.89 332.279 1840.1 339.979C1838.7 345.979 1837.67 350.759 1830.44 351.569C1828.77 351.759 1827.44 354.079 1825.77 355.189C1822.07 357.679 1817.58 355.739 1818.05 351.499C1818.5 347.419 1816.24 346.699 1813.58 346.679C1807.79 346.679 1802.13 345.269 1796.25 345.679C1786.25 346.419 1776.25 345.089 1766.36 344.059C1749.83 342.243 1733.16 342.006 1716.58 343.349C1713.83 343.589 1710.66 343.969 1710.48 340.199C1710.32 336.969 1713.19 335.869 1715.96 335.549C1719.09 335.189 1722.27 335.149 1725.43 334.959Z" fill="#262424"/>
<path d="M543.3 340.21C557.58 337.82 571.72 342.12 586.03 341.59C589.18 341.47 594.12 342.84 594.84 339.3C595.49 336.08 590.49 334.94 587.68 333.4C584.87 331.86 581.85 331.01 578.96 329.74C576.56 328.69 574.91 326.47 575.86 324.2C576.98 321.54 579.67 322.98 581.52 323.84C588.9 327.27 596.43 330.45 603.12 335.19C610.59 340.48 610.83 348.93 603.97 355.02C600.55 358.02 596.42 359.87 592.65 362.29C589.24 364.49 585.23 365.55 583.25 369.84C582.35 371.77 579.58 372.66 577.11 372.54C576.013 372.517 574.95 372.156 574.066 371.506C573.182 370.857 572.52 369.95 572.17 368.91C571.22 366.45 572.84 365.27 574.69 364.2C581.47 360.3 587.63 355.41 594.69 351.99C595.92 351.39 598 350.99 597.75 349.16C597.47 347.08 595.37 347.67 594.04 347.72C576.73 348.27 559.53 345.72 542.24 345.9C538.94 345.9 535.64 346.71 532.33 347.05C530.347 347.374 528.335 347.471 526.33 347.34C523.84 347.02 520.9 346.21 521.1 343.08C521.3 339.95 524.51 340.35 526.67 340.27C532.22 340.08 537.71 340.21 543.3 340.21Z" fill="#262424"/>
<path d="M1666.48 136.089C1665.54 150.279 1663.13 164.389 1660.62 178.459C1658.08 192.689 1654.8 206.789 1651.62 220.899C1650.71 224.899 1649.06 228.809 1647.72 232.749C1647.41 233.614 1646.88 234.386 1646.19 234.997C1645.5 235.608 1644.68 236.038 1643.78 236.249C1636.8 238.455 1629.36 238.833 1622.19 237.349C1606.51 234.459 1590.92 230.659 1574.84 230.349C1572.18 230.224 1569.53 229.872 1566.92 229.299C1564.6 228.859 1562.85 227.569 1563.01 224.909C1563.19 221.989 1565.31 221.619 1567.67 221.669C1575.05 221.849 1582.04 224.589 1589.34 225.039C1604.62 225.979 1619.58 229.789 1634.97 229.709C1639.52 229.709 1641.86 228.279 1643.03 223.629C1647.9 204.259 1651.42 184.629 1655.45 165.079C1657.88 153.519 1659.09 141.733 1659.04 129.919C1658.95 118.039 1654.81 113.059 1642.97 112.039C1636.48 111.539 1629.96 111.902 1623.57 113.119C1621.75 113.459 1620.07 113.899 1618.88 115.609C1617.69 117.319 1616.5 119.259 1614.06 118.029C1611.62 116.799 1610.89 114.309 1610.62 111.729C1610.39 109.539 1611.05 107.359 1613.2 106.849C1617.31 105.849 1620.96 103.469 1625.68 104.279C1630.04 105.019 1634.68 104.629 1639.13 104.149C1645.69 103.449 1651.68 105.319 1657.63 107.499C1663.58 109.679 1664.5 115.339 1665.36 120.499C1666.22 125.659 1666.14 130.799 1666.48 136.089Z" fill="#262424"/>
<path d="M1573.85 201.059C1574.7 188.939 1579.63 178.059 1582.41 166.589C1585.7 153.049 1592.54 140.589 1595.09 126.859C1595.66 123.759 1596.16 120.639 1596.61 117.519C1596.92 115.309 1597.85 113.669 1600.27 113.519C1602.69 113.369 1603.53 115.219 1604.15 117.259C1606.64 125.389 1602.01 132.039 1599.73 139.189C1594.32 156.189 1585.66 172.189 1585.21 190.579C1585.1 194.819 1583.21 198.579 1581.88 202.519C1581.05 204.929 1578.88 206.809 1576.03 206.209C1573.18 205.609 1573.86 202.959 1573.85 201.059Z" fill="#262424"/>
<path d="M909.64 524.93C910.33 521.75 910.5 518.08 911.92 514.98C915.78 506.53 919.22 497.63 924.6 490.19C931.69 480.38 938.37 482.74 943.76 493.19C946.82 499.1 950.7 504.51 953.49 510.54C954.69 513.14 957.23 514.14 959.78 515.11C962.72 516.24 964.08 518.11 962.25 521.33C960.42 524.55 958.54 523.26 956.05 521.98C948.82 518.26 945.89 511.26 942.27 504.75C940.98 502.44 940.12 499.88 938.78 497.59C935.7 492.3 932.78 492.11 929.62 497.21C923.94 506.21 919.29 515.81 916.75 526.27C916.25 528.32 916.2 531.09 913.14 530.65C910.27 530.24 910.17 527.49 909.64 524.93Z" fill="#001DBB"/>
<path d="M743.031 535.822C729.551 533.272 716.641 527.082 707.031 515.092C697.646 503.695 689.647 491.224 683.201 477.942C681.981 475.342 680.831 471.942 684.361 470.672C687.591 469.502 689.531 472.372 690.361 475.262C695.221 492.742 706.211 506.532 719.161 518.142C727.501 525.632 738.661 530.922 750.941 526.912C762.941 522.972 769.771 513.912 772.941 501.912C773.941 497.982 772.361 496.152 768.941 494.722C762.051 491.862 754.941 489.342 749.151 484.332C745.361 481.072 745.411 478.812 749.441 475.752C755.571 471.102 762.551 467.872 769.241 464.252C775.451 460.892 780.921 456.652 786.601 452.622C788.601 451.182 789.061 449.482 786.751 447.832C783.651 445.632 780.751 443.222 776.561 443.032C771.231 442.782 767.871 440.972 764.981 435.212C758.825 422.808 749.535 412.229 738.031 404.522C732.321 400.722 726.031 401.762 720.371 404.412C705.121 411.532 693.281 422.302 686.371 437.962C685.891 439.062 685.991 441.092 684.121 440.692C682.251 440.292 682.571 438.292 682.821 436.922C684.271 428.782 688.721 422.092 693.991 416.082C702.171 406.772 712.911 400.852 724.161 396.332C732.731 392.892 740.531 396.532 746.981 402.492C756.411 411.212 765.501 420.252 770.041 432.762C770.467 433.966 771.27 435 772.332 435.71C773.393 436.421 774.656 436.768 775.931 436.702C781.201 436.642 785.551 439.242 790.051 441.312C795.651 443.872 796.991 453.032 791.891 456.362C787.661 459.132 784.081 462.542 780.401 465.832C774.961 470.712 768.201 473.192 762.081 476.832C760.401 477.832 757.911 478.642 758.151 480.832C758.421 483.372 760.901 484.382 763.231 484.992C767.231 486.052 771.231 487.222 775.301 488.062C778.351 488.702 779.621 490.462 780.441 493.352C782.951 502.182 778.561 509.212 774.761 516.352C769.701 525.872 760.661 530.542 751.411 534.852C749.231 535.902 746.851 535.702 743.031 535.822Z" fill="#262424"/>
<path d="M831.801 462.732C831.801 466.892 829.591 468.542 825.801 466.832C822.011 465.122 819.031 466.582 816.031 468.372C813.841 469.682 811.121 472.272 809.221 468.942C807.321 465.612 810.861 464.842 813.221 463.572C817.151 461.422 820.871 458.652 825.531 458.572C828.221 458.582 831.861 458.062 831.801 462.732Z" fill="#262424"/>
<path d="M821.241 477.112C825.411 477.242 828.471 476.822 831.301 478.012C833.861 479.082 835.791 480.852 836.011 483.892C836.111 485.392 835.551 487.192 834.011 486.192C829.341 483.192 823.831 485.112 819.071 483.082C817.071 482.222 813.771 482.502 814.261 479.222C814.751 475.942 817.841 477.222 819.981 477.112C820.4 477.066 820.822 477.066 821.241 477.112Z" fill="#262424"/>
<path d="M835.031 506.642C831.301 506.832 821.391 499.142 820.411 495.522C820.228 495.065 820.191 494.563 820.305 494.085C820.42 493.606 820.681 493.175 821.051 492.852C821.475 492.443 822.022 492.187 822.606 492.124C823.191 492.06 823.78 492.193 824.281 492.502C829.011 495.292 832.801 499.252 836.561 503.152C838.181 504.842 836.601 506.062 835.031 506.642Z" fill="#262424"/>
<path d="M1078.21 275.822C1091.69 273.272 1104.6 267.082 1114.21 255.092C1123.6 243.695 1131.6 231.224 1138.04 217.942C1139.26 215.342 1140.41 211.942 1136.88 210.672C1133.65 209.502 1131.71 212.372 1130.88 215.262C1126.02 232.742 1115.03 246.532 1102.08 258.142C1093.74 265.632 1082.58 270.922 1070.3 266.912C1058.3 262.972 1051.47 253.912 1048.3 241.912C1047.3 237.982 1048.88 236.152 1052.3 234.722C1059.19 231.862 1066.3 229.342 1072.09 224.332C1075.88 221.072 1075.83 218.812 1071.8 215.752C1065.67 211.102 1058.69 207.872 1052 204.252C1045.79 200.892 1040.32 196.652 1034.64 192.622C1032.64 191.182 1032.18 189.482 1034.49 187.832C1037.59 185.632 1040.49 183.222 1044.68 183.032C1050.01 182.782 1053.37 180.972 1056.26 175.212C1062.42 162.808 1071.71 152.229 1083.21 144.522C1088.92 140.722 1095.21 141.762 1100.87 144.412C1116.12 151.532 1127.96 162.302 1134.87 177.962C1135.35 179.062 1135.25 181.092 1137.12 180.692C1138.99 180.292 1138.67 178.292 1138.42 176.922C1136.97 168.782 1132.52 162.092 1127.25 156.082C1119.07 146.772 1108.33 140.852 1097.08 136.332C1088.51 132.892 1080.71 136.532 1074.26 142.492C1064.83 151.212 1055.74 160.252 1051.2 172.762C1050.78 173.966 1049.97 175 1048.91 175.71C1047.85 176.421 1046.59 176.768 1045.31 176.702C1040.04 176.642 1035.69 179.242 1031.19 181.312C1025.59 183.872 1024.25 193.032 1029.35 196.362C1033.58 199.132 1037.16 202.542 1040.84 205.832C1046.28 210.712 1053.04 213.192 1059.16 216.832C1060.84 217.832 1063.33 218.642 1063.09 220.832C1062.82 223.372 1060.34 224.382 1058.01 224.992C1054.01 226.052 1050.01 227.222 1045.94 228.062C1042.89 228.702 1041.62 230.462 1040.8 233.352C1038.29 242.182 1042.68 249.212 1046.48 256.352C1051.54 265.872 1060.58 270.542 1069.83 274.852C1072.01 275.902 1074.39 275.702 1078.21 275.822Z" fill="#262424"/>
<path d="M989.441 202.732C989.441 206.892 991.651 208.542 995.441 206.832C999.231 205.122 1002.21 206.582 1005.21 208.372C1007.4 209.682 1010.12 212.272 1012.02 208.942C1013.92 205.612 1010.38 204.842 1008.02 203.572C1004.09 201.422 1000.37 198.652 995.711 198.572C993.021 198.582 989.381 198.062 989.441 202.732Z" fill="#262424"/>
<path d="M1000 217.112C995.831 217.242 992.771 216.822 989.941 218.012C987.381 219.082 985.451 220.852 985.231 223.892C985.131 225.392 985.691 227.192 987.231 226.192C991.901 223.192 997.411 225.112 1002.17 223.082C1004.17 222.222 1007.47 222.502 1006.98 219.222C1006.49 215.942 1003.4 217.222 1001.26 217.112C1000.84 217.066 1000.42 217.066 1000 217.112Z" fill="#262424"/>
<path d="M986.211 246.642C989.941 246.832 999.851 239.142 1000.83 235.522C1001.01 235.065 1001.05 234.563 1000.94 234.085C1000.82 233.606 1000.56 233.175 1000.19 232.852C999.768 232.443 999.22 232.187 998.636 232.124C998.051 232.06 997.462 232.193 996.961 232.502C992.231 235.292 988.441 239.252 984.681 243.152C983.061 244.842 984.641 246.062 986.211 246.642Z" fill="#262424"/>
<path d="M200.84 368.48C197.107 368.48 193.693 367.787 190.6 366.4C187.507 365.013 184.947 363.093 182.92 360.64C180.947 358.187 179.64 355.387 179 352.24L184.36 350.8C185.16 354.64 187.027 357.76 189.96 360.16C192.947 362.507 196.573 363.68 200.84 363.68C204.627 363.68 207.747 362.773 210.2 360.96C212.653 359.093 213.88 356.507 213.88 353.2C213.88 351.173 213.453 349.52 212.6 348.24C211.747 346.96 210.6 345.947 209.16 345.2C207.72 344.453 205.8 343.653 203.4 342.8L195.08 340.08C190.387 338.533 186.893 336.747 184.6 334.72C182.307 332.64 181.16 329.68 181.16 325.84C181.16 323.013 181.907 320.507 183.4 318.32C184.893 316.133 187 314.453 189.72 313.28C192.493 312.053 195.667 311.44 199.24 311.44C204.467 311.44 208.733 312.693 212.04 315.2C215.4 317.707 217.72 320.853 219 324.64L213.56 326C212.547 323.227 210.813 320.907 208.36 319.04C205.96 317.12 202.787 316.16 198.84 316.16C195.267 316.16 192.36 316.987 190.12 318.64C187.933 320.293 186.84 322.56 186.84 325.44C186.84 328 187.64 329.973 189.24 331.36C190.84 332.693 193.4 333.947 196.92 335.12L205.64 338C208.627 339.013 211.107 340.107 213.08 341.28C215.053 342.4 216.627 343.893 217.8 345.76C218.973 347.627 219.56 350 219.56 352.88C219.56 355.973 218.787 358.693 217.24 361.04C215.747 363.387 213.587 365.227 210.76 366.56C207.933 367.84 204.627 368.48 200.84 368.48ZM227.594 327.76H233.114V368H227.594V327.76ZM227.434 314.4H233.354V322H227.434V314.4ZM260.886 384.56C256.086 384.56 252.14 383.44 249.046 381.2C245.953 378.96 243.953 375.867 243.046 371.92L248.006 370.64C248.753 373.627 250.22 375.947 252.406 377.6C254.593 379.253 257.393 380.08 260.806 380.08C264.38 380.08 267.206 378.987 269.286 376.8C271.366 374.613 272.406 371.493 272.406 367.44V358.48C271.073 361.627 269.153 364.107 266.646 365.92C264.14 367.68 261.153 368.56 257.686 368.56C254.433 368.56 251.526 367.733 248.966 366.08C246.406 364.373 244.406 361.947 242.966 358.8C241.58 355.653 240.886 352 240.886 347.84C240.886 343.733 241.633 340.107 243.126 336.96C244.673 333.813 246.726 331.413 249.286 329.76C251.846 328.053 254.646 327.2 257.686 327.2C261.1 327.2 264.06 328.107 266.566 329.92C269.126 331.68 271.073 334.16 272.406 337.36V327.76H277.926V367.12C277.926 372.667 276.406 376.96 273.366 380C270.326 383.04 266.166 384.56 260.886 384.56ZM246.646 347.84C246.646 352.8 247.793 356.747 250.086 359.68C252.38 362.613 255.393 364.08 259.126 364.08C261.633 364.08 263.9 363.387 265.926 362C267.953 360.613 269.526 358.72 270.646 356.32C271.766 353.867 272.326 351.093 272.326 348C272.326 344.907 271.74 342.133 270.566 339.68C269.393 337.173 267.793 335.227 265.766 333.84C263.793 332.4 261.633 331.68 259.286 331.68C256.833 331.68 254.646 332.347 252.726 333.68C250.806 335.013 249.313 336.907 248.246 339.36C247.18 341.76 246.646 344.587 246.646 347.84ZM288.61 327.76H294.13V338C295.677 334.8 297.783 332.213 300.45 330.24C303.17 328.213 306.263 327.2 309.73 327.2C313.25 327.2 315.97 328.373 317.89 330.72C319.81 333.013 320.77 336.427 320.77 340.96V368H315.25V341.6C315.25 335.093 312.637 331.84 307.41 331.84C304.103 331.84 301.223 333.227 298.77 336C296.37 338.72 294.823 341.973 294.13 345.76V368H288.61V327.76ZM350.696 342.08V346.48H327.656V342.08H350.696ZM389.669 368.08H384.149V357.68C382.602 360.933 380.469 363.573 377.749 365.6C375.082 367.573 372.042 368.56 368.629 368.56C365.055 368.56 362.282 367.413 360.309 365.12C358.389 362.827 357.429 359.387 357.429 354.8L357.509 327.76H363.029L362.949 354.16C362.949 360.667 365.562 363.92 370.789 363.92C373.029 363.92 375.082 363.28 376.949 362C378.815 360.667 380.362 358.933 381.589 356.8C382.869 354.667 383.722 352.4 384.149 350V327.76H389.669V368.08ZM400.407 327.76H405.927V337.04C407.26 333.947 409.18 331.547 411.687 329.84C414.194 328.08 417.154 327.2 420.567 327.2C423.82 327.2 426.727 328.053 429.287 329.76C431.847 331.413 433.82 333.813 435.207 336.96C436.647 340.107 437.367 343.76 437.367 347.92C437.367 352.027 436.594 355.653 435.047 358.8C433.554 361.947 431.5 364.373 428.887 366.08C426.327 367.787 423.527 368.64 420.487 368.64C417.127 368.587 414.194 367.707 411.687 366C409.18 364.293 407.26 361.893 405.927 358.8V384H400.407V327.76ZM405.927 349.68C406.14 352.453 406.86 354.933 408.087 357.12C409.314 359.307 410.86 361.013 412.727 362.24C414.647 363.467 416.7 364.08 418.887 364.08C421.34 364.08 423.527 363.44 425.447 362.16C427.367 360.827 428.86 358.933 429.927 356.48C431.047 354.027 431.607 351.173 431.607 347.92C431.607 342.96 430.46 339.013 428.167 336.08C425.874 333.147 422.86 331.68 419.127 331.68C415.554 331.68 412.54 333.013 410.087 335.68C407.687 338.347 406.3 341.787 405.927 346V349.68Z" fill="black"/>
<path d="M748.76 368.56C743.373 368.56 738.653 367.36 734.6 364.96C730.6 362.56 727.507 359.2 725.32 354.88C723.187 350.56 722.12 345.6 722.12 340C722.12 334.453 723.213 329.52 725.4 325.2C727.587 320.827 730.653 317.44 734.6 315.04C738.6 312.64 743.16 311.44 748.28 311.44C754.147 311.44 759.133 313.093 763.24 316.4C767.347 319.707 770.093 324.16 771.48 329.76L765.96 331.12C764.84 326.64 762.707 323.067 759.56 320.4C756.413 317.733 752.627 316.4 748.2 316.4C744.2 316.4 740.68 317.387 737.64 319.36C734.6 321.28 732.227 324.027 730.52 327.6C728.867 331.12 728.04 335.2 728.04 339.84C728.04 344.48 728.867 348.613 730.52 352.24C732.227 355.813 734.627 358.613 737.72 360.64C740.867 362.613 744.547 363.6 748.76 363.6C753.133 363.6 756.867 362.32 759.96 359.76C763.053 357.2 765.16 353.653 766.28 349.12L771.64 350.56C770.253 355.947 767.507 360.293 763.4 363.6C759.347 366.907 754.467 368.56 748.76 368.56ZM779.128 312H784.568V338.16C786.114 334.907 788.248 332.267 790.968 330.24C793.688 328.213 796.781 327.2 800.248 327.2C803.768 327.2 806.488 328.373 808.408 330.72C810.328 333.013 811.288 336.427 811.288 340.96V368H805.768V341.6C805.768 335.093 803.154 331.84 797.928 331.84C795.634 331.84 793.528 332.533 791.608 333.92C789.741 335.253 788.194 337.013 786.968 339.2C785.741 341.387 784.941 343.733 784.568 346.24V368H779.128V312ZM837.786 368.56C834.106 368.56 830.799 367.733 827.866 366.08C824.986 364.373 822.719 361.973 821.066 358.88C819.412 355.733 818.586 352.08 818.586 347.92C818.586 344.027 819.359 340.507 820.906 337.36C822.452 334.213 824.666 331.733 827.546 329.92C830.426 328.107 833.732 327.2 837.466 327.2C840.932 327.2 843.999 328 846.666 329.6C849.332 331.147 851.386 333.28 852.826 336C854.266 338.72 854.986 341.76 854.986 345.12C854.986 346.187 854.906 347.2 854.746 348.16H824.266C824.319 351.52 824.959 354.4 826.186 356.8C827.412 359.2 829.039 361.04 831.066 362.32C833.146 363.547 835.466 364.16 838.026 364.16C843.732 364.16 847.732 361.147 850.026 355.12L854.986 356.4C853.919 359.867 851.919 362.773 848.986 365.12C846.106 367.413 842.372 368.56 837.786 368.56ZM849.466 343.92C849.252 340.4 848.052 337.493 845.866 335.2C843.679 332.853 840.852 331.68 837.386 331.68C833.972 331.68 831.119 332.8 828.826 335.04C826.586 337.227 825.172 340.187 824.586 343.92H849.466ZM879.51 368.56C875.937 368.56 872.657 367.733 869.67 366.08C866.737 364.373 864.39 361.973 862.63 358.88C860.923 355.733 860.07 352.053 860.07 347.84C860.07 343.627 860.897 339.973 862.55 336.88C864.203 333.733 866.47 331.333 869.35 329.68C872.283 328.027 875.563 327.2 879.19 327.2C883.457 327.2 887.083 328.373 890.07 330.72C893.11 333.067 895.11 336.16 896.07 340L890.71 341.52C889.91 338.427 888.497 336.027 886.47 334.32C884.443 332.613 881.937 331.76 878.95 331.76C876.443 331.76 874.203 332.427 872.23 333.76C870.257 335.04 868.71 336.907 867.59 339.36C866.47 341.76 865.91 344.56 865.91 347.76C865.91 351.173 866.523 354.107 867.75 356.56C869.03 359.013 870.71 360.88 872.79 362.16C874.87 363.387 877.163 364 879.67 364C882.603 364 885.057 363.12 887.03 361.36C889.057 359.547 890.523 357.173 891.43 354.24L896.63 355.6C895.457 359.44 893.403 362.56 890.47 364.96C887.537 367.36 883.883 368.56 879.51 368.56ZM903.112 312H908.552V347.04L928.152 327.76H934.792L916.392 345.84L934.792 368H928.552L912.952 349.2L908.552 353.52V368H903.112V312ZM956.211 342.08V346.48H933.171V342.08H956.211ZM963.11 327.76H968.63V368H963.11V327.76ZM962.95 314.4H968.87V322H962.95V314.4ZM979.36 327.76H984.88V338C986.427 334.8 988.533 332.213 991.2 330.24C993.92 328.213 997.013 327.2 1000.48 327.2C1004 327.2 1006.72 328.373 1008.64 330.72C1010.56 333.013 1011.52 336.427 1011.52 340.96V368H1006V341.6C1006 335.093 1003.39 331.84 998.16 331.84C994.853 331.84 991.973 333.227 989.52 336C987.12 338.72 985.573 341.973 984.88 345.76V368H979.36V327.76Z" fill="#262424"/>
<path d="M1401.08 312H1419.16C1425.08 312 1429.75 313.44 1433.16 316.32C1436.57 319.2 1438.28 323.227 1438.28 328.4C1438.28 332.453 1437.11 335.84 1434.76 338.56C1432.41 341.28 1429.61 343.04 1426.36 343.84L1440.04 368H1433.8L1421.16 345.28H1406.84V368H1401.08V312ZM1419.8 340.56C1423.53 340.56 1426.55 339.52 1428.84 337.44C1431.19 335.307 1432.36 332.373 1432.36 328.64C1432.36 324.8 1431.08 321.867 1428.52 319.84C1426.01 317.76 1422.49 316.72 1417.96 316.72H1406.84V340.56H1419.8ZM1462.54 368.56C1458.86 368.56 1455.55 367.733 1452.62 366.08C1449.74 364.373 1447.47 361.973 1445.82 358.88C1444.16 355.733 1443.34 352.08 1443.34 347.92C1443.34 344.027 1444.11 340.507 1445.66 337.36C1447.2 334.213 1449.42 331.733 1452.3 329.92C1455.18 328.107 1458.48 327.2 1462.22 327.2C1465.68 327.2 1468.75 328 1471.42 329.6C1474.08 331.147 1476.14 333.28 1477.58 336C1479.02 338.72 1479.74 341.76 1479.74 345.12C1479.74 346.187 1479.66 347.2 1479.5 348.16H1449.02C1449.07 351.52 1449.71 354.4 1450.94 356.8C1452.16 359.2 1453.79 361.04 1455.82 362.32C1457.9 363.547 1460.22 364.16 1462.78 364.16C1468.48 364.16 1472.48 361.147 1474.78 355.12L1479.74 356.4C1478.67 359.867 1476.67 362.773 1473.74 365.12C1470.86 367.413 1467.12 368.56 1462.54 368.56ZM1474.22 343.92C1474 340.4 1472.8 337.493 1470.62 335.2C1468.43 332.853 1465.6 331.68 1462.14 331.68C1458.72 331.68 1455.87 332.8 1453.58 335.04C1451.34 337.227 1449.92 340.187 1449.34 343.92H1474.22ZM1487.63 327.76H1493.15V337.04C1494.48 333.947 1496.4 331.547 1498.91 329.84C1501.41 328.08 1504.37 327.2 1507.79 327.2C1511.04 327.2 1513.95 328.053 1516.51 329.76C1519.07 331.413 1521.04 333.813 1522.43 336.96C1523.87 340.107 1524.59 343.76 1524.59 347.92C1524.59 352.027 1523.81 355.653 1522.27 358.8C1520.77 361.947 1518.72 364.373 1516.11 366.08C1513.55 367.787 1510.75 368.64 1507.71 368.64C1504.35 368.587 1501.41 367.707 1498.91 366C1496.4 364.293 1494.48 361.893 1493.15 358.8V384H1487.63V327.76ZM1493.15 349.68C1493.36 352.453 1494.08 354.933 1495.31 357.12C1496.53 359.307 1498.08 361.013 1499.95 362.24C1501.87 363.467 1503.92 364.08 1506.11 364.08C1508.56 364.08 1510.75 363.44 1512.67 362.16C1514.59 360.827 1516.08 358.933 1517.15 356.48C1518.27 354.027 1518.83 351.173 1518.83 347.92C1518.83 342.96 1517.68 339.013 1515.39 336.08C1513.09 333.147 1510.08 331.68 1506.35 331.68C1502.77 331.68 1499.76 333.013 1497.31 335.68C1494.91 338.347 1493.52 341.787 1493.15 346V349.68ZM1549.02 368.48C1545.39 368.48 1542.11 367.653 1539.18 366C1536.3 364.293 1534.01 361.893 1532.3 358.8C1530.65 355.653 1529.82 352.027 1529.82 347.92C1529.82 343.813 1530.65 340.187 1532.3 337.04C1534.01 333.893 1536.33 331.467 1539.26 329.76C1542.19 328.053 1545.45 327.2 1549.02 327.2C1552.59 327.2 1555.82 328.053 1558.7 329.76C1561.63 331.467 1563.93 333.893 1565.58 337.04C1567.29 340.187 1568.14 343.813 1568.14 347.92C1568.14 352.027 1567.29 355.653 1565.58 358.8C1563.93 361.893 1561.63 364.293 1558.7 366C1555.82 367.653 1552.59 368.48 1549.02 368.48ZM1535.66 347.92C1535.66 352.933 1536.89 356.88 1539.34 359.76C1541.85 362.587 1545.07 364 1549.02 364C1552.97 364 1556.17 362.587 1558.62 359.76C1561.13 356.88 1562.38 352.933 1562.38 347.92C1562.38 342.853 1561.15 338.907 1558.7 336.08C1556.25 333.2 1553.02 331.76 1549.02 331.76C1545.02 331.76 1541.79 333.2 1539.34 336.08C1536.89 338.907 1535.66 342.853 1535.66 347.92ZM1575.83 327.76H1581.35V338.64C1582.52 335.12 1584.23 332.347 1586.47 330.32C1588.71 328.24 1591.4 327.2 1594.55 327.2H1594.71V332.96C1590.66 332.96 1587.4 334.32 1584.95 337.04C1582.55 339.707 1581.35 343.627 1581.35 348.8V368H1575.83V327.76ZM1612.89 368C1609.58 368 1607 367.093 1605.13 365.28C1603.26 363.413 1602.33 360.827 1602.33 357.52V332.32H1597.37V327.76H1602.33V319.44L1607.85 316.64V327.76H1617.69V332.32H1607.85V357.28C1607.85 359.147 1608.33 360.64 1609.29 361.76C1610.25 362.827 1611.58 363.36 1613.29 363.36H1617.69V368H1612.89Z" fill="#262424"/>
<path d="M1933.08 254H1966.12V258.72H1938.84V278.56H1961.8V283.28H1938.84V305.28H1966.12V310H1933.08V254ZM1982.5 289.6L1968.5 269.76H1974.58L1986.02 286.08L1997.22 269.76H2002.9L1988.9 290.16L2002.82 310H1996.82L1985.38 293.68L1974.18 310H1968.5L1982.5 289.6ZM2020.67 310C2017.36 310 2014.78 309.093 2012.91 307.28C2011.04 305.413 2010.11 302.827 2010.11 299.52V274.32H2005.15V269.76H2010.11V261.44L2015.63 258.64V269.76H2025.47V274.32H2015.63V299.28C2015.63 301.147 2016.11 302.64 2017.07 303.76C2018.03 304.827 2019.36 305.36 2021.07 305.36H2025.47V310H2020.67ZM2031.89 269.76H2037.41V280.64C2038.58 277.12 2040.29 274.347 2042.53 272.32C2044.77 270.24 2047.46 269.2 2050.61 269.2H2050.77V274.96C2046.72 274.96 2043.46 276.32 2041.01 279.04C2038.61 281.707 2037.41 285.627 2037.41 290.8V310H2031.89V269.76ZM2080.12 283.2C2080.12 280.213 2079.32 277.893 2077.72 276.24C2076.12 274.587 2073.72 273.76 2070.52 273.76C2067.58 273.76 2065.13 274.453 2063.16 275.84C2061.24 277.227 2059.85 279.173 2059 281.68L2053.96 280.32C2055.02 277.067 2057.02 274.4 2059.96 272.32C2062.89 270.24 2066.49 269.2 2070.76 269.2C2075.56 269.2 2079.24 270.427 2081.8 272.88C2084.36 275.28 2085.64 278.72 2085.64 283.2V310H2080.12V301.76C2078.68 304.533 2076.6 306.693 2073.88 308.24C2071.21 309.787 2068.28 310.56 2065.08 310.56C2061.45 310.56 2058.44 309.627 2056.04 307.76C2053.69 305.84 2052.52 303.227 2052.52 299.92C2052.52 295.92 2053.96 293.013 2056.84 291.2C2059.77 289.387 2063.82 288.267 2069 287.84C2072.52 287.573 2075.16 287.173 2076.92 286.64C2078.73 286.107 2079.8 285.2 2080.12 283.92V283.2ZM2058.36 299.28C2058.36 301.68 2059.18 303.467 2060.84 304.64C2062.54 305.76 2064.65 306.32 2067.16 306.32C2070.46 306.32 2073.37 305.227 2075.88 303.04C2078.38 300.853 2079.8 297.867 2080.12 294.08V288.24C2078.46 290.107 2075.26 291.253 2070.52 291.68C2066.36 292.053 2063.29 292.747 2061.32 293.76C2059.34 294.773 2058.36 296.613 2058.36 299.28ZM2109.32 310.56C2104.58 310.56 2100.74 309.467 2097.8 307.28C2094.87 305.04 2092.9 302.187 2091.88 298.72L2097 297.44C2099.03 303.307 2103.16 306.24 2109.4 306.24C2112.44 306.24 2114.79 305.6 2116.44 304.32C2118.1 303.04 2118.92 301.28 2118.92 299.04C2118.92 297.12 2118.26 295.653 2116.92 294.64C2115.64 293.627 2113.62 292.747 2110.84 292L2104.44 290.4C2100.76 289.493 2097.99 288.293 2096.12 286.8C2094.31 285.307 2093.4 283.147 2093.4 280.32C2093.4 276.96 2094.68 274.267 2097.24 272.24C2099.86 270.213 2103.27 269.2 2107.48 269.2C2111.7 269.2 2115.19 270.16 2117.96 272.08C2120.74 273.947 2122.63 276.507 2123.64 279.76L2118.52 281.04C2117.72 278.693 2116.39 276.853 2114.52 275.52C2112.66 274.187 2110.28 273.52 2107.4 273.52C2104.74 273.52 2102.58 274.107 2100.92 275.28C2099.32 276.4 2098.52 277.973 2098.52 280C2098.52 281.76 2099.14 283.12 2100.36 284.08C2101.59 284.987 2103.35 285.733 2105.64 286.32L2112.76 288C2116.55 288.907 2119.38 290.213 2121.24 291.92C2123.11 293.573 2124.04 295.867 2124.04 298.8C2124.04 302.373 2122.74 305.227 2120.12 307.36C2117.56 309.493 2113.96 310.56 2109.32 310.56ZM2165.95 287.44H2151.15V282.88H2165.95V267.92H2170.83V282.88H2185.71V287.44H2170.83V302.48H2165.95V287.44ZM1933.08 351H1965.72V355.72H1938.84V377.16H1961.4V381.88H1938.84V407H1933.08V351ZM2000.53 407.08H1995.01V396.68C1993.46 399.933 1991.33 402.573 1988.61 404.6C1985.94 406.573 1982.9 407.56 1979.49 407.56C1975.91 407.56 1973.14 406.413 1971.17 404.12C1969.25 401.827 1968.29 398.387 1968.29 393.8L1968.37 366.76H1973.89L1973.81 393.16C1973.81 399.667 1976.42 402.92 1981.65 402.92C1983.89 402.92 1985.94 402.28 1987.81 401C1989.67 399.667 1991.22 397.933 1992.45 395.8C1993.73 393.667 1994.58 391.4 1995.01 389V366.76H2000.53V407.08ZM2011.27 366.76H2016.79V377.64C2017.96 374.12 2019.67 371.347 2021.91 369.32C2024.15 367.24 2026.84 366.2 2029.99 366.2H2030.15V371.96C2026.09 371.96 2022.84 373.32 2020.39 376.04C2017.99 378.707 2016.79 382.627 2016.79 387.8V407H2011.27V366.76ZM2048.33 407C2045.02 407 2042.43 406.093 2040.57 404.28C2038.7 402.413 2037.77 399.827 2037.77 396.52V371.32H2032.81V366.76H2037.77V358.44L2043.29 355.64V366.76H2053.13V371.32H2043.29V396.28C2043.29 398.147 2043.77 399.64 2044.73 400.76C2045.69 401.827 2047.02 402.36 2048.73 402.36H2053.13V407H2048.33ZM2059.63 351H2065.07V377.16C2066.61 373.907 2068.75 371.267 2071.47 369.24C2074.19 367.213 2077.28 366.2 2080.75 366.2C2084.27 366.2 2086.99 367.373 2088.91 369.72C2090.83 372.013 2091.79 375.427 2091.79 379.96V407H2086.27V380.6C2086.27 374.093 2083.65 370.84 2078.43 370.84C2076.13 370.84 2074.03 371.533 2072.11 372.92C2070.24 374.253 2068.69 376.013 2067.47 378.2C2066.24 380.387 2065.44 382.733 2065.07 385.24V407H2059.63V351ZM2118.29 407.56C2114.61 407.56 2111.3 406.733 2108.37 405.08C2105.49 403.373 2103.22 400.973 2101.57 397.88C2099.91 394.733 2099.09 391.08 2099.09 386.92C2099.09 383.027 2099.86 379.507 2101.41 376.36C2102.95 373.213 2105.17 370.733 2108.05 368.92C2110.93 367.107 2114.23 366.2 2117.97 366.2C2121.43 366.2 2124.5 367 2127.17 368.6C2129.83 370.147 2131.89 372.28 2133.33 375C2134.77 377.72 2135.49 380.76 2135.49 384.12C2135.49 385.187 2135.41 386.2 2135.25 387.16H2104.77C2104.82 390.52 2105.46 393.4 2106.69 395.8C2107.91 398.2 2109.54 400.04 2111.57 401.32C2113.65 402.547 2115.97 403.16 2118.53 403.16C2124.23 403.16 2128.23 400.147 2130.53 394.12L2135.49 395.4C2134.42 398.867 2132.42 401.773 2129.49 404.12C2126.61 406.413 2122.87 407.56 2118.29 407.56ZM2129.97 382.92C2129.75 379.4 2128.55 376.493 2126.37 374.2C2124.18 371.853 2121.35 370.68 2117.89 370.68C2114.47 370.68 2111.62 371.8 2109.33 374.04C2107.09 376.227 2105.67 379.187 2105.09 382.92H2129.97ZM2143.38 366.76H2148.9V377.64C2150.07 374.12 2151.78 371.347 2154.02 369.32C2156.26 367.24 2158.95 366.2 2162.1 366.2H2162.26V371.96C2158.2 371.96 2154.95 373.32 2152.5 376.04C2150.1 378.707 2148.9 382.627 2148.9 387.8V407H2143.38V366.76ZM2214.1 380.2C2214.1 377.213 2213.3 374.893 2211.7 373.24C2210.1 371.587 2207.7 370.76 2204.5 370.76C2201.57 370.76 2199.12 371.453 2197.14 372.84C2195.22 374.227 2193.84 376.173 2192.98 378.68L2187.94 377.32C2189.01 374.067 2191.01 371.4 2193.94 369.32C2196.88 367.24 2200.48 366.2 2204.74 366.2C2209.54 366.2 2213.22 367.427 2215.78 369.88C2218.34 372.28 2219.62 375.72 2219.62 380.2V407H2214.1V398.76C2212.66 401.533 2210.58 403.693 2207.86 405.24C2205.2 406.787 2202.26 407.56 2199.06 407.56C2195.44 407.56 2192.42 406.627 2190.02 404.76C2187.68 402.84 2186.5 400.227 2186.5 396.92C2186.5 392.92 2187.94 390.013 2190.82 388.2C2193.76 386.387 2197.81 385.267 2202.98 384.84C2206.5 384.573 2209.14 384.173 2210.9 383.64C2212.72 383.107 2213.78 382.2 2214.1 380.92V380.2ZM2192.34 396.28C2192.34 398.68 2193.17 400.467 2194.82 401.64C2196.53 402.76 2198.64 403.32 2201.14 403.32C2204.45 403.32 2207.36 402.227 2209.86 400.04C2212.37 397.853 2213.78 394.867 2214.1 391.08V385.24C2212.45 387.107 2209.25 388.253 2204.5 388.68C2200.34 389.053 2197.28 389.747 2195.3 390.76C2193.33 391.773 2192.34 393.613 2192.34 396.28ZM2246.18 407.56C2242.61 407.56 2239.33 406.733 2236.34 405.08C2233.41 403.373 2231.06 400.973 2229.3 397.88C2227.6 394.733 2226.74 391.053 2226.74 386.84C2226.74 382.627 2227.57 378.973 2229.22 375.88C2230.88 372.733 2233.14 370.333 2236.02 368.68C2238.96 367.027 2242.24 366.2 2245.86 366.2C2250.13 366.2 2253.76 367.373 2256.74 369.72C2259.78 372.067 2261.78 375.16 2262.74 379L2257.38 380.52C2256.58 377.427 2255.17 375.027 2253.14 373.32C2251.12 371.613 2248.61 370.76 2245.62 370.76C2243.12 370.76 2240.88 371.427 2238.9 372.76C2236.93 374.04 2235.38 375.907 2234.26 378.36C2233.14 380.76 2232.58 383.56 2232.58 386.76C2232.58 390.173 2233.2 393.107 2234.42 395.56C2235.7 398.013 2237.38 399.88 2239.46 401.16C2241.54 402.387 2243.84 403 2246.34 403C2249.28 403 2251.73 402.12 2253.7 400.36C2255.73 398.547 2257.2 396.173 2258.1 393.24L2263.3 394.6C2262.13 398.44 2260.08 401.56 2257.14 403.96C2254.21 406.36 2250.56 407.56 2246.18 407.56ZM2281.3 407C2277.99 407 2275.4 406.093 2273.54 404.28C2271.67 402.413 2270.74 399.827 2270.74 396.52V371.32H2265.78V366.76H2270.74V358.44L2276.26 355.64V366.76H2286.1V371.32H2276.26V396.28C2276.26 398.147 2276.74 399.64 2277.7 400.76C2278.66 401.827 2279.99 402.36 2281.7 402.36H2286.1V407H2281.3ZM2292.52 366.76H2298.04V407H2292.52V366.76ZM2292.36 353.4H2298.28V361H2292.36V353.4ZM2324.85 407.48C2321.22 407.48 2317.94 406.653 2315.01 405C2312.13 403.293 2309.83 400.893 2308.13 397.8C2306.47 394.653 2305.65 391.027 2305.65 386.92C2305.65 382.813 2306.47 379.187 2308.13 376.04C2309.83 372.893 2312.15 370.467 2315.09 368.76C2318.02 367.053 2321.27 366.2 2324.85 366.2C2328.42 366.2 2331.65 367.053 2334.53 368.76C2337.46 370.467 2339.75 372.893 2341.41 376.04C2343.11 379.187 2343.97 382.813 2343.97 386.92C2343.97 391.027 2343.11 394.653 2341.41 397.8C2339.75 400.893 2337.46 403.293 2334.53 405C2331.65 406.653 2328.42 407.48 2324.85 407.48ZM2311.49 386.92C2311.49 391.933 2312.71 395.88 2315.17 398.76C2317.67 401.587 2320.9 403 2324.85 403C2328.79 403 2331.99 401.587 2334.45 398.76C2336.95 395.88 2338.21 391.933 2338.21 386.92C2338.21 381.853 2336.98 377.907 2334.53 375.08C2332.07 372.2 2328.85 370.76 2324.85 370.76C2320.85 370.76 2317.62 372.2 2315.17 375.08C2312.71 377.907 2311.49 381.853 2311.49 386.92ZM2351.74 366.76H2357.26V377C2358.8 373.8 2360.91 371.213 2363.58 369.24C2366.3 367.213 2369.39 366.2 2372.86 366.2C2376.38 366.2 2379.1 367.373 2381.02 369.72C2382.94 372.013 2383.9 375.427 2383.9 379.96V407H2378.38V380.6C2378.38 374.093 2375.76 370.84 2370.54 370.84C2367.23 370.84 2364.35 372.227 2361.9 375C2359.5 377.72 2357.95 380.973 2357.26 384.76V407H2351.74V366.76ZM2408.07 407.56C2403.33 407.56 2399.49 406.467 2396.55 404.28C2393.62 402.04 2391.65 399.187 2390.63 395.72L2395.75 394.44C2397.78 400.307 2401.91 403.24 2408.15 403.24C2411.19 403.24 2413.54 402.6 2415.19 401.32C2416.85 400.04 2417.67 398.28 2417.67 396.04C2417.67 394.12 2417.01 392.653 2415.67 391.64C2414.39 390.627 2412.37 389.747 2409.59 389L2403.19 387.4C2399.51 386.493 2396.74 385.293 2394.87 383.8C2393.06 382.307 2392.15 380.147 2392.15 377.32C2392.15 373.96 2393.43 371.267 2395.99 369.24C2398.61 367.213 2402.02 366.2 2406.23 366.2C2410.45 366.2 2413.94 367.16 2416.71 369.08C2419.49 370.947 2421.38 373.507 2422.39 376.76L2417.27 378.04C2416.47 375.693 2415.14 373.853 2413.27 372.52C2411.41 371.187 2409.03 370.52 2406.15 370.52C2403.49 370.52 2401.33 371.107 2399.67 372.28C2398.07 373.4 2397.27 374.973 2397.27 377C2397.27 378.76 2397.89 380.12 2399.11 381.08C2400.34 381.987 2402.1 382.733 2404.39 383.32L2411.51 385C2415.3 385.907 2418.13 387.213 2419.99 388.92C2421.86 390.573 2422.79 392.867 2422.79 395.8C2422.79 399.373 2421.49 402.227 2418.87 404.36C2416.31 406.493 2412.71 407.56 2408.07 407.56Z" fill="black"/>
</svg>
