<svg width="1053" height="346" viewBox="0 0 1053 346" fill="none" xmlns="http://www.w3.org/2000/svg">
<path d="M851.347 345.312C851.347 344.945 851.647 344.645 852.014 344.645C852.381 344.645 852.681 344.945 852.681 345.312C852.681 345.678 852.381 345.978 852.014 345.978C851.647 345.978 851.347 345.678 851.347 345.312ZM852.681 342.645C852.681 342.278 852.981 341.978 853.347 341.978C853.714 341.978 854.014 342.278 854.014 342.645C854.014 343.011 853.714 343.312 853.347 343.312C852.981 343.312 852.681 343.011 852.681 342.645ZM854.606 335.312C855.056 332.745 856.047 326.445 856.809 321.312C857.572 316.178 859.359 304.478 860.781 295.312C862.203 286.145 863.362 275.175 863.357 270.934L863.348 263.223L860.15 256.934L856.952 250.645L851.381 244.978C844.826 238.312 844.366 238.218 840.985 242.86L838.4 246.409L836.026 240.194L833.652 233.978H829.981H826.31L823.162 231.336L820.014 228.695L824.404 229.514L828.793 230.334L830.737 227.823L832.681 225.312L834.681 227.9L836.681 230.488V234.9V239.312L837.681 239.27C838.231 239.247 839.846 238.346 841.269 237.27L843.857 235.312H846.936H850.014V238.645V241.979H853.347H856.681L856.688 243.645C856.692 244.562 858.791 249.398 861.354 254.393L866.015 263.474L865.994 270.393C865.983 274.198 864.75 283.912 863.254 291.979C861.758 300.045 860.19 310.845 859.77 315.979C859.35 321.112 858.484 326.323 857.844 327.558C857.205 328.793 856.672 331.193 856.661 332.891C856.65 334.589 855.999 336.879 855.215 337.979L853.79 339.979L854.606 335.312ZM807.212 336.312C806.768 330.835 807.791 324.226 810.305 316.315L813.165 307.318L810.869 294.315L808.573 281.312L804.374 270.645C799.838 259.123 795.902 252.142 790.265 245.627C780.106 233.885 777.398 231.164 770.985 226.25C767.151 223.312 759.986 218.748 755.064 216.106L746.113 211.303L738.825 209.405C734.817 208.361 730.444 206.948 729.109 206.264C727.773 205.581 719.972 203.962 711.772 202.668L696.863 200.314L687.127 202.513L677.392 204.711L668.036 209.55C653.897 216.863 646.548 223.574 632.337 242.149C631.048 243.835 628.744 248.535 627.218 252.596L624.444 259.978L624.391 265.312C624.361 268.245 624.415 272.587 624.509 274.961L624.681 279.278L630.347 282.906L636.014 286.533L633.845 286.989L631.677 287.444L625.352 283.175L619.028 278.907L619.632 268.483L620.235 258.06L625.132 248.152L630.028 238.245L633.331 235.111C635.148 233.388 636.645 231.444 636.658 230.792C636.67 230.139 640.262 226.143 644.64 221.913L652.599 214.221L660.307 209.565L668.014 204.908L678.078 201.456L688.141 198.003L696.078 197.92C700.443 197.874 707.314 198.408 711.347 199.107C720.746 200.734 720.314 202.229 716.791 180.289C712.943 156.323 713.185 157.67 712.303 155.312C711.891 154.212 710.539 150.012 709.297 145.979C708.055 141.945 703.237 129.832 698.59 119.061L690.14 99.4761L689.253 89.6877L688.366 79.8994L690.676 77.9822L692.986 76.0649L695.486 79.1514C696.86 80.8489 698.68 84.5597 699.531 87.3977L701.077 92.5579L702.212 91.8562C702.836 91.4702 703.347 89.3601 703.347 87.167V83.1794L705.382 79.2456L707.416 75.312H709.219H711.022L713.057 78.312L715.092 81.312L716.414 77.9238C717.141 76.0604 718.67 73.7608 719.811 72.8137L721.886 71.0916L724.488 71.9175L727.09 72.7432L729.212 77.2139L731.333 81.6846L733.674 81.4983L736.014 81.312L737.271 85.5798L738.529 89.8481L742.563 90.2466L746.597 90.6453L747.81 94.9036C748.477 97.2458 748.723 99.9458 748.355 100.904C747.988 101.861 747.572 103.084 747.431 103.621C747.29 104.157 746.645 106.444 745.998 108.703L744.82 112.81L747.412 117.061C748.838 119.399 750.006 122.542 750.009 124.045C750.012 125.548 750.578 127.348 751.267 128.045C751.957 128.742 754.079 136.512 755.983 145.312C763.022 177.843 764.229 180.008 766.248 163.73C766.959 158 767.812 151.212 768.144 148.645C768.476 146.079 769.969 139.179 771.461 133.312L774.174 122.645L778.278 115.312C791.037 92.51 815.957 71.8605 838.692 65.2515L846.589 62.9556L863.968 63.6824L881.347 64.4092L886.014 65.99C895.249 69.1186 905.897 74.7688 921.171 84.6453C937.709 95.3397 939.341 96.6251 950.453 107.71L961.415 118.645L965.192 125.758L968.97 132.871L970.987 141.091L973.005 149.312L972.995 164.979L972.985 180.645H974.055C976.364 180.645 986.884 169.984 997.738 156.645C1004 148.945 1011.8 139.854 1015.06 136.441L1020.99 130.238L1021.31 125.108C1021.5 122.287 1022.31 118.329 1023.13 116.312L1024.61 112.645H1027.22H1029.83L1032.56 116.471C1036.18 121.561 1038.07 126.771 1038.28 132.214L1038.45 136.687L1040.96 135.889L1043.48 135.092L1045.41 136.698L1047.35 138.305V140.932V143.558L1050.01 146.948C1053.19 150.983 1053.42 154.371 1050.68 156.645L1048.68 158.305V160.697V163.09L1050.29 163.625L1051.89 164.159L1050.12 172.069C1049.14 176.419 1047.81 182.193 1047.15 184.899L1045.95 189.819L1043.32 192.899C1039.27 197.644 1033.81 206.193 1031.86 210.838L1030.1 215.031L1030.67 224.172L1031.24 233.312L1029.83 230.859L1028.41 228.406V220.686V212.966L1031.02 207.085C1032.45 203.851 1035.73 198.229 1038.31 194.592C1040.89 190.954 1043.76 185.622 1044.69 182.741L1046.38 177.505L1046.72 166.389L1047.05 155.272L1048.7 153.292L1050.34 151.312L1048.72 149.364C1047.83 148.292 1045.94 147.044 1044.5 146.589L1041.9 145.764L1042.71 143.204L1043.53 140.645H1042.68C1042.22 140.645 1040.63 141.291 1039.16 142.081L1036.47 143.517L1034.4 142.72L1032.32 141.923L1034.63 139.367L1036.94 136.812L1036.07 131.617C1035.58 128.76 1034.03 124.522 1032.62 122.2L1030.05 117.979H1028.03H1026.01V123.815V129.652L1028.03 131.325L1030.05 132.999L1028.72 134.595L1027.4 136.191L1023.71 135.653L1020.01 135.115L1014.01 140.898C1010.71 144.079 1005.93 149.373 1003.39 152.663C1000.85 155.953 992.832 165.51 985.579 173.901C978.325 182.291 971.933 190.391 971.373 191.901C970.813 193.41 969.604 197.045 968.687 199.979C966.082 208.306 961.021 218.238 957.009 222.896L953.347 227.147L950.819 227.563L948.291 227.979L947.679 226.224L947.066 224.469L949.716 223.776L952.366 223.083L958.416 214.198L964.465 205.312L965.388 200.312L966.311 195.312H965.127C961.562 195.312 940.681 219.785 940.681 223.962V226.201L939.247 225.723C938.459 225.46 937.859 224.81 937.914 224.279C937.969 223.747 938.014 221.97 938.014 220.331V217.349L953.367 202.487L968.72 187.624L969.523 179.802C974.411 132.189 961.054 110.339 908.681 80.2764L893.347 71.4751L885.52 69.2522L877.692 67.0291L858.186 67.5967L838.681 68.1646L831.114 71.6206C821.281 76.1118 810.049 83.8444 799.786 93.188L791.557 100.679L785.696 108.995C776.659 121.819 772.989 131.085 770.786 146.645C770.578 148.112 769.963 151.884 769.419 155.027L768.43 160.741L769.37 168.842L770.31 176.941L772.94 179.571C776.867 183.498 775.115 183.742 770.014 179.979C765.159 176.397 762.271 176.793 766.746 180.427C768.248 181.647 769.879 183.695 770.37 184.979L771.264 187.312L770.306 187.292C768.221 187.248 766.264 185.035 762.831 178.839L759.244 172.366L757.22 163.506C749.824 131.129 746.074 118.331 743.519 116.752L741.974 115.797L743.564 105.569L745.154 95.3416L744.308 94.4956L743.462 93.6497L741.405 94.4392L739.347 95.2288V98.6038V101.979H738.039H736.732L735.914 98.7214L735.096 95.4639L736.023 93.9651L736.949 92.4661L734.311 91.7764L731.672 91.0864L730.177 87.8032C729.354 85.9975 728.681 83.7149 728.681 82.7307C728.681 81.7464 727.523 79.5248 726.109 77.7935L723.537 74.6458L722.015 76.1396C721.177 76.9614 719.756 80.5211 718.856 84.05C717.955 87.5789 716.648 90.65 715.95 90.8745L714.681 91.2827L712.446 85.9641L710.212 80.6458H708.78H707.347V87.2034C707.347 90.8101 706.983 94.7099 706.538 95.8699L705.729 97.979H703.131H700.534L697.345 90.7683C695.591 86.8024 693.43 83.1091 692.544 82.561L690.931 81.5645L691.895 86.7717C692.425 89.6357 693.112 94.3567 693.423 97.2627C693.733 100.169 695.193 105.112 696.667 108.248C698.141 111.384 699.347 114.262 699.347 114.643C699.347 115.025 701.713 120.881 704.605 127.658L709.863 139.979L713.811 154.646C715.983 162.712 719.118 176.6 720.778 185.507L723.797 201.701L735.905 205.328C749.462 209.389 757.864 213.319 768.722 220.682L776.097 225.682L784.056 234.214C788.433 238.906 794.258 246.023 797 250.029L801.986 257.312L806.876 269.312L811.766 281.312L813.185 290.312L814.604 299.312H815.684C816.278 299.312 817.11 298.262 817.532 296.979C817.954 295.696 819.137 292.751 820.161 290.436C821.915 286.468 825.298 271.48 826.434 262.646L826.948 258.646L827.101 264.646L827.254 270.646L825.385 278.646C821.86 293.737 820.752 297.591 818.258 303.446L815.758 309.312L814.825 318.646L813.891 327.979L811.619 332.945C809.327 337.955 807.461 339.38 807.212 336.312ZM734.014 87.9783C734.014 87.6117 733.714 87.3115 733.347 87.3115C732.981 87.3115 732.681 87.6117 732.681 87.9783C732.681 88.345 732.981 88.6448 733.347 88.6448C733.714 88.6448 734.014 88.345 734.014 87.9783ZM603.332 331.938L597.316 330.083L591.998 325.096C589.074 322.353 583.981 318.654 580.681 316.876C569.699 310.959 552.825 294.203 552.644 289.035C552.623 288.454 550.823 285.621 548.644 282.741L544.681 277.503V274.454V271.405L547.26 270.025C548.678 269.266 552.128 268.636 554.926 268.625C557.725 268.614 560.885 268.053 561.95 267.379L563.887 266.154L560.127 262.399C555.796 258.074 554.014 254.068 554.014 248.655V244.838L557.527 242.075C562.591 238.092 562.423 237.998 577.57 253.255C585.183 260.924 593.198 268.254 595.38 269.543C597.562 270.832 599.347 272.307 599.347 272.821C599.347 273.335 605.003 278.305 611.915 283.864C618.827 289.424 625.774 295.624 627.353 297.642C628.931 299.66 634.158 305.379 638.968 310.351L647.713 319.39L646.837 320.266L645.961 321.142L628.235 303.483C618.486 293.77 608.996 284.808 607.145 283.567C601.886 280.041 588.203 267.756 575.237 254.919L563.393 243.193L560.703 244.633L558.014 246.072V250.932V255.792L564.014 261.379C571.99 268.807 570.963 270.119 555.681 272.023L548.681 272.895V275.334V277.773L552.014 281.735C553.847 283.914 555.347 286.168 555.347 286.744C555.347 287.32 557.241 290.534 559.556 293.885L563.765 299.978L570.763 305.813C574.612 309.023 580.958 313.397 584.864 315.533C588.771 317.67 592.467 320.311 593.079 321.403C594.55 324.033 603.079 329.321 607.681 330.457L611.347 331.362V332.67C611.347 334.29 610.801 334.24 603.332 331.938ZM409.651 312.092C406.775 309.215 406.743 309.566 410.435 303.618C412.134 300.883 414.928 294.745 416.644 289.978C418.36 285.212 422.114 276.379 424.985 270.349L430.206 259.387L434.212 256.016C436.416 254.162 439.039 252.645 440.041 252.645H441.863L443.938 255.608L446.014 258.572V270.196V281.821L447.608 282.806L449.203 283.792L453.275 278.662C455.515 275.84 459.527 271.232 462.19 268.422L467.034 263.312H469.921H472.808L476.079 266.841L479.35 270.371L480.75 275.569L482.15 280.766L486.415 283.367C488.761 284.798 491.695 285.97 492.935 285.973C494.175 285.973 495.617 286.67 496.139 287.514L497.089 289.051L491.695 288.327L486.301 287.604L482.112 284.506L477.922 281.408L477.244 278.027C476.871 276.167 475.822 273.145 474.914 271.312L473.263 267.978L469.671 267.56L466.079 267.141L461.713 273.531C459.312 277.046 455.744 281.585 453.783 283.617L450.219 287.312H448.212C447.108 287.312 445.262 286.369 444.109 285.216L442.014 283.121V270.628V258.135L440.708 257.329L439.402 256.521L436.644 257.998C435.128 258.809 433.317 260.787 432.62 262.393C431.924 263.998 430.76 266.212 430.035 267.312C427.914 270.53 422.445 283.631 421.418 287.957C420.898 290.146 418.935 295.246 417.054 299.291C415.174 303.335 413.257 308.389 412.796 310.521L411.956 314.396L409.651 312.092ZM81.3539 291.322L80.5364 289.999L81.7086 287.905L82.881 285.81L84.5623 287.835L86.2435 289.861L85.3834 291.253C84.2976 293.01 82.417 293.042 81.3539 291.322ZM731.347 289.816C724.611 288.006 716.38 284.451 713.681 282.188L711.347 280.231V277.207V274.183L714.747 270.143L718.146 266.103L729.905 259.374L741.664 252.645H744.342H747.021L748.692 254.659C753.344 260.264 753.933 274.029 749.901 282.924C745.865 291.829 742.913 292.926 731.347 289.816ZM745.242 284.312C746.318 282.662 747.807 278.612 748.55 275.312L749.903 269.312L747.173 263.645L744.443 257.978H743.105C742.37 257.978 740.242 259.178 738.378 260.645C736.513 262.111 734.071 263.312 732.951 263.312C727.815 263.312 714.124 273.519 714.044 277.408L714.014 278.839L719.681 281.665C728.915 286.271 731.718 287.138 737.65 287.227L743.286 287.311L745.242 284.312ZM79.3474 286.645C79.3474 286.278 79.6473 285.978 80.014 285.978C80.3806 285.978 80.6807 286.278 80.6807 286.645C80.6807 287.011 80.3806 287.312 80.014 287.312C79.6473 287.312 79.3474 287.011 79.3474 286.645ZM76.3225 280.978C71.5519 275.69 67.0152 258.406 65.2104 238.645C64.8086 234.245 63.9285 228.545 63.2544 225.978C62.5804 223.412 62.0595 217.712 62.0968 213.312L62.1648 205.312L63.7562 200.645L65.3475 195.978L69.1322 195.545L72.9167 195.112L75.5272 197.474C77.7966 199.528 80.9828 204.972 86.5461 216.301L88.0143 219.291L91.5911 219.301L95.1678 219.311L95.9546 221.79L96.7413 224.268L95.9017 226.456C93.9371 231.576 90.0181 227.708 78.8693 209.644L72.4915 199.311H69.9576H67.4238L66.2621 203.644L65.1002 207.977L65.5941 217.311L66.088 226.644L70.793 246.644C75.0828 264.88 78.4223 277.282 80.2173 281.644L80.9032 283.311H79.6654C78.9846 283.311 77.4802 282.262 76.3225 280.978ZM408.14 277.645C407.889 276.728 406.938 272.678 406.028 268.645C405.118 264.611 402.548 257.411 400.318 252.645L396.263 243.978L387.827 235.678L379.392 227.378L363.036 216.443C354.041 210.429 343.381 203.316 339.347 200.637C335.314 197.958 326.314 193.009 319.347 189.64L306.681 183.513L296.014 181.079L285.347 178.645L262.681 178.705L240.014 178.765L230.014 182.401C224.514 184.4 216.114 187.206 211.347 188.635C198.513 192.482 188.91 196.743 180.649 202.255C172.996 207.362 171.938 208.423 162.014 220.947L156.014 228.518L153.014 228.581L150.014 228.644V226.677V224.709L154.347 220.708C156.731 218.508 162.881 212.729 168.014 207.865L177.347 199.023L184.014 195.194L190.681 191.365L213.347 183.832L236.014 176.299L247.347 174.687L258.681 173.075L253.707 170.853L248.733 168.631L246.576 165.338L244.419 162.046L245.016 155.678C245.344 152.176 246.453 147.267 247.48 144.769L249.347 140.228L247.681 139.658L246.014 139.089V136.133C246.014 134.507 247.096 128.106 248.419 121.91L250.824 110.645L249.844 104.178C247.835 90.9264 246.441 90.8451 240.707 103.645C235.898 114.378 233.694 122.089 231.464 135.978L229.965 145.311L230.521 151.311L231.076 157.311L233.849 163.311C235.374 166.611 236.635 170.79 236.651 172.597L236.68 175.883L234.881 173.93C233.892 172.856 231.748 168.591 230.117 164.452L227.151 156.926L224.249 154.388C222.653 152.993 218.222 150.778 214.404 149.467L207.46 147.084L206.07 147.943L204.68 148.802V146.802C204.68 145.702 205.192 144.486 205.817 144.099L206.953 143.397L214.056 145.993C217.963 147.421 221.771 149.202 222.52 149.95C223.268 150.699 224.36 151.311 224.947 151.311H226.014V147.349C226.014 142.788 233.178 114.788 236.202 107.529C237.321 104.842 239.599 99.9445 241.263 96.6445L244.29 90.6445L246.918 90.249L249.546 89.8538L251.447 95.5823L253.347 101.311L253.251 110.645L253.155 119.978L251.44 125.101L249.726 130.223L251.115 131.613L252.504 133.002L256.356 128.785L260.208 124.568L266.401 128.03C274.121 132.344 278.138 137.063 283.303 147.885L287.347 156.359V160.454V164.548L282.371 167.93C279.634 169.789 276.369 171.311 275.116 171.311C273.863 171.311 272.467 171.911 272.014 172.645L271.19 173.978H275.122C277.284 173.978 284.707 175.141 291.616 176.563L304.179 179.148L315.156 183.974C330.083 190.537 339.395 195.699 352.014 204.406C357.88 208.454 367.18 214.784 372.68 218.473L382.68 225.179L391.448 233.912L400.216 242.645L403.99 250.645C408.061 259.274 412.963 276.441 411.864 278.219C410.846 279.867 408.657 279.529 408.14 277.645ZM268.952 150.952L269.12 133.926L266.567 131.995C265.163 130.932 263.359 130.044 262.558 130.021L261.103 129.979L259.606 134.979L258.11 139.979L258.712 147.312C259.043 151.345 259.669 156.295 260.103 158.312L260.893 161.979H259.532C257.34 161.979 256.34 159.407 255.485 151.563L254.681 144.194L253.145 143.686L251.61 143.177L249.479 147.449C246.928 152.562 246.787 157.46 249.06 161.952L250.733 165.259L254.04 166.966L257.347 168.672L263.066 168.325L268.784 167.979L268.952 150.952ZM279.414 163.944L283.347 161.91V158.872V155.835L279.949 149.016C278.08 145.266 275.68 141.475 274.616 140.591L272.681 138.985V151.593V164.2L273.57 165.089C274.775 166.295 274.924 166.265 279.414 163.944ZM134.912 272.163C132.898 269.522 129.428 263.081 127.202 257.848L123.153 248.335L121.897 236.157C121.206 229.459 120.041 220.678 119.307 216.645C118.574 212.611 117.527 206.012 116.981 201.978L115.989 194.645H114.115H112.241L109.348 203.312L106.455 211.978L104.325 212.392L102.194 212.806L100.724 210.059L99.2535 207.312H96.7893H94.3251L93.3148 210.312L92.3044 213.312L91.7217 209.482L91.1389 205.653L92.5403 204.252L93.9417 202.851L97.374 204.414C99.2617 205.274 101.661 205.978 102.706 205.978H104.606L106.664 198.978C107.795 195.128 109.269 191.112 109.939 190.054L111.156 188.13L114.612 189.704L118.068 191.279L119.255 194.401C119.907 196.118 121.732 207.075 123.31 218.75C124.887 230.426 127.147 243.878 128.333 248.645L130.488 257.312L134.982 265.785C137.454 270.446 139.273 274.868 139.025 275.612L138.574 276.964L134.912 272.163ZM692.233 252.697L688.453 250.277L689.871 249.4L691.29 248.523L695.319 251.501C701.53 256.094 699.045 257.057 692.233 252.697ZM268.681 250.24L260.014 247.96L253.671 244.241L247.328 240.521L245.191 237.26L243.054 233.999L243.883 231.838L244.712 229.678L246.697 231.325C247.788 232.23 248.681 233.741 248.681 234.682V236.394L254.935 240.536C258.375 242.815 263.625 245.335 266.602 246.136L272.014 247.594L281.199 247.454C291.132 247.303 297.397 245.958 306.667 241.984L312.603 239.44L313.294 240.558L313.985 241.676L312.333 242.949C309.28 245.302 298.742 248.882 291.347 250.077C287.314 250.73 282.333 251.154 280.5 251.5C280.5 251.5 280 251.5 277 251.5C273.5 251.5 268.681 250.24 268.681 250.24ZM826.014 251.978C826.014 251.612 826.314 251.312 826.681 251.312C827.047 251.312 827.347 251.612 827.347 251.978C827.347 252.345 827.047 252.645 826.681 252.645C826.314 252.645 826.014 252.345 826.014 251.978ZM739.162 239.426L736.014 236.874L736.971 235.914L737.929 234.953L741.971 236.627L746.014 238.302V240.14V241.978H744.162C743.143 241.978 740.893 240.83 739.162 239.426ZM303.366 212.668L299.161 207.359L299.999 206.002C301.424 203.697 302.644 204.465 305.254 209.312C306.636 211.878 308.209 213.978 308.748 213.978C309.287 213.978 310.074 214.878 310.496 215.978L311.264 217.978H309.418H307.571L303.366 212.668ZM92.6807 215.978C92.6807 215.612 92.9807 215.312 93.3474 215.312C93.7141 215.312 94.014 215.612 94.014 215.978C94.014 216.345 93.7141 216.645 93.3474 216.645C92.9807 216.645 92.6807 216.345 92.6807 215.978ZM244.633 206.534C241.513 199.256 241.405 197.978 243.908 197.978H245.802L246.667 201.916C247.143 204.081 248.734 207.381 250.203 209.249L252.874 212.645H250.063H247.253L244.633 206.534ZM621.219 202.792L620.327 200.466L621.837 198.955L623.347 197.445L623.348 186.045C623.349 179.775 623.942 168.345 624.666 160.645L625.982 146.645L624.833 139.978C621.675 121.651 618.896 108.513 616.577 100.95C613.255 90.1147 613.329 88.5427 617.56 79.9009L621.107 72.658L618.653 64.3181C617.303 59.7311 616.071 55.7918 615.914 55.564C615.758 55.3362 614.094 56.6862 612.216 58.564L608.802 61.9783H604.138H599.474L589.077 56.5603L578.681 51.1426L573.075 45.136C566.996 38.6222 565.885 36.2748 565.743 29.6472L565.651 25.3115L563.283 20.6448C558.361 10.9421 551.644 5.87179 548.232 9.28369L546.26 11.2561L551.377 26.5664L556.493 41.8767L561.373 50.6021C564.057 55.401 567.288 60.0737 568.554 60.9861C571.599 63.1799 573.085 66.8512 573.471 73.1321L573.789 78.2861L575.235 79.7322C577.05 81.547 577.121 84.6448 575.347 84.6448C574.614 84.6448 574.014 83.895 574.014 82.9783C574.014 82.0617 572.237 78.0117 570.067 73.9783C567.896 69.945 566.096 65.8165 566.067 64.804C566.038 63.7916 563.814 59.901 561.125 56.1582L556.236 49.3533L552.394 36.6658C550.28 29.6876 547.566 20.5773 546.362 16.4207L544.173 8.86304L545.923 6.75391L547.674 4.64478L550.511 4.64575H553.347L558.127 8.97827C560.756 11.361 564.036 15.2605 565.415 17.6438C568.364 22.7411 568.114 22.6972 575.467 19.4053L581.211 16.8337L583.385 17.9976L585.56 19.1611L592.451 19.1082L599.343 19.0552L605.195 22.4844L611.046 25.9138L613.845 30.657L616.643 35.4004L616.948 42.689L617.253 49.9778H619.634C622.377 49.9778 622.522 50.5381 620.669 54.0005L619.323 56.5146L622.112 65.0098L624.901 73.5051L620.896 82.075L616.892 90.6445L620 100.645C621.71 106.145 624.431 117.018 626.046 124.809L628.984 138.973L628.917 145.475C628.881 149.052 628.351 162.918 627.739 176.29L626.628 200.603L624.37 202.86L622.112 205.118L621.219 202.792ZM607.33 57.9783H608.427L607.738 52.8411L607.049 47.7041L609.845 41.3831L612.641 35.0623L611.281 32.5203C609.071 28.3925 607.123 30.982 602.8 43.7896L600.614 50.2673L601.477 54.8694L602.341 59.4714L604.286 58.7249C605.357 58.3143 606.726 57.9783 607.33 57.9783ZM601.883 36.1028C603.422 31.7714 604.681 27.5173 604.681 26.6492V25.0708L597.681 23.4104L590.681 21.75L586.885 23.2134L583.089 24.677L582.367 27.4402L581.644 30.2036L580.526 28.4243L579.408 26.6448L580.134 24.3115L580.86 21.9783H579.512C578.77 21.9783 576.499 23.4094 574.465 25.1587L570.767 28.3394L572.674 30.6365L574.58 32.9333L572.348 34.5654L570.116 36.1975L572.289 39.4211C575.653 44.4109 582.788 50.2753 590.41 54.3145L597.347 57.9907L598.216 50.9844C598.694 47.131 600.344 40.4343 601.883 36.1028ZM582.875 47.6267L582.159 46.4678L587.3 36.5562L592.441 26.6448L594.436 26.2375L596.432 25.8306L597.257 27.1655L598.082 28.5007L592.771 35.5181C589.85 39.3776 587.285 43.713 587.07 45.1523C586.65 47.9757 584.042 49.5141 582.875 47.6267ZM613.379 46.2322L612.536 45.3887L611.295 47.3501C610.613 48.4288 610.07 50.5117 610.088 51.9783L610.121 54.6448L612.172 50.8604L614.223 47.0757L613.379 46.2322ZM568.083 195.423L567.328 194.202L568.825 190.423L570.321 186.645L570.168 181.423L570.016 176.202L567.348 171.68C565.881 169.194 564.681 166.427 564.681 165.532C564.681 164.638 562.954 162.015 560.843 159.705C558.733 157.394 554.827 152.01 552.163 147.741C549.5 143.471 541.777 133.439 535.001 125.446L522.681 110.914L514.309 103.811L505.936 96.7078L496.309 92.1392L486.681 87.5706L477.109 85.4465L467.537 83.3228L450.442 83.1992L433.347 83.0754L424.014 85.3743L414.681 87.6729L405.605 92.364L396.529 97.0552L390.451 103.85L384.372 110.645L378.698 122.645C375.578 129.245 372.584 136.145 372.047 137.978C371.509 139.812 368.432 147.969 365.209 156.105L359.35 170.898L358.49 179.122L357.631 187.345L359.953 189.911L362.275 192.477L361.337 193.994L360.399 195.512L357.207 192.513L354.014 189.513L354.047 185.412C354.111 177.283 357.707 166.401 372.582 129.312C383.638 101.746 396.875 88.8484 420.719 82.4114L429.347 80.0823L450.681 80.0828L472.014 80.083L484.993 83.7271L497.971 87.3708L506.326 93.269C518.341 101.751 530.258 113.737 539.838 126.974C542.623 130.821 545.643 134.421 546.549 134.974C548.562 136.201 556.681 147.984 556.681 149.678C556.681 150.349 557.881 151.984 559.347 153.312C560.814 154.639 562.014 156.325 562.014 157.059C562.014 157.793 563.664 160.531 565.681 163.143C567.697 165.755 570.354 170.012 571.584 172.602L573.82 177.312L575.104 173.944C575.81 172.092 577.341 164.892 578.507 157.944L580.626 145.312L580.104 140.645C579.816 138.078 579.186 127.427 578.704 116.975C578.221 106.524 577.313 96.182 576.685 93.9934L575.544 90.0142L576.637 89.3389L577.73 88.6633L578.66 92.3208C579.172 94.3324 579.809 98.6783 580.076 101.978C580.343 105.278 581.225 115.728 582.035 125.201L583.509 142.423L582.693 151.201C581.475 164.296 581.201 166.106 579.449 172.645C573.887 193.41 570.738 199.72 568.083 195.423ZM213.893 171.414L209.164 167.516L207.494 161.942C206.575 158.876 205.454 155.38 205.003 154.173L204.181 151.978L206.431 153.808L208.681 155.638V157.997V160.356L214.681 167.03C223.016 176.3 222.604 178.594 213.893 171.414ZM425.681 159.844L420.681 157.693V156.351V155.009L425.014 155.971C435.935 158.398 447.017 156.626 457.471 150.784L463.753 147.272L464.55 148.072L465.347 148.872L461.746 151.971L458.145 155.071L450.427 157.958C446.183 159.547 440.003 161.105 436.695 161.421L430.681 161.996L425.681 159.844ZM856.014 155.739C853.814 155.468 847.672 154.322 842.366 153.192L832.718 151.138L827.119 145.917C821.218 140.414 821.069 139.843 825.347 139.105L828.014 138.645L827.701 141.621L827.387 144.597L831.636 146.794C837.116 149.628 851.578 152.645 859.68 152.645H866.014V153.978C866.014 154.712 865.463 155.312 864.79 155.312C864.116 155.312 862.766 155.518 861.79 155.771C860.813 156.024 858.214 156.01 856.014 155.739ZM412.347 130.88L408.681 127.878V125.595C408.681 122.21 410.477 122.812 413.803 127.312L416.761 131.312H418.642C419.677 131.312 420.894 131.911 421.347 132.645L422.171 133.978L419.093 133.93L416.014 133.882L412.347 130.88ZM456.15 128.453L450.953 125.712L452.73 124.614L454.507 123.516L459.584 126.414C468.366 131.427 465.273 133.264 456.15 128.453ZM193.442 127.063C193.137 126.1 192.542 123.211 192.117 120.645C191.147 114.769 183.496 92.0057 178.741 80.8452L175.134 72.3789L166.907 61.5942C162.383 55.6628 152.381 44.3885 144.681 36.54L130.681 22.2703L120.014 16.9509L109.347 11.6318L96.142 8.04077L82.9365 4.44946L73.4753 4.43335L64.014 4.41748L47.4399 9.91138C27.4173 16.5485 16.1812 21.7943 10.2145 27.2905L5.74817 31.4045L6.59082 34.7615L7.43323 38.1184L4.79797 36.708C3.34847 35.9323 1.72261 34.5857 1.18481 33.7156L0.207031 32.1333L6.99841 26.0559C15.7312 18.2415 24.2271 13.9106 44.014 7.18628L60.014 1.74878L70.014 1.0708L80.014 0.392578L92.7306 3.74072C107.138 7.53382 117.701 12.0579 129.4 19.4451L137.453 24.5303L150.734 38.2629C175.771 64.1534 183.452 76.8827 192.494 107.477C196.932 122.491 197.508 126.643 195.338 127.984L193.995 128.814L193.442 127.063ZM879.014 124.122C875.952 121.798 876.063 120.645 879.347 120.645C880.814 120.645 882.014 120.896 882.014 121.202C882.014 121.509 882.378 122.709 882.823 123.869L883.633 125.978L882.49 125.936C881.862 125.913 880.297 125.096 879.014 124.122ZM829.014 110.942C825.681 109.419 825.006 107.312 827.851 107.312C829.709 107.312 833.502 110.981 832.537 111.845C832.25 112.103 830.664 111.696 829.014 110.942ZM120.014 100.089C115.614 99.2139 110.664 97.76 109.014 96.8579L106.014 95.2178V93.2646V91.3115H107.401C108.164 91.3115 110.509 92.5838 112.613 94.1387L116.436 96.9658L128.296 97.6418L140.156 98.3181L144.418 96.114L148.681 93.9097V92.0461C148.681 91.0212 150.234 88.3369 152.133 86.0806L155.584 81.9783H157.466H159.347V84.6448V87.3115H157.651H155.954L153.352 92.1433C151.921 94.8008 149.493 97.7982 147.957 98.8044L145.165 100.634L136.59 101.157L128.014 101.68L120.014 100.089ZM57.8826 64.8035L54.6807 62.2078L55.6379 61.2468L56.5952 60.2859L60.6882 61.9812L64.7811 63.6768L64.3143 65.0774C63.4864 67.561 61.162 67.4621 57.8826 64.8035ZM108.654 54.6125C106.285 51.7577 107.637 50.9947 113.211 52.0405C118.31 52.9972 119.379 54.5023 115.905 55.8354C112.521 57.1338 110.458 56.7858 108.654 54.6125Z" fill="#0C0C0C"/>
</svg>
