<svg width="86" height="86" viewBox="0 0 86 86" fill="none" xmlns="http://www.w3.org/2000/svg">
<path d="M42.007 1.32482C42.1472 0.149408 43.8528 0.149401 43.993 1.32482L47.4194 30.0518C47.5119 30.8269 48.4173 31.202 49.0308 30.7192L71.7667 12.8291C72.697 12.0971 73.9029 13.303 73.1709 14.2333L55.2808 36.9692C54.798 37.5827 55.1731 38.4881 55.9482 38.5806L84.6752 42.007C85.8506 42.1472 85.8506 43.8528 84.6752 43.993L55.9482 47.4194C55.1731 47.5119 54.798 48.4173 55.2808 49.0308L73.1709 71.7667C73.9029 72.697 72.697 73.9029 71.7667 73.1709L49.0308 55.2808C48.4173 54.798 47.5119 55.1731 47.4194 55.9482L43.993 84.6752C43.8528 85.8506 42.1472 85.8506 42.007 84.6752L38.5806 55.9482C38.4881 55.1731 37.5827 54.798 36.9692 55.2808L14.2333 73.1709C13.303 73.9029 12.0971 72.697 12.8291 71.7667L30.7192 49.0308C31.202 48.4173 30.8269 47.5119 30.0518 47.4194L1.32482 43.993C0.149408 43.8528 0.149401 42.1472 1.32482 42.007L30.0518 38.5806C30.8269 38.4881 31.202 37.5827 30.7192 36.9692L12.8291 14.2333C12.0971 13.303 13.303 12.0971 14.2333 12.8291L36.9692 30.7192C37.5827 31.202 38.4881 30.8269 38.5806 30.0518L42.007 1.32482Z" fill="#0F3AAA"/>
</svg>
